<svg viewBox="0 0 60 82" xmlns="http://www.w3.org/2000/svg" xmlns:xlink="http://www.w3.org/1999/xlink"><style>:root&gt;svg{display:none}:root&gt;svg:target{display:block}</style><svg viewBox="0 0 10 6" id="icon-arrow-down" xmlns="http://www.w3.org/2000/svg"><path d="M5 5.95c-.083 0-.25-.091-.333-.183L.167.82C0 .637 0 .27.167.088a.473.473 0 01.666 0L5 4.759 9.25.088a.473.473 0 01.666 0c.167.183.167.55 0 .732L5.333 5.86c-.083.091-.25.091-.333.091z"/></svg><svg viewBox="0 0 25 14" id="icon-arrow-next" xmlns="http://www.w3.org/2000/svg"><path d="M17.5 12.6l5.2-5.3H0V6.1h22.7L17.5.9l.8-.9L25 6.7l-6.7 6.7-.8-.8z"/></svg><svg viewBox="0 0 25 14" id="icon-arrow-prev" xmlns="http://www.w3.org/2000/svg"><path d="M7.5 12.6L2.3 7.3H25V6.1H2.3L7.5.9 6.7 0 0 6.7l6.7 6.7.8-.8z"/></svg><svg viewBox="0 0 60 82" id="icon-box" xmlns="http://www.w3.org/2000/svg"><g clip-path="url(#da)"><path opacity=".08" d="M60 .901v52.764c0 .601-.4.901-.901.901H10.617v.2c-.4-.1-.802-.5-.802-.9V.9c0-.5.401-.901.902-.901h48.28C59.6 0 60 .5 60 .901z"/><path d="M.5 82c-.3-.2-.5-.4-.5-.7V28.334c0-.4.4-.701.701-.701h48.28c.502 0 .802.4.802.7V81.1c0 .5-.4.7-.701.7L.5 82zm1.002-1.602h47.079V29.036H31.452v17.621c0 .4-.4.7-.7.7-.1 0-.201 0-.401-.1l-5.21-2.903-5.709 2.804c-.1.1-.2.1-.4.1s-.3-.1-.4-.2c-.101-.1-.301-.401-.301-.501V29.035H1.503v51.363zm23.44-37.846c.1 0 .1 0 .3.1l4.908 2.904v-16.52H19.533v16.32h.4l4.608-2.604c.1 0 .1 0 .2-.1h.1l.1-.1z"/><path d="M7.313 60.373c-.601 0-.902-.3-.902-.9 0-.601.3-.902.902-.902H18.53c.601 0 .902.3.902.901s-.3.901-.902.901H7.313zm0 5.407c-.601 0-.902-.3-.902-.9 0-.602.3-.902.902-.902h14.023c.601 0 .902.3.902.901 0 .6-.301.901-.902.901H7.313z"/></g><defs><clipPath id="da"><path d="M0 0h60v82H0z"/></clipPath></defs></svg><svg viewBox="0 0 34 38" id="icon-building" xmlns="http://www.w3.org/2000/svg"><g clip-path="url(#ea)" fill-rule="evenodd" clip-rule="evenodd"><path d="M.452 38C.181 38 0 37.819 0 37.548V.452C0 .181.181 0 .452 0h20.539c.27 0 .452.181.452.452v15.924h11.852c.272 0 .453.181.453.453v20.538c0 .271-.181.452-.453.452H.452V38zm21.081-.995h11.4V17.462h-11.4v19.543zm-10.766-6.153c.271 0 .452.181.452.453v5.7h9.32V.995H.994v36.01h9.32v-5.7c0-.272.18-.453.452-.453z"/><path d="M8.686 17.824a.907.907 0 01-.905-.905c0-.543.362-.905.905-.905h4.071c.453 0 .905.362.905.905s-.362.905-.905.905H8.686zm0-8.234a.907.907 0 01-.905-.904c0-.543.362-.905.905-.905h4.071c.453 0 .905.362.905.905 0 .542-.362.904-.905.904H8.686z"/></g><defs><clipPath id="ea"><path d="M0 0h33.929v38H0z"/></clipPath></defs></svg><svg viewBox="0 0 60 82" id="icon-calendar" xmlns="http://www.w3.org/2000/svg"><g clip-path="url(#fa)"><path opacity=".08" d="M60 5.306v47.058c0 1.201-.901 2.102-2.103 2.102H12.52v-.2h-.1c-1.202 0-2.104-.9-2.104-2.102V5.206c0-1.201.902-2.102 2.104-2.102h6.51V.9c0-.5.502-.901.902-.901.501 0 .902.5.902.901v2.403h29.048V.901c0-.5.501-.901.902-.901.5 0 .901.5.901.901v2.403h6.511c1.002-.1 1.903.801 1.903 2.002z"/><path d="M2.204 82v-.2h-.3A1.901 1.901 0 010 79.897V32.74c0-1.101.902-1.902 1.903-1.902h6.711v-2.303c0-.3.401-.701.702-.701.3 0 .7.4.7.7v2.604h29.45v-2.603c0-.3.4-.701.7-.701.301 0 .702.4.702.7v2.604h6.711c1.102 0 1.904.901 1.904 1.902v47.058A1.901 1.901 0 0147.579 82H2.204zm-.902-2.103c0 .401.3.701.701.701H47.38c.4 0 .701-.3.701-.7V41.65H1.302v38.246zm.501-47.658c-.4 0-.601.2-.601.4v7.61H47.98V32.74c0-.4 0-.4-.4-.4h-6.712v1.702c0 .3-.4.7-.701.7-.3 0-.801-.3-.801-.7v-1.903H9.916v1.702c0 .3-.4.701-.7.701-.301 0-.702-.4-.702-.7v-1.703H1.803v.1z"/><path d="M19.032 73.89L29.95 51.964v-1.002H17.13V49.36h15.125v1.702L21.136 73.89h-2.104z"/></g><defs><clipPath id="fa"><path d="M0 0h60v82H0z"/></clipPath></defs></svg><svg viewBox="0 0 11 8" id="icon-check" xmlns="http://www.w3.org/2000/svg"><g clip-path="url(#ga)"><path d="M0 4.3L3.7 8l7-7-1-1-6 6L1 3.3l-1 1z"/></g><defs><clipPath id="ga"><path d="M0 0h10.7v8H0z"/></clipPath></defs></svg><svg viewBox="0 0 16 12" id="icon-email" xmlns="http://www.w3.org/2000/svg"><path d="M15.9.8L11 5.6l4.9 4.8c.1-.2.1-.4.1-.6V1.4c0-.2-.1-.4-.1-.6zM14.6 0H1.4C1.2 0 1 .1.8.1L7 6.3c.5.5 1.4.5 2 0L15.2.1c-.2 0-.4-.1-.6-.1zM.1.8c0 .2-.1.4-.1.6v8.4c0 .2.1.4.1.6L5 5.6.1.8zm10.2 5.5l-.6.7c-1 .9-2.4.9-3.4 0l-.6-.7-4.9 4.8c.2.1.4.1.6.1h13.2c.2 0 .4-.1.6-.1l-4.9-4.8z"/></svg><svg viewBox="0 0 60 82" id="icon-email2" xmlns="http://www.w3.org/2000/svg"><g clip-path="url(#ia)"><path d="M39.415 52.642c-.21 0-.525-.108-.63-.324L9.062 21.835c-.105-.216-.21-.432-.21-.649 0-.216.105-.54.315-.648L28.702.324c.21-.216.42-.324.735-.324.21 0 .526.108.63.324l12.709 13.08L59.58 30.699c.21.216.315.432.315.648 0 .217-.105.54-.315.649L40.045 52.318c-.21.216-.42.324-.63.324z" fill-opacity=".08"/><path d="M37.574 77.85c-.197 0-.394-.102-.59-.203L9.344 49.099c-.098-.102-.196-.304-.196-.608 0-.202.098-.405.196-.607l18.394-18.931c.098-.101.295-.203.59-.203.197 0 .393.102.59.203l11.902 12.25L56.557 57.4c.197.101.197.304.197.607 0 .203-.098.405-.197.608L38.164 77.647c-.197.101-.394.202-.59.202zm.787-2.734l16.033-16.4H38.36v16.4zm-1.574 0v-16.4h-4.131c-2.754 0-5.017-2.328-5.017-5.163v-4.252H11.705l25.082 25.815zM29.31 53.553c0 1.923 1.574 3.543 3.443 3.543h21.148L39.738 42.518l-.197-.202h-.098L29.312 31.787v21.766zm-17.606-5.872h15.934v-16.4l-15.934 16.4zm9.936 31.282H4.524c-.689 0-1.18.607-1.18 1.215 0 .607.59 1.215 1.18 1.215h17.114c.689 0 1.18-.608 1.18-1.215 0-.608-.491-1.215-1.18-1.215zm-5.312-7.998H9.54c-.689 0-1.18.608-1.18 1.215 0 .709.59 1.215 1.18 1.215h6.787c.688 0 1.18-.607 1.18-1.215.099-.709-.492-1.215-1.18-1.215zM8.36 64.082H1.18c-.688 0-1.18.607-1.18 1.214 0 .608.59 1.215 1.18 1.215h7.18c.69 0 1.181-.607 1.181-1.215 0-.708-.492-1.215-1.18-1.215z"/></g><defs><clipPath id="ia"><path d="M0 0h60v82H0z"/></clipPath></defs></svg><svg viewBox="0 0 60 82" id="icon-file" xmlns="http://www.w3.org/2000/svg"><g clip-path="url(#ja)"><path opacity=".08" d="M13.087 54.767V0h32.416L60 13.416v41.45l-46.913-.1z"/><path d="M0 82V27.634h32.215L46.61 41.05V82H0zm1.41-1H45.1V41.85H31.209V28.935H1.41V81zm31.006-40.75h11.779L32.416 29.636V40.25z"/><path d="M8.355 64.679c-.503 0-.805-.3-.805-.801 0-.5.302-.801.805-.801h19.53c.504 0 .806.5.806.8 0 .502-.302.802-.805.802H8.355zm0-6.208c-.503 0-.805-.3-.805-.8 0-.501.302-.802.805-.802h19.53c.504 0 .806.3.806.801 0 .5-.302.801-.805.801H8.355zm0-6.307c-.503 0-.805-.3-.805-.801 0-.501.302-.801.805-.801h19.53c.504 0 .806.3.806.8 0 .501-.302.802-.805.802H8.355zm0-6.208c-.503 0-.805-.3-.805-.801 0-.5.302-.8.805-.8h19.53c.504 0 .806.5.806.8 0 .5-.302.801-.805.801H8.355zm0-6.208c-.503 0-1.006-.3-1.006-.8 0-.601.503-.801 1.006-.801h7.752c.503 0 .805.3.805.8 0 .501-.302.801-.805.801H8.355z"/></g><defs><clipPath id="ja"><path d="M0 0h60v82H0z"/></clipPath></defs></svg><svg viewBox="0 0 15 19" id="icon-location" xmlns="http://www.w3.org/2000/svg"><path d="M6.955 1C3.355 1.164.409 3.945 0 7.464c0 .736 0 1.39.164 2.045 0 0 0 .082.081.246.082.49.246.981.491 1.39.737 1.719 2.373 4.582 6.137 7.691a.743.743 0 00.818 0c3.763-3.109 5.4-5.972 6.136-7.69.246-.491.41-.9.491-1.391 0-.164.082-.246.082-.246.082-.409.164-.9.164-1.39C14.4 4.108 11.046.835 6.954 1zM7.2 11.718A3.492 3.492 0 013.682 8.2 3.492 3.492 0 017.2 4.682c1.964 0 3.436 1.636 3.436 3.6 0 1.963-1.554 3.436-3.436 3.436z"/></svg><svg viewBox="0 0 60 82" id="icon-location2" xmlns="http://www.w3.org/2000/svg"><g clip-path="url(#la)"><path d="M39.607 54.235c-5.175 0-10.15-.597-13.833-1.592-4.279-1.194-6.369-2.886-6.369-4.876 0-2.09 2.19-3.682 6.37-4.876 2.089-.597 4.477-.995 7.164-1.294l1.095-.1-.597-.995C26.57 28.86 22.987 20.6 22.987 16.52 23.088 7.364 30.552 0 39.608 0a16.48 16.48 0 0116.52 16.52c0 3.98-3.583 12.34-10.45 23.982l-.597.996 1.095.1c2.687.298 5.075.696 7.165 1.293 4.279 1.194 6.369 2.886 6.369 4.876 0 2.09-2.19 3.682-6.37 4.876-3.582 1.095-8.458 1.592-13.732 1.592z" fill-opacity=".08"/><path d="M27.765 82c-7.265 0-14.132-.995-19.306-2.687C1.493 76.825 0 73.94 0 71.95c0-2.587 2.388-4.478 4.478-5.573.1-.1.299-.1.398-.1.299 0 .697.2.796.498.1.2.1.498.1.697-.1.2-.2.398-.398.597-2.289 1.294-3.483 2.687-3.483 3.98 0 1.991 2.687 4.08 7.264 5.573 4.976 1.692 11.644 2.588 18.71 2.588 7.065 0 13.732-.896 18.708-2.588 4.578-1.492 7.264-3.582 7.264-5.572 0-1.294-1.293-2.687-3.483-3.98-.199-.1-.398-.3-.398-.598-.1-.199 0-.498.1-.697.199-.298.497-.497.796-.497.199 0 .299 0 .398.1 2.09 1.094 4.478 2.985 4.478 5.572 0 1.99-1.493 4.976-8.459 7.364C41.896 81.005 35.03 82 27.765 82z"/><path d="M27.764 74.934c-4.677 0-9.055-.497-12.34-1.492-3.681-.995-5.572-2.389-5.572-4.08 0-1.692 1.89-3.085 5.573-4.08 1.79-.498 3.98-.896 6.369-1.195l1.492-.199-.796-1.293c-6.17-10.45-9.354-17.813-9.354-21.396 0-8.06 6.568-14.629 14.628-14.629 8.061 0 14.63 6.568 14.63 14.629 0 3.583-3.285 10.947-9.355 21.396l-.796 1.293 1.492.2c2.389.298 4.578.596 6.37 1.194 3.681.995 5.572 2.388 5.572 4.08 0 1.691-1.89 3.085-5.573 4.08-3.284.995-7.662 1.492-12.34 1.492zm-4.18-9.553a45.371 45.371 0 00-7.164 1.095c-2.588.696-4.379 1.492-4.976 2.388l-.398.498.398.497c.597.896 2.388 1.692 4.976 2.389 3.085.796 7.165 1.194 11.344 1.194 4.18 0 8.26-.398 11.345-1.194 2.587-.697 4.379-1.493 4.976-2.389l.398-.497-.398-.498c-.597-.896-2.389-1.692-4.976-2.388-1.99-.498-4.478-.896-7.165-1.095h-.597l-.796 1.294a3.298 3.298 0 01-2.787 1.592c-1.194 0-2.189-.597-2.786-1.592l-.796-1.394-.597.1zm4.18-37.318A13.123 13.123 0 0014.63 41.199c0 3.583 4.279 12.837 11.543 24.68.299.597.896.895 1.592.895.697 0 1.195-.298 1.593-.895C36.62 54.036 40.9 44.78 40.9 41.199a13.123 13.123 0 00-13.136-13.136zm0 17.316c-2.886 0-5.274-2.389-5.274-5.275 0-2.886 2.389-5.274 5.274-5.274 2.886 0 5.275 2.388 5.275 5.274 0 2.986-2.389 5.275-5.275 5.275zm0-9.056c-2.09 0-3.88 1.691-3.88 3.88 0 2.19 1.691 3.882 3.88 3.882 2.19 0 3.881-1.692 3.881-3.881 0-2.19-1.691-3.881-3.88-3.881z"/></g><defs><clipPath id="la"><path d="M0 0h59.908v82H0z"/></clipPath></defs></svg><svg viewBox="0 0 27 38" id="icon-man" xmlns="http://www.w3.org/2000/svg"><g clip-path="url(#ma)"><path d="M13.439 34.107c-.556 0-1.112-.185-1.483-.556l-2.503-2.224c-.741-.649-1.02-1.576-.741-2.503l2.41-7.507c.092 0 .278-.093.463-.185a2.21 2.21 0 001.02-.556l1.946.092c.185.186.463.371.834.464l.556.278 2.317 7.415c.278.926 0 1.853-.741 2.502l-2.503 2.224a2.515 2.515 0 01-1.575.556zm-3.893-4.912c-.185.556 0 1.112.463 1.483l2.503 2.225c.278.185.556.37.927.37.37 0 .649-.092.927-.37l2.502-2.225c.463-.37.556-.927.463-1.483l-2.41-7.507h-2.965l-2.41 7.507z"/><path d="M5.468 38C2.502 38 0 35.498 0 32.532v-7.878c0-5.561 5.283-7.693 7.6-8.434l.834-.278-.649-.557c-3.429-2.873-3.522-6.858-2.502-9.639C6.303 2.966 8.99 0 13.439 0c4.541 0 8.249 3.337 8.712 7.878v1.854c-.185 2.131-1.297 4.17-2.966 5.653l-.648.464.834.185c4.727 1.298 7.507 4.449 7.507 8.342v8.063c0 3.059-2.502 5.468-5.468 5.468H5.468V38zm4.078-21.317c-2.595.556-8.62 2.41-8.62 7.97v7.879a4.549 4.549 0 004.542 4.541h15.85a4.549 4.549 0 004.54-4.541v-8.064c0-3.892-3.15-6.858-8.434-7.785h-.37l-.186.185-.926 3.522h-.186c-.278-.092-.463-.278-.649-.37l.742-2.781-.742.185c-.556.093-1.112.186-1.668.186-.556 0-1.112-.093-1.668-.186l-.742-.185.742 2.966c-.093.093-.278.093-.556.185-.093 0-.278.093-.371.093l-1.02-3.893-.278.093zM13.44 1.02c-3.615 0-7.6 2.41-7.785 7.785 0 4.356 3.522 7.878 7.785 7.878s7.785-3.522 7.785-7.785c-.185-5.469-4.17-7.878-7.785-7.878z"/></g><defs><clipPath id="ma"><path d="M0 0h26.878v38H0z"/></clipPath></defs></svg><svg viewBox="0 0 16 16" id="icon-phone" xmlns="http://www.w3.org/2000/svg"><path d="M15.5 11.5s-3.2-2.3-4.1-2.2c-.4.1-.7.4-1.1.9-.1.1-.3.3-.4.5-.3-.1-.6-.2-.9-.4C7.5 9.7 6.3 8.5 5.6 7c-.1-.3-.3-.6-.4-.9.2-.1.4-.3.5-.4.6-.4.9-.7.9-1.1C6.8 3.7 4.5.5 4.4.5 4.3.2 3.9 0 3.6 0 2.6 0 0 3.4 0 4c0 0 0 3.4 4.3 7.7C8.5 16 12 16 12 16c.6 0 4-2.6 4-3.6 0-.3-.2-.7-.5-.9z"/></svg><svg viewBox="0 0 60 82" id="icon-plane" xmlns="http://www.w3.org/2000/svg"><g clip-path="url(#oa)"><path opacity=".08" d="M44.566 62.051l-10.63-1.904v.1c-.512 1.103-1.636 1.804-2.76 1.804-1.125 0-2.351-.701-2.76-1.704v-.1l-10.63 1.804c-.307 0-.512 0-.614-.2-.102-.1-.204-.501-.204-.702v-4.21c0-.2.102-.702.306-.802l9.404-5.915-1.124-5.413v-9.122L3.27 44.408h-.205c-.102 0-.306 0-.51-.1-.307-.3-.41-.501-.41-.802v-6.215c0-.2.103-.702.512-.802l3.373-2.105v-2.406c0-1.604 1.226-3.007 2.76-3.007 1.226 0 2.35.802 2.657 2.105v.1l3.27-1.905v-2.506c0-1.604 1.227-3.007 2.76-3.007 1.227 0 2.352.902 2.658 2.205v.1l5.213-3.007V12.03c0-3.308.818-6.616 2.249-9.723C28.109.902 29.54 0 31.175 0c.307 0 .818 0 1.023.1 1.226.501 2.248 1.404 2.657 2.506 1.227 2.907 1.942 6.115 1.942 9.323v11.228l5.213 3.007v-.1c.307-1.304 1.431-2.206 2.658-2.206 1.533 0 2.76 1.404 2.76 3.008v2.506l3.27 1.904v-.1a2.704 2.704 0 012.658-2.105c.818 0 1.431.2 1.942.802.511.601.818 1.403.818 2.205v2.406l3.373 2.105c.204.1.511.502.511.802v6.215c0 .2-.102.602-.307.702-.102.1-.204.1-.51.1h-.205l-22.18-8.721v9.122l-1.023 5.614 9.404 5.914c.204.1.306.502.306.802v4.21c0 .201-.102.602-.204.702-.204-.1-.307 0-.715 0z"/><path d="M38.33 81.8l-9.914-1.604v.2c-.41.802-1.33 1.403-2.351 1.403-1.022 0-2.045-.601-2.351-1.403v-.2h-.205l-9.608 1.603h-.306s-.103-.3-.103-.5v-3.71c0-.2.102-.501.205-.501l8.586-5.413-1.022-5.012v-8.521L.818 65.96H.409c-.307-.2-.409-.4-.409-.5v-5.514c0-.2.102-.501.204-.501l3.271-1.905v-2.405c0-1.404 1.125-2.507 2.351-2.507 1.022 0 1.84.602 2.249 1.705v.3l3.373-1.804v-2.406c0-1.403 1.124-2.506 2.351-2.506 1.022 0 1.942.702 2.249 1.804v.301l.306-.1 4.804-2.807V37.29c0-2.807.614-5.714 1.942-8.621.716-1.203 1.943-2.005 3.17-2.005.306 0 .51 0 .92.1 1.021.401 1.839 1.103 2.35 2.206 1.227 2.806 1.84 5.613 1.84 8.22v10.024l5.11 2.907v-.501c.307-1.002 1.227-1.704 2.25-1.704 1.226 0 2.35 1.203 2.35 2.506v2.406l3.373 1.804v-.3c.307-1.103 1.125-1.705 2.25-1.705.612 0 1.123.2 1.737.702a2.69 2.69 0 01.613 1.704v2.306l3.27 1.904c.103.1.205.301.205.502v5.513c0 .2-.102.401-.204.401-.102.1-.102.1-.307.1h-.204L31.38 57.941v8.521l-1.227 5.113 8.586 5.413c.103.1.205.3.205.501v3.709c0 .2-.102.401-.102.501-.103.1-.205.2-.307.2l-.204-.1zM26.066 28.068c-.818 0-1.534.4-2.045 1.303-1.124 2.405-1.635 5.012-1.635 8.02v28.87l2.35 12.931c.103.902.614 1.404 1.432 1.404s1.329-.502 1.431-1.404l2.453-12.931v-28.87c0-2.908-.511-5.414-1.635-7.72-.307-.701-.92-1.303-1.534-1.503-.51-.1-.715-.1-.817-.1zM14.31 77.89v2.606l8.995-1.604-1.124-6.014-7.87 5.012zm14.412.802l8.995 1.704V77.59l-7.87-4.912-1.125 6.015zm-27.7-18.345v4.21l20.034-7.919v-7.92L1.022 60.349zM30.87 56.84l20.034 7.719v-4.311L30.869 49.02v7.819zM5.826 54.032c-.613 0-1.226.601-1.226 1.303v1.604l2.35-1.303v-.702c0-.501-.613-.902-1.124-.902zm40.375-.2c-.613 0-1.022.3-1.124.901v.803l2.35 1.503v-1.904c0-.702-.51-1.304-1.226-1.304zM13.697 49.42c-.613 0-1.227.602-1.227 1.304v1.704l2.351-1.303v-.301c.102-.401 0-.702-.306-1.002-.205-.301-.512-.402-.818-.402zm24.531.1c-.613 0-1.226.602-1.226 1.304v.3l2.453 1.304v-1.604c0-.702-.511-1.303-1.227-1.303z"/><path d="M26.984 41.802H25.35V61.95h1.635V41.8zm1.227-8.12c-.306-.902-1.124-1.403-1.942-1.503-.92 0-1.635.601-1.942 1.503l-.613 1.905 1.635.601.511-1.904c0-.1.205-.2.307-.2.102 0 .204.1.307.2l.51 1.904 1.636-.601-.409-1.905z"/></g><defs><clipPath id="oa"><path d="M0 0h60v82H0z"/></clipPath></defs></svg><svg viewBox="0 0 60 82" id="icon-smail" xmlns="http://www.w3.org/2000/svg"><g clip-path="url(#pa)"><path opacity=".08" d="M32.965 54.066c-15.076 0-27.236-12.015-27.236-26.933C5.729 12.115 17.889 0 32.965 0 47.94 0 60 12.115 60 27.133c0 14.918-12.06 26.933-27.035 26.933z"/><path d="M24.12 82C10.855 82 0 71.287 0 58.17c0-13.215 10.854-24.028 24.12-24.028 13.166 0 23.92 10.813 23.92 24.029C48.04 71.287 37.286 82 24.12 82zm0-46.457c-12.361 0-22.813 10.413-22.813 22.728 0 12.415 10.25 22.427 22.814 22.427 12.462 0 22.512-10.112 22.512-22.427 0-12.515-10.15-22.728-22.512-22.728z"/><path d="M24.02 68.083c-3.92 0-7.638-2.403-8.945-6.007-.1-.3-.1-.4 0-.6.1-.301.302-.301.503-.301h.301c.402 0 .603.3.804.5 1.005 3.004 4.121 4.906 7.337 4.906 3.216 0 6.231-2.002 7.337-4.906.1-.4.402-.5.804-.5h.301c.302.1.402.3.503.3.1.3.1.4 0 .6-1.407 3.505-4.925 6.008-8.945 6.008zm-5.527-16.019c-.804 0-1.508-.701-1.508-1.502s.704-1.502 1.508-1.502S20 49.76 20 50.562c0 .901-.703 1.502-1.507 1.502zm11.055 0c-.804 0-1.508-.701-1.508-1.502s.704-1.502 1.508-1.502 1.507.7 1.507 1.502c0 .901-.603 1.502-1.507 1.502z"/></g><defs><clipPath id="pa"><path d="M0 0h60v82H0z"/></clipPath></defs></svg><svg viewBox="0 0 60 82" id="icon-tel" xmlns="http://www.w3.org/2000/svg"><g clip-path="url(#qa)"><path d="M47.8 50.8h-.7c-3.9-.2-7.4-1.7-10-3-6.9-3.3-13-8.1-18-14.1-4.1-5-6.9-9.6-8.8-14.7-.8-2-1.7-5.1-1.5-8.4.2-2 1-3.7 2.4-5.1l3.9-4c1-1 2.3-1.5 3.6-1.5 1.3 0 2.5.5 3.5 1.6.8.7 1.5 1.4 2.2 2.1.3.4.7.7 1.1 1.1L28.6 8c1.1 1.1 1.7 2.4 1.7 3.7 0 1.3-.6 2.6-1.7 3.7l-1.2 1.2L25 19l-.3.2.1.3c.7 1.6 1.7 3.2 3.2 5 3 3.7 6.2 6.6 9.7 8.8.3.2.8.4 1.2.6l1.2.6 3.9-3.9c1.1-1.1 2.3-1.6 3.6-1.6 1.3 0 2.5.6 3.6 1.6l6.4 6.4c1.1 1.1 1.6 2.3 1.6 3.6 0 1.3-.6 2.6-1.6 3.7l-1.5 1.5-.2.2c-.7.7-1.3 1.3-1.9 2l-.1.1c-1.5 1.8-3.6 2.7-6.1 2.7z" fill-opacity=".08"/><path d="M38.1 81.5c-3-.2-6.2-1.1-9.9-3-6.9-3.3-12.9-8-17.9-14-4-4.6-6.8-9.3-8.8-14.5-.8-2-1.7-5-1.5-8.3.2-1.8 1-3.5 2.2-4.9l3.9-4c1.1-1 2.3-1.5 3.4-1.5 1.3 0 2.4.5 3.4 1.4.4.4.8.7 1.1 1.1.4.4.7.7 1.1 1 .2.2.4.5.7.7.1.1.3.2.4.4l3.2 3.2c1.1 1.1 1.6 2.3 1.6 3.5 0 1.2-.6 2.4-1.6 3.5l-4 4 .3.5c.7 1.6 1.7 3.2 3.2 5.1 3 3.7 6.2 6.6 9.8 8.8l1.2.6 1.4.8 4.1-4.1c1-1 2.2-1.5 3.4-1.5 1.2 0 2.4.5 3.4 1.5l6.4 6.4c1 .9 1.5 2.1 1.5 3.5 0 1.3-.5 2.4-1.5 3.5L47 76.6l-.2.3c-.6.6-1.3 1.3-1.9 2l-.1.1c-1.6 1.7-3.6 2.5-6 2.5h-.7zM9.7 32.8c-.8 0-1.7.4-2.3 1.1l-4 4c-1.1 1.1-1.6 2.3-1.9 3.9-.2 2.3.2 4.7 1.3 7.6 1.8 4.9 4.5 9.4 8.5 14.2 4.8 5.8 10.6 10.4 17.4 13.7 2.2 1.1 5.6 2.5 9.4 2.8h.6c2.1 0 3.6-.6 4.9-2.1.7-.8 1.5-1.6 2.2-2.3l1.5-1.5c1.5-1.6 1.5-3.3 0-4.8L41 63c-.3-.3-1.1-1.1-2.2-1.1-1 0-1.9.7-2.3 1l-4 4c-.2.2-.5.5-1.2.5-.2 0-.5-.1-.8-.2l-.1-.1-1.2-.6c-.5-.2-.9-.5-1.4-.8-3.7-2.3-7-5.3-10.2-9.3-1.7-2.3-2.9-4.2-3.7-6-.2-.8-.3-1.3.4-1.9 1.1-1 2.1-2 3-2.9l1-1c.8-.8 1.2-1.6 1.2-2.4 0-.8-.4-1.5-1.2-2.3L14 35.6l-.8-.8-1.3-1.3c-.7-.4-1.4-.7-2.2-.7zm32.9 20.5c-.5 0-.9-.3-1-.8-.5-3.2-2-6.1-4.3-8.3-2.3-2.3-5.2-3.8-8.3-4.3-.2 0-.5-.2-.6-.4-.2-.2-.2-.5-.2-.7.1-.5.5-.8 1-.8h.2c3.6.6 6.8 2.3 9.4 4.9 2.6 2.6 4.3 5.8 4.9 9.4 0 .3 0 .5-.2.7-.2.2-.4.4-.6.4-.2-.1-.3-.1-.3-.1zm10-.5c-.5 0-.9-.3-1-.8-.9-5.5-3.6-10.6-7.6-14.6-4-4-9.1-6.6-14.6-7.6-.5-.1-.9-.6-.8-1.1.1-.5.5-.8.9-.8h.2c5.9 1 11.4 3.8 15.6 8.1 4.3 4.3 7.1 9.7 8.1 15.6 0 .3 0 .5-.2.7-.1.2-.4.3-.6.5z"/></g><defs><clipPath id="qa"><path d="M0 0h59.2v81.5H0z"/></clipPath></defs></svg><svg viewBox="0 0 60 82" id="icon-temperature" xmlns="http://www.w3.org/2000/svg"><g clip-path="url(#ra)"><path opacity=".08" d="M35.348 60.073c-7.233 0-13.141-5.807-13.141-12.916 0-3.904 1.732-7.408 4.788-9.811V8.21c0-4.405 3.769-8.21 8.251-8.21 4.482 0 8.251 3.805 8.251 8.11v29.035c3.056 2.704 4.788 6.308 4.788 10.012.102 7.11-5.806 12.916-12.937 12.916zm16.604-25.03c-.61 0-1.018-.601-1.018-1.002 0-.4.61-1 1.018-1h7.03c.61 0 1.018.6 1.018 1 0 .401-.611 1.002-1.019 1.002h-7.029zm-.305-7.009c-.611 0-1.019-.6-1.019-1.001 0-.4.611-1.001 1.019-1.001h4.788c.407 0 .814.1.916.4.102.1.102.4.102.701 0 .6-.611 1.001-1.019 1.001h-4.787v-.1zm.305-7.209c-.61 0-1.018-.6-1.018-1 0-.602.61-1.002 1.018-1.002h7.03c.61 0 1.018.6 1.018 1.001 0 .6-.611 1.001-1.019 1.001h-7.029zm-.305-6.908c-.611 0-1.019-.6-1.019-1.001 0-.601.611-1.002 1.019-1.002h4.788c.407 0 .814.1.916.401.102.1.102.4.102.7 0 .602-.611 1.002-1.019 1.002h-4.787v-.1zm.305-7.209c-.61 0-1.018-.6-1.018-1.001 0-.4.61-1.001 1.018-1.001h7.03c.61.1 1.018.7 1.018 1.201 0 .6-.611 1.001-1.019 1.001l-7.029-.2z"/><path d="M11.41 82A11.399 11.399 0 010 70.586c0-3.504 1.63-6.808 4.278-8.71V35.342c0-3.905 3.26-7.209 7.131-7.209 3.871 0 7.13 3.304 7.13 7.109v26.232c2.751 2.403 4.28 5.707 4.28 9.01 0 3.105-1.121 5.908-3.362 8.11A11.115 11.115 0 0111.409 82zm.305-52.264c-3.158 0-5.705 2.603-5.705 5.707v26.933c0 .4-.102.4-.305.5-2.75 2.003-4.279 4.807-4.279 8.01 0 5.407 4.482 9.812 9.983 9.812 5.4 0 9.881-4.405 10.187-10.012 0-3.104-1.426-6.007-3.973-8.01 0-.1-.306-.5-.306-.6V35.243c0-2.904-2.648-5.507-5.602-5.507zm14.669 29.636c-.306 0-.713-.5-.713-.7 0-.3.509-.701.713-.701H32.7c.305 0 .713.5.713.7 0 .3-.51.701-.713.701h-6.316zm-.204-6.307c-.306 0-.713-.5-.713-.701 0-.3.51-.701.713-.701h4.278c.408 0 .612.1.612.2.102.1.102.4.102.5 0 .301-.51.702-.714.702H26.18zm.204-6.508c-.306 0-.713-.5-.713-.701 0-.3.509-.701.713-.701H32.7c.305 0 .713.5.713.7 0 .301-.51.702-.713.702h-6.316zm-.204-6.308c-.306 0-.713-.5-.713-.7 0-.301.51-.702.713-.702h4.278c.408 0 .612.1.612.2.102.1.102.401.102.501 0 .3-.51.701-.714.701H26.18zm.407-6.408v-.1h-.203c-.306 0-.713-.5-.713-.7 0-.301.509-.702.713-.702H32.7c.305.1.713.4.713.801 0 .3-.51.701-.713.701h-6.113z"/><path d="M11.613 75.892c-2.954 0-5.4-2.302-5.4-5.206 0-2.403 1.834-4.606 4.28-5.106h.203V35.143c0-.5.204-.801.815-.901.408 0 .917.6.917.9V65.68h.204c2.444.4 4.278 2.503 4.38 5.006 0 2.904-2.343 5.206-5.4 5.206zm-.102-8.91c-2.037 0-3.77 1.702-3.77 3.704 0 2.103 1.63 3.705 3.77 3.705 2.037 0 3.77-1.702 3.77-3.705 0-2.102-1.63-3.704-3.77-3.704z"/></g><defs><clipPath id="ra"><path d="M0 0h60v82H0z"/></clipPath></defs></svg></svg>