<svg width="60" height="82" fill="none" xmlns="http://www.w3.org/2000/svg"><g clip-path="url(#clip0_405_5224)"><path opacity=".08" d="M60 .901v52.764c0 .601-.4.901-.901.901H10.617v.2c-.4-.1-.802-.5-.802-.9V.9c0-.5.401-.901.902-.901h48.28C59.6 0 60 .5 60 .901z" fill="#BCC9DA"/><path d="M.5 82c-.3-.2-.5-.4-.5-.7V28.334c0-.4.4-.701.701-.701h48.28c.502 0 .802.4.802.7V81.1c0 .5-.4.7-.701.7L.5 82zm1.002-1.602h47.079V29.036H31.452v17.621c0 .4-.4.7-.7.7-.1 0-.201 0-.401-.1l-5.21-2.903-5.709 2.804c-.1.1-.2.1-.4.1s-.3-.1-.4-.2c-.101-.1-.301-.401-.301-.501V29.035H1.503v51.363zm23.44-37.846c.1 0 .1 0 .3.1l4.908 2.904v-16.52H19.533v16.32h.4l4.608-2.604c.1 0 .1 0 .2-.1h.1l.1-.1z" fill="#F3F3F3"/><path d="M7.313 60.373c-.601 0-.902-.3-.902-.9 0-.601.3-.902.902-.902H18.53c.601 0 .902.3.902.901s-.3.901-.902.901H7.313zm0 5.407c-.601 0-.902-.3-.902-.9 0-.602.3-.902.902-.902h14.023c.601 0 .902.3.902.901 0 .6-.301.901-.902.901H7.313z" fill="#9FCCFF"/></g><defs><clipPath id="clip0_405_5224"><path fill="#fff" d="M0 0h60v82H0z"/></clipPath></defs></svg>