<svg width="60" height="82" fill="none" xmlns="http://www.w3.org/2000/svg"><g clip-path="url(#clip0_405_5938)"><path d="M47.8 50.8h-.7c-3.9-.2-7.4-1.7-10-3-6.9-3.3-13-8.1-18-14.1-4.1-5-6.9-9.6-8.8-14.7-.8-2-1.7-5.1-1.5-8.4.2-2 1-3.7 2.4-5.1l3.9-4c1-1 2.3-1.5 3.6-1.5 1.3 0 2.5.5 3.5 1.6.8.7 1.5 1.4 2.2 2.1.3.4.7.7 1.1 1.1L28.6 8c1.1 1.1 1.7 2.4 1.7 3.7 0 1.3-.6 2.6-1.7 3.7l-1.2 1.2L25 19l-.3.2.1.3c.7 1.6 1.7 3.2 3.2 5 3 3.7 6.2 6.6 9.7 8.8.3.2.8.4 1.2.6l1.2.6 3.9-3.9c1.1-1.1 2.3-1.6 3.6-1.6 1.3 0 2.5.6 3.6 1.6l6.4 6.4c1.1 1.1 1.6 2.3 1.6 3.6 0 1.3-.6 2.6-1.6 3.7l-1.5 1.5-.2.2c-.7.7-1.3 1.3-1.9 2l-.1.1c-1.5 1.8-3.6 2.7-6.1 2.7z" fill="#BCC9DA" fill-opacity=".08"/><path d="M38.1 81.5c-3-.2-6.2-1.1-9.9-3-6.9-3.3-12.9-8-17.9-14-4-4.6-6.8-9.3-8.8-14.5-.8-2-1.7-5-1.5-8.3.2-1.8 1-3.5 2.2-4.9l3.9-4c1.1-1 2.3-1.5 3.4-1.5 1.3 0 2.4.5 3.4 1.4.4.4.8.7 1.1 1.1.4.4.7.7 1.1 1 .2.2.4.5.7.7.1.1.3.2.4.4l3.2 3.2c1.1 1.1 1.6 2.3 1.6 3.5 0 1.2-.6 2.4-1.6 3.5l-4 4 .3.5c.7 1.6 1.7 3.2 3.2 5.1 3 3.7 6.2 6.6 9.8 8.8l1.2.6 1.4.8 4.1-4.1c1-1 2.2-1.5 3.4-1.5 1.2 0 2.4.5 3.4 1.5l6.4 6.4c1 .9 1.5 2.1 1.5 3.5 0 1.3-.5 2.4-1.5 3.5L47 76.6l-.2.3c-.6.6-1.3 1.3-1.9 2l-.1.1c-1.6 1.7-3.6 2.5-6 2.5h-.7zM9.7 32.8c-.8 0-1.7.4-2.3 1.1l-4 4c-1.1 1.1-1.6 2.3-1.9 3.9-.2 2.3.2 4.7 1.3 7.6 1.8 4.9 4.5 9.4 8.5 14.2 4.8 5.8 10.6 10.4 17.4 13.7 2.2 1.1 5.6 2.5 9.4 2.8h.6c2.1 0 3.6-.6 4.9-2.1.7-.8 1.5-1.6 2.2-2.3l1.5-1.5c1.5-1.6 1.5-3.3 0-4.8L41 63c-.3-.3-1.1-1.1-2.2-1.1-1 0-1.9.7-2.3 1l-4 4c-.2.2-.5.5-1.2.5-.2 0-.5-.1-.8-.2l-.1-.1-1.2-.6c-.5-.2-.9-.5-1.4-.8-3.7-2.3-7-5.3-10.2-9.3-1.7-2.3-2.9-4.2-3.7-6-.2-.8-.3-1.3.4-1.9 1.1-1 2.1-2 3-2.9l1-1c.8-.8 1.2-1.6 1.2-2.4 0-.8-.4-1.5-1.2-2.3L14 35.6l-.8-.8-1.3-1.3c-.7-.4-1.4-.7-2.2-.7z" fill="#F3F3F3"/><path d="M42.6 53.3c-.5 0-.9-.3-1-.8-.5-3.2-2-6.1-4.3-8.3-2.3-2.3-5.2-3.8-8.3-4.3-.2 0-.5-.2-.6-.4-.2-.2-.2-.5-.2-.7.1-.5.5-.8 1-.8h.2c3.6.6 6.8 2.3 9.4 4.9 2.6 2.6 4.3 5.8 4.9 9.4 0 .3 0 .5-.2.7-.2.2-.4.4-.6.4-.2-.1-.3-.1-.3-.1zm10-.5c-.5 0-.9-.3-1-.8-.9-5.5-3.6-10.6-7.6-14.6-4-4-9.1-6.6-14.6-7.6-.5-.1-.9-.6-.8-1.1.1-.5.5-.8.9-.8h.2c5.9 1 11.4 3.8 15.6 8.1 4.3 4.3 7.1 9.7 8.1 15.6 0 .3 0 .5-.2.7-.1.2-.4.3-.6.5z" fill="#9FCCFF"/></g><defs><clipPath id="clip0_405_5938"><path fill="#fff" d="M0 0h59.2v81.5H0z"/></clipPath></defs></svg>