<svg width="60" height="82" fill="none" xmlns="http://www.w3.org/2000/svg"><g clip-path="url(#clip0_405_5266)"><path opacity=".08" d="M32.965 54.066c-15.076 0-27.236-12.015-27.236-26.933C5.729 12.115 17.889 0 32.965 0 47.94 0 60 12.115 60 27.133c0 14.918-12.06 26.933-27.035 26.933z" fill="#BCC9DA"/><path d="M24.12 82C10.855 82 0 71.287 0 58.17c0-13.215 10.854-24.028 24.12-24.028 13.166 0 23.92 10.813 23.92 24.029C48.04 71.287 37.286 82 24.12 82zm0-46.457c-12.361 0-22.813 10.413-22.813 22.728 0 12.415 10.25 22.427 22.814 22.427 12.462 0 22.512-10.112 22.512-22.427 0-12.515-10.15-22.728-22.512-22.728z" fill="#F3F3F3"/><path d="M24.02 68.083c-3.92 0-7.638-2.403-8.945-6.007-.1-.3-.1-.4 0-.6.1-.301.302-.301.503-.301h.301c.402 0 .603.3.804.5 1.005 3.004 4.121 4.906 7.337 4.906 3.216 0 6.231-2.002 7.337-4.906.1-.4.402-.5.804-.5h.301c.302.1.402.3.503.3.1.3.1.4 0 .6-1.407 3.505-4.925 6.008-8.945 6.008zm-5.527-16.019c-.804 0-1.508-.701-1.508-1.502s.704-1.502 1.508-1.502S20 49.76 20 50.562c0 .901-.703 1.502-1.507 1.502zm11.055 0c-.804 0-1.508-.701-1.508-1.502s.704-1.502 1.508-1.502 1.507.7 1.507 1.502c0 .901-.603 1.502-1.507 1.502z" fill="#9FCCFF"/></g><defs><clipPath id="clip0_405_5266"><path fill="#fff" d="M0 0h60v82H0z"/></clipPath></defs></svg>