<svg width="60" height="82" fill="none" xmlns="http://www.w3.org/2000/svg"><g clip-path="url(#clip0_405_5245)"><path opacity=".08" d="M44.566 62.051l-10.63-1.904v.1c-.512 1.103-1.636 1.804-2.76 1.804-1.125 0-2.351-.701-2.76-1.704v-.1l-10.63 1.804c-.307 0-.512 0-.614-.2-.102-.1-.204-.501-.204-.702v-4.21c0-.2.102-.702.306-.802l9.404-5.915-1.124-5.413v-9.122L3.27 44.408h-.205c-.102 0-.306 0-.51-.1-.307-.3-.41-.501-.41-.802v-6.215c0-.2.103-.702.512-.802l3.373-2.105v-2.406c0-1.604 1.226-3.007 2.76-3.007 1.226 0 2.35.802 2.657 2.105v.1l3.27-1.905v-2.506c0-1.604 1.227-3.007 2.76-3.007 1.227 0 2.352.902 2.658 2.205v.1l5.213-3.007V12.03c0-3.308.818-6.616 2.249-9.723C28.109.902 29.54 0 31.175 0c.307 0 .818 0 1.023.1 1.226.501 2.248 1.404 2.657 2.506 1.227 2.907 1.942 6.115 1.942 9.323v11.228l5.213 3.007v-.1c.307-1.304 1.431-2.206 2.658-2.206 1.533 0 2.76 1.404 2.76 3.008v2.506l3.27 1.904v-.1a2.704 2.704 0 012.658-2.105c.818 0 1.431.2 1.942.802.511.601.818 1.403.818 2.205v2.406l3.373 2.105c.204.1.511.502.511.802v6.215c0 .2-.102.602-.307.702-.102.1-.204.1-.51.1h-.205l-22.18-8.721v9.122l-1.023 5.614 9.404 5.914c.204.1.306.502.306.802v4.21c0 .201-.102.602-.204.702-.204-.1-.307 0-.715 0z" fill="#BCC9DA"/><path d="M38.33 81.8l-9.914-1.604v.2c-.41.802-1.33 1.403-2.351 1.403-1.022 0-2.045-.601-2.351-1.403v-.2h-.205l-9.608 1.603h-.306s-.103-.3-.103-.5v-3.71c0-.2.102-.501.205-.501l8.586-5.413-1.022-5.012v-8.521L.818 65.96H.409c-.307-.2-.409-.4-.409-.5v-5.514c0-.2.102-.501.204-.501l3.271-1.905v-2.405c0-1.404 1.125-2.507 2.351-2.507 1.022 0 1.84.602 2.249 1.705v.3l3.373-1.804v-2.406c0-1.403 1.124-2.506 2.351-2.506 1.022 0 1.942.702 2.249 1.804v.301l.306-.1 4.804-2.807V37.29c0-2.807.614-5.714 1.942-8.621.716-1.203 1.943-2.005 3.17-2.005.306 0 .51 0 .92.1 1.021.401 1.839 1.103 2.35 2.206 1.227 2.806 1.84 5.613 1.84 8.22v10.024l5.11 2.907v-.501c.307-1.002 1.227-1.704 2.25-1.704 1.226 0 2.35 1.203 2.35 2.506v2.406l3.373 1.804v-.3c.307-1.103 1.125-1.705 2.25-1.705.612 0 1.123.2 1.737.702a2.69 2.69 0 01.613 1.704v2.306l3.27 1.904c.103.1.205.301.205.502v5.513c0 .2-.102.401-.204.401-.102.1-.102.1-.307.1h-.204L31.38 57.941v8.521l-1.227 5.113 8.586 5.413c.103.1.205.3.205.501v3.709c0 .2-.102.401-.102.501-.103.1-.205.2-.307.2l-.204-.1zM26.066 28.068c-.818 0-1.534.4-2.045 1.303-1.124 2.405-1.635 5.012-1.635 8.02v28.87l2.35 12.931c.103.902.614 1.404 1.432 1.404s1.329-.502 1.431-1.404l2.453-12.931v-28.87c0-2.908-.511-5.414-1.635-7.72-.307-.701-.92-1.303-1.534-1.503-.51-.1-.715-.1-.817-.1zM14.31 77.89v2.606l8.995-1.604-1.124-6.014-7.87 5.012zm14.412.802l8.995 1.704V77.59l-7.87-4.912-1.125 6.015zm-27.7-18.345v4.21l20.034-7.919v-7.92L1.022 60.349zM30.87 56.84l20.034 7.719v-4.311L30.869 49.02v7.819zM5.826 54.032c-.613 0-1.226.601-1.226 1.303v1.604l2.35-1.303v-.702c0-.501-.613-.902-1.124-.902zm40.375-.2c-.613 0-1.022.3-1.124.901v.803l2.35 1.503v-1.904c0-.702-.51-1.304-1.226-1.304zM13.697 49.42c-.613 0-1.227.602-1.227 1.304v1.704l2.351-1.303v-.301c.102-.401 0-.702-.306-1.002-.205-.301-.512-.402-.818-.402zm24.531.1c-.613 0-1.226.602-1.226 1.304v.3l2.453 1.304v-1.604c0-.702-.511-1.303-1.227-1.303z" fill="#F3F3F3"/><path d="M26.984 41.802H25.35V61.95h1.635V41.8zm1.227-8.12c-.306-.902-1.124-1.403-1.942-1.503-.92 0-1.635.601-1.942 1.503l-.613 1.905 1.635.601.511-1.904c0-.1.205-.2.307-.2.102 0 .204.1.307.2l.51 1.904 1.636-.601-.409-1.905z" fill="#9FCCFF"/></g><defs><clipPath id="clip0_405_5245"><path fill="#fff" d="M0 0h60v82H0z"/></clipPath></defs></svg>