<svg width="34" height="38" fill="none" xmlns="http://www.w3.org/2000/svg"><g clip-path="url(#clip0_405_5887)" fill-rule="evenodd" clip-rule="evenodd"><path d="M.452 38C.181 38 0 37.819 0 37.548V.452C0 .181.181 0 .452 0h20.539c.27 0 .452.181.452.452v15.924h11.852c.272 0 .453.181.453.453v20.538c0 .271-.181.452-.453.452H.452V38zm21.081-.995h11.4V17.462h-11.4v19.543zm-10.766-6.153c.271 0 .452.181.452.453v5.7h9.32V.995H.994v36.01h9.32v-5.7c0-.272.18-.453.452-.453z" fill="#F3F3F3"/><path d="M8.686 17.824a.907.907 0 01-.905-.905c0-.543.362-.905.905-.905h4.071c.453 0 .905.362.905.905s-.362.905-.905.905H8.686zm0-8.234a.907.907 0 01-.905-.904c0-.543.362-.905.905-.905h4.071c.453 0 .905.362.905.905 0 .542-.362.904-.905.904H8.686z" fill="#9FCCFF"/></g><defs><clipPath id="clip0_405_5887"><path fill="#fff" d="M0 0h33.929v38H0z"/></clipPath></defs></svg>