<svg width="60" height="82" fill="none" xmlns="http://www.w3.org/2000/svg"><g clip-path="url(#clip0_405_5214)"><path opacity=".08" d="M60 5.306v47.058c0 1.201-.901 2.102-2.103 2.102H12.52v-.2h-.1c-1.202 0-2.104-.9-2.104-2.102V5.206c0-1.201.902-2.102 2.104-2.102h6.51V.9c0-.5.502-.901.902-.901.501 0 .902.5.902.901v2.403h29.048V.901c0-.5.501-.901.902-.901.5 0 .901.5.901.901v2.403h6.511c1.002-.1 1.903.801 1.903 2.002z" fill="#BCC9DA"/><path d="M2.204 82v-.2h-.3A1.901 1.901 0 010 79.897V32.74c0-1.101.902-1.902 1.903-1.902h6.711v-2.303c0-.3.401-.701.702-.701.3 0 .7.4.7.7v2.604h29.45v-2.603c0-.3.4-.701.7-.701.301 0 .702.4.702.7v2.604h6.711c1.102 0 1.904.901 1.904 1.902v47.058A1.901 1.901 0 0147.579 82H2.204zm-.902-2.103c0 .401.3.701.701.701H47.38c.4 0 .701-.3.701-.7V41.65H1.302v38.246zm.501-47.658c-.4 0-.601.2-.601.4v7.61H47.98V32.74c0-.4 0-.4-.4-.4h-6.712v1.702c0 .3-.4.7-.701.7-.3 0-.801-.3-.801-.7v-1.903H9.916v1.702c0 .3-.4.701-.7.701-.301 0-.702-.4-.702-.7v-1.703H1.803v.1z" fill="#F3F3F3"/><path d="M19.032 73.89L29.95 51.964v-1.002H17.13V49.36h15.125v1.702L21.136 73.89h-2.104z" fill="#9FCCFF"/></g><defs><clipPath id="clip0_405_5214"><path fill="#fff" d="M0 0h60v82H0z"/></clipPath></defs></svg>