<svg width="27" height="38" fill="none" xmlns="http://www.w3.org/2000/svg"><g clip-path="url(#clip0_405_5882)"><path d="M13.439 34.107c-.556 0-1.112-.185-1.483-.556l-2.503-2.224c-.741-.649-1.02-1.576-.741-2.503l2.41-7.507c.092 0 .278-.093.463-.185a2.21 2.21 0 001.02-.556l1.946.092c.185.186.463.371.834.464l.556.278 2.317 7.415c.278.926 0 1.853-.741 2.502l-2.503 2.224a2.515 2.515 0 01-1.575.556zm-3.893-4.912c-.185.556 0 1.112.463 1.483l2.503 2.225c.278.185.556.37.927.37.37 0 .649-.092.927-.37l2.502-2.225c.463-.37.556-.927.463-1.483l-2.41-7.507h-2.965l-2.41 7.507z" fill="#9FCCFF"/><path d="M5.468 38C2.502 38 0 35.498 0 32.532v-7.878c0-5.561 5.283-7.693 7.6-8.434l.834-.278-.649-.557c-3.429-2.873-3.522-6.858-2.502-9.639C6.303 2.966 8.99 0 13.439 0c4.541 0 8.249 3.337 8.712 7.878v1.854c-.185 2.131-1.297 4.17-2.966 5.653l-.648.464.834.185c4.727 1.298 7.507 4.449 7.507 8.342v8.063c0 3.059-2.502 5.468-5.468 5.468H5.468V38zm4.078-21.317c-2.595.556-8.62 2.41-8.62 7.97v7.879a4.549 4.549 0 004.542 4.541h15.85a4.549 4.549 0 004.54-4.541v-8.064c0-3.892-3.15-6.858-8.434-7.785h-.37l-.186.185-.926 3.522h-.186c-.278-.092-.463-.278-.649-.37l.742-2.781-.742.185c-.556.093-1.112.186-1.668.186-.556 0-1.112-.093-1.668-.186l-.742-.185.742 2.966c-.093.093-.278.093-.556.185-.093 0-.278.093-.371.093l-1.02-3.893-.278.093zM13.44 1.02c-3.615 0-7.6 2.41-7.785 7.785 0 4.356 3.522 7.878 7.785 7.878s7.785-3.522 7.785-7.785c-.185-5.469-4.17-7.878-7.785-7.878z" fill="#F3F3F3"/></g><defs><clipPath id="clip0_405_5882"><path fill="#fff" d="M0 0h26.878v38H0z"/></clipPath></defs></svg>