<svg width="60" height="82" fill="none" xmlns="http://www.w3.org/2000/svg"><g clip-path="url(#clip0_405_5256)"><path opacity=".08" d="M35.348 60.073c-7.233 0-13.141-5.807-13.141-12.916 0-3.904 1.732-7.408 4.788-9.811V8.21c0-4.405 3.769-8.21 8.251-8.21 4.482 0 8.251 3.805 8.251 8.11v29.035c3.056 2.704 4.788 6.308 4.788 10.012.102 7.11-5.806 12.916-12.937 12.916zm16.604-25.03c-.61 0-1.018-.601-1.018-1.002 0-.4.61-1 1.018-1h7.03c.61 0 1.018.6 1.018 1 0 .401-.611 1.002-1.019 1.002h-7.029zm-.305-7.009c-.611 0-1.019-.6-1.019-1.001 0-.4.611-1.001 1.019-1.001h4.788c.407 0 .814.1.916.4.102.1.102.4.102.701 0 .6-.611 1.001-1.019 1.001h-4.787v-.1zm.305-7.209c-.61 0-1.018-.6-1.018-1 0-.602.61-1.002 1.018-1.002h7.03c.61 0 1.018.6 1.018 1.001 0 .6-.611 1.001-1.019 1.001h-7.029zm-.305-6.908c-.611 0-1.019-.6-1.019-1.001 0-.601.611-1.002 1.019-1.002h4.788c.407 0 .814.1.916.401.102.1.102.4.102.7 0 .602-.611 1.002-1.019 1.002h-4.787v-.1zm.305-7.209c-.61 0-1.018-.6-1.018-1.001 0-.4.61-1.001 1.018-1.001h7.03c.61.1 1.018.7 1.018 1.201 0 .6-.611 1.001-1.019 1.001l-7.029-.2z" fill="#BCC9DA"/><path d="M11.41 82A11.399 11.399 0 010 70.586c0-3.504 1.63-6.808 4.278-8.71V35.342c0-3.905 3.26-7.209 7.131-7.209 3.871 0 7.13 3.304 7.13 7.109v26.232c2.751 2.403 4.28 5.707 4.28 9.01 0 3.105-1.121 5.908-3.362 8.11A11.115 11.115 0 0111.409 82zm.305-52.264c-3.158 0-5.705 2.603-5.705 5.707v26.933c0 .4-.102.4-.305.5-2.75 2.003-4.279 4.807-4.279 8.01 0 5.407 4.482 9.812 9.983 9.812 5.4 0 9.881-4.405 10.187-10.012 0-3.104-1.426-6.007-3.973-8.01 0-.1-.306-.5-.306-.6V35.243c0-2.904-2.648-5.507-5.602-5.507zm14.669 29.636c-.306 0-.713-.5-.713-.7 0-.3.509-.701.713-.701H32.7c.305 0 .713.5.713.7 0 .3-.51.701-.713.701h-6.316zm-.204-6.307c-.306 0-.713-.5-.713-.701 0-.3.51-.701.713-.701h4.278c.408 0 .612.1.612.2.102.1.102.4.102.5 0 .301-.51.702-.714.702H26.18zm.204-6.508c-.306 0-.713-.5-.713-.701 0-.3.509-.701.713-.701H32.7c.305 0 .713.5.713.7 0 .301-.51.702-.713.702h-6.316zm-.204-6.308c-.306 0-.713-.5-.713-.7 0-.301.51-.702.713-.702h4.278c.408 0 .612.1.612.2.102.1.102.401.102.501 0 .3-.51.701-.714.701H26.18zm.407-6.408v-.1h-.203c-.306 0-.713-.5-.713-.7 0-.301.509-.702.713-.702H32.7c.305.1.713.4.713.801 0 .3-.51.701-.713.701h-6.113z" fill="#F3F3F3"/><path d="M11.613 75.892c-2.954 0-5.4-2.302-5.4-5.206 0-2.403 1.834-4.606 4.28-5.106h.203V35.143c0-.5.204-.801.815-.901.408 0 .917.6.917.9V65.68h.204c2.444.4 4.278 2.503 4.38 5.006 0 2.904-2.343 5.206-5.4 5.206zm-.102-8.91c-2.037 0-3.77 1.702-3.77 3.704 0 2.103 1.63 3.705 3.77 3.705 2.037 0 3.77-1.702 3.77-3.705 0-2.102-1.63-3.704-3.77-3.704z" fill="#9FCCFF"/></g><defs><clipPath id="clip0_405_5256"><path fill="#fff" d="M0 0h60v82H0z"/></clipPath></defs></svg>