<svg width="15" height="19" fill="none" xmlns="http://www.w3.org/2000/svg"><path d="M6.955 1C3.355 1.164.409 3.945 0 7.464c0 .736 0 1.39.164 2.045 0 0 0 .082.081.246.082.49.246.981.491 1.39.737 1.719 2.373 4.582 6.137 7.691a.743.743 0 00.818 0c3.763-3.109 5.4-5.972 6.136-7.69.246-.491.41-.9.491-1.391 0-.164.082-.246.082-.246.082-.409.164-.9.164-1.39C14.4 4.108 11.046.835 6.954 1zM7.2 11.718A3.492 3.492 0 013.682 8.2 3.492 3.492 0 017.2 4.682c1.964 0 3.436 1.636 3.436 3.6 0 1.963-1.554 3.436-3.436 3.436z" fill="#fff"/></svg>