<svg width="60" height="82" fill="none" xmlns="http://www.w3.org/2000/svg"><g clip-path="url(#clip0_405_5949)"><path d="M39.415 52.642c-.21 0-.525-.108-.63-.324L9.062 21.835c-.105-.216-.21-.432-.21-.649 0-.216.105-.54.315-.648L28.702.324c.21-.216.42-.324.735-.324.21 0 .526.108.63.324l12.709 13.08L59.58 30.699c.21.216.315.432.315.648 0 .217-.105.54-.315.649L40.045 52.318c-.21.216-.42.324-.63.324z" fill="#BCC9DA" fill-opacity=".08"/><path d="M37.574 77.85c-.197 0-.394-.102-.59-.203L9.344 49.099c-.098-.102-.196-.304-.196-.608 0-.202.098-.405.196-.607l18.394-18.931c.098-.101.295-.203.59-.203.197 0 .393.102.59.203l11.902 12.25L56.557 57.4c.197.101.197.304.197.607 0 .203-.098.405-.197.608L38.164 77.647c-.197.101-.394.202-.59.202zm.787-2.734l16.033-16.4H38.36v16.4zm-1.574 0v-16.4h-4.131c-2.754 0-5.017-2.328-5.017-5.163v-4.252H11.705l25.082 25.815zM29.31 53.553c0 1.923 1.574 3.543 3.443 3.543h21.148L39.738 42.518l-.197-.202h-.098L29.312 31.787v21.766zm-17.606-5.872h15.934v-16.4l-15.934 16.4z" fill="#F3F3F3"/><path d="M21.64 78.963H4.524c-.689 0-1.18.607-1.18 1.215 0 .607.59 1.215 1.18 1.215h17.114c.689 0 1.18-.608 1.18-1.215 0-.608-.491-1.215-1.18-1.215zm-5.312-7.998H9.54c-.689 0-1.18.608-1.18 1.215 0 .709.59 1.215 1.18 1.215h6.787c.688 0 1.18-.607 1.18-1.215.099-.709-.492-1.215-1.18-1.215zM8.36 64.082H1.18c-.688 0-1.18.607-1.18 1.214 0 .608.59 1.215 1.18 1.215h7.18c.69 0 1.181-.607 1.181-1.215 0-.708-.492-1.215-1.18-1.215z" fill="#9FCCFF"/></g><defs><clipPath id="clip0_405_5949"><path fill="#fff" d="M0 0h60v82H0z"/></clipPath></defs></svg>