<svg width="60" height="82" fill="none" xmlns="http://www.w3.org/2000/svg"><g clip-path="url(#clip0_405_5235)"><path opacity=".08" d="M13.087 54.767V0h32.416L60 13.416v41.45l-46.913-.1z" fill="#BCC9DA"/><path d="M0 82V27.634h32.215L46.61 41.05V82H0zm1.41-1H45.1V41.85H31.209V28.935H1.41V81zm31.006-40.75h11.779L32.416 29.636V40.25z" fill="#F3F3F3"/><path d="M8.355 64.679c-.503 0-.805-.3-.805-.801 0-.5.302-.801.805-.801h19.53c.504 0 .806.5.806.8 0 .502-.302.802-.805.802H8.355zm0-6.208c-.503 0-.805-.3-.805-.8 0-.501.302-.802.805-.802h19.53c.504 0 .806.3.806.801 0 .5-.302.801-.805.801H8.355zm0-6.307c-.503 0-.805-.3-.805-.801 0-.501.302-.801.805-.801h19.53c.504 0 .806.3.806.8 0 .501-.302.802-.805.802H8.355zm0-6.208c-.503 0-.805-.3-.805-.801 0-.5.302-.8.805-.8h19.53c.504 0 .806.5.806.8 0 .5-.302.801-.805.801H8.355zm0-6.208c-.503 0-1.006-.3-1.006-.8 0-.601.503-.801 1.006-.801h7.752c.503 0 .805.3.805.8 0 .501-.302.801-.805.801H8.355z" fill="#9FCCFF"/></g><defs><clipPath id="clip0_405_5235"><path fill="#fff" d="M0 0h60v82H0z"/></clipPath></defs></svg>