<svg width="60" height="82" fill="none" xmlns="http://www.w3.org/2000/svg"><g clip-path="url(#clip0_405_5961)"><path d="M39.607 54.235c-5.175 0-10.15-.597-13.833-1.592-4.279-1.194-6.369-2.886-6.369-4.876 0-2.09 2.19-3.682 6.37-4.876 2.089-.597 4.477-.995 7.164-1.294l1.095-.1-.597-.995C26.57 28.86 22.987 20.6 22.987 16.52 23.088 7.364 30.552 0 39.608 0a16.48 16.48 0 0116.52 16.52c0 3.98-3.583 12.34-10.45 23.982l-.597.996 1.095.1c2.687.298 5.075.696 7.165 1.293 4.279 1.194 6.369 2.886 6.369 4.876 0 2.09-2.19 3.682-6.37 4.876-3.582 1.095-8.458 1.592-13.732 1.592z" fill="#BCC9DA" fill-opacity=".08"/><path d="M27.765 82c-7.265 0-14.132-.995-19.306-2.687C1.493 76.825 0 73.94 0 71.95c0-2.587 2.388-4.478 4.478-5.573.1-.1.299-.1.398-.1.299 0 .697.2.796.498.1.2.1.498.1.697-.1.2-.2.398-.398.597-2.289 1.294-3.483 2.687-3.483 3.98 0 1.991 2.687 4.08 7.264 5.573 4.976 1.692 11.644 2.588 18.71 2.588 7.065 0 13.732-.896 18.708-2.588 4.578-1.492 7.264-3.582 7.264-5.572 0-1.294-1.293-2.687-3.483-3.98-.199-.1-.398-.3-.398-.598-.1-.199 0-.498.1-.697.199-.298.497-.497.796-.497.199 0 .299 0 .398.1 2.09 1.094 4.478 2.985 4.478 5.572 0 1.99-1.493 4.976-8.459 7.364C41.896 81.005 35.03 82 27.765 82z" fill="#9FCCFF"/><path d="M27.764 74.934c-4.677 0-9.055-.497-12.34-1.492-3.681-.995-5.572-2.389-5.572-4.08 0-1.692 1.89-3.085 5.573-4.08 1.79-.498 3.98-.896 6.369-1.195l1.492-.199-.796-1.293c-6.17-10.45-9.354-17.813-9.354-21.396 0-8.06 6.568-14.629 14.628-14.629 8.061 0 14.63 6.568 14.63 14.629 0 3.583-3.285 10.947-9.355 21.396l-.796 1.293 1.492.2c2.389.298 4.578.596 6.37 1.194 3.681.995 5.572 2.388 5.572 4.08 0 1.691-1.89 3.085-5.573 4.08-3.284.995-7.662 1.492-12.34 1.492zm-4.18-9.553a45.371 45.371 0 00-7.164 1.095c-2.588.696-4.379 1.492-4.976 2.388l-.398.498.398.497c.597.896 2.388 1.692 4.976 2.389 3.085.796 7.165 1.194 11.344 1.194 4.18 0 8.26-.398 11.345-1.194 2.587-.697 4.379-1.493 4.976-2.389l.398-.497-.398-.498c-.597-.896-2.389-1.692-4.976-2.388-1.99-.498-4.478-.896-7.165-1.095h-.597l-.796 1.294a3.298 3.298 0 01-2.787 1.592c-1.194 0-2.189-.597-2.786-1.592l-.796-1.394-.597.1zm4.18-37.318A13.123 13.123 0 0014.63 41.199c0 3.583 4.279 12.837 11.543 24.68.299.597.896.895 1.592.895.697 0 1.195-.298 1.593-.895C36.62 54.036 40.9 44.78 40.9 41.199a13.123 13.123 0 00-13.136-13.136zm0 17.316c-2.886 0-5.274-2.389-5.274-5.275 0-2.886 2.389-5.274 5.274-5.274 2.886 0 5.275 2.388 5.275 5.274 0 2.986-2.389 5.275-5.275 5.275zm0-9.056c-2.09 0-3.88 1.691-3.88 3.88 0 2.19 1.691 3.882 3.88 3.882 2.19 0 3.881-1.692 3.881-3.881 0-2.19-1.691-3.881-3.88-3.881z" fill="#F3F3F3"/></g><defs><clipPath id="clip0_405_5961"><path fill="#fff" d="M0 0h59.908v82H0z"/></clipPath></defs></svg>