<svg width="179" height="380" fill="none" xmlns="http://www.w3.org/2000/svg"><mask id="path-1-inside-1_405_5205" fill="#fff"><path d="M128.202 28.191c-1.508-.979-3.019-1.84-4.777-2.235-2.347-.41-5.061-.24-7.27-1.47-1.511-.861-4.471-5.174-.712-4.73 2.585.297 7.652.3 9.466-1.659 4.596-4.956 10.311 7.317 15.406 6.143 2.725-.642 3.398-4.16 6.185-2.444 1.741 1.102 3.586 2.796 4.841 4.475 1.828 2.4.502 3.665-2.218 4.07-2.481.295-4.949 0-7.539-.062-2.355-.056-4.716.123-7.077.302-2.361.179-4.331-1.164-6.305-2.39zm27.456-14.895s1.166 5.448 3.033 6.2c1.749.748 2.669 1.713 3.906-.732 1.234-2.326-1.449-3.451-3.406-5.383s-5.026-6.601-3.533-.085zM146.3 44.884c-3.375-1.73-1.673-3.928-2.757-7.842-1.085-3.914-3.651-.088-7.153 3.481-3.503 3.569-6.757-3.225-8.481-5.034-1.724-1.809-.067-2.122-9.114-3.164-8.927-1.156-8.215-1.375-12.329 3.122-4.113 4.496 3.333 3.496 8.501 4.21 5.167.712 5.211 3.777 4.664 6.945-.547 3.168-10.049 1.409-18.973.134-8.924-1.274-8.148.748-12.788 2.64-4.64 1.891-14.17-3.639-18.142-5.03-3.973-1.391-31.332-.397-35.335-.493-4.004-.096-6.315 2.912-9.41 4.252-3.096 1.34-1.933 6.905-2.113 9.493-.18 2.587-6.011.091-9.073.018-3.062-.073-2.28 1.713-2.569 3.944-.289 2.232 1 2.499 4.657 2.35 3.656-.147 5.173.478 5.231 2.954.059 2.475-4.738 1.064-7.682.994-2.944-.07-1.89 5.139-1.406 9.51.484 4.371 3.327 3.732 4.948 4.95 1.62 1.216 3.936 2.921-10.1 8.476-14.037 5.555-.55 3.286 1.827 2.4 2.378-.885 12.817-3.816 15.878-3.743 3.062.073 7.857-3.346 11.822-6.55 3.965-3.205 16.057-1.383 24.768-1.057 8.711.327 15.79 19.584 19.96 22.629 4.168 3.046 4.066 26.962 3.779 34.024-.287 7.063 4.779 12.015 7.08 14.309 2.302 2.293 7.764 15.267 13.917 24.016 6.15 8.866 3.469-2.156 1.703-7.147-1.763-5.108 1.778-.428 1.778-.428s10.994 13.224 13.087 19.283c2.094 6.059 11.629 11.354 18.094 11.98 6.465.626 6.305 2.39 6.305 2.39s-.412 2.464 7.337 3.592c7.631 1.126 6.192 7.1 9.315 9.532 3.123 2.431 8.01 5.022 12.367 5.127 4.357.104 2.837-.404 3.582 2.913.746 3.317-2.423 7.718-4.717 10.02-2.294 2.302-2.659 7.713-2.811 14.071-.153 6.359 2.289 7.714 2.289 7.714s12.9 22.224 16.031 24.302c3.131 2.078 2.559 6.306 2.559 6.306s-.773 32.265-.95 34.735c-.177 2.47-.413 2.465-2.603 5.358-2.19 2.893-1.992 9.378-1.992 9.378s-1.039 28.606-1.089 30.726c-.051 2.119 3.181 4.907 13.759 10.934 10.577 6.026 3.011-2.756 1.882-4.786-1.13-2.03-.182-7.192-.088-11.078.093-3.886 3.438-5.808 4.79-8.132 1.351-2.325.216-4.119.315-8.241.099-4.121 4.742-6.131 4.742-6.131s25.815-25.067 27.873-27.374c2.058-2.307 2.521-6.891 2.348-9.487-.173-2.597 7.779-9.947 12.212-13.022 4.433-3.075 8.063-11.942 8.346-13.939.284-1.996.511-6.586 3.509-8.752 2.997-2.167 2.995-6.998 4.294-12.033 1.299-5.036-8.107-5.85-13.672-9.636-5.565-3.786-14.489-5.06-15.196-5.077-.706-.017-4.721.358-4.415-2.58.306-2.938-2.046-8.061-3.399-10.568-1.354-2.507-3.594-2.442-6.303-2.507-2.708-.065-10.768-7.917-14.244-10.357-3.476-2.439-10.705-.727-15.384-2.135-4.679-1.409-2.324-1.352-6.535-2.631-4.211-1.279-6.354 4.56-8.37 5.101-2.016.541-8.487.15-10.833-.259-2.347-.41-4.015-4.574-4.513-8.356-.499-3.782-1.754-5.462-4.891-7.305-3.138-1.842-3.513-5.857-3.092-8.675.421-2.817-1.575-3.101-3.927-3.275-2.352-.174-2.257.771-2.894 2.758-.637 1.988-2.543 2.885-7.587 1.939-5.041-1.063-7.017-7.119-7.49-11.961-.473-4.843-.29-7.548 3.074-10.295 3.365-2.747 4.271-1.194 8.728-.38 4.458.813 7.579-1.586 10.596-4.577 3.018-2.991 6.426 2.275 6.426 2.275l4.648 7.652c4.647 7.652 4.242-.017 3.239-7.346-1.003-7.329 22.045-29.988 25.539-33.203 3.493-3.215 3.106-1.811 9.005-2.141 5.9-.33 8.281-6.282 11.755-8.673s-4.418-2.462-7.906-4.431c-3.487-1.969 2.412-2.299 4.557-3.308 2.145-1.009 6.633-1.49 12.513-.996 5.879.494-8.226-20.58-10.643-22.995-2.416-2.414-1.625-5.93-2.721-9.373-1.095-3.443-5.234 2.113-8.266 5.693-3.031 3.58-2.826-.068-2.301-2.294.524-2.226-1.774-4.637-2.761-7.724-.986-3.087-8.545-2.326-11.251-2.509-2.705-.182-2.24.065-3.174 4.637-.935 4.573.29 7.548 1.013 11.807.723 4.259-4.126 9.916-6.905 12.795-2.779 2.879-3.401-.671-3.448-3.617-.047-2.947-1.471-2.51-4.757-3.06-3.286-.55-3.519-.673-4.741-3.766-1.222-3.093-5.517-5.788-9.633-6.122-4.115-.334-2.648-7.486-2.454-10.663.197-3.294 6.323-3.265 8.339-3.806 2.016-.54 5.364-2.581 8.571 1.266 3.209 3.73 6.476.155 6.476.155s5.157-3.765 5.213-6.12c.057-2.355-1.02-1.674-4.199-1.75-3.18-.076-3.651-.087-3.586-2.796.065-2.708.071-2.944 5.726-2.926 5.655.018 3.188-5.226 5.956-7.634 2.768-2.408 5.313-.462 4.721 4.59-.593 5.053 5.388 1.308 8.654 2.682 3.267 1.375 1.696 2.986-1.144 3.508-2.84.52-.979 1.508-.228 4.59.751 3.08.418 2.248 9.35 3.169 8.933.92 1.389-3.855.822-4.811-.566-.956-3.218-3.376 4.896-2.71 8.114.665 3.208-6.05 3.208-6.05s-5.418-9.91-11.835-12.538c-6.417-2.628-4.654-2.468-7.967-6.789-3.314-4.32-16.433-2.632-20.313-2.96-3.88-.33-3.707 2.267-5.768 4.692-1.943 2.428 2.708 5.013 2.99 12.914.282 7.901-4.733.83-4.733.83s-2.744-3.483-3.966-6.576c-1.222-3.093-1.654-4.753.284-6.945s2.821-4.645-.946-9.684c-3.768-5.039-6.902-7-8.545-7.274-1.643-.275-1.251 3.033-1.083 5.865.168 2.832 1.828 2.4 3.79 4.097 1.845 1.694.947 4.736.4 7.904-.547 3.168-.612.928-3.44-3.97-2.828-4.9-4.774-2.354-7.444.881-2.669 3.235 4.348 5.406 4.442 11.3.095 5.893-3.087.986-3.087.986s-3.439-3.97-6.815-5.7zM36.42 155.952s2.283 12.897 5.594 12.387c6.623-1.019 1.778-5.377-3.828-12.345-.454-.718-2.402-3.003-1.766-.042zm140.736 32.12c.701.253 1.405.388 1.985.755.928.611 1.609 1.688 2.661 2.067 1.399.622 4.259-.723 5.68-1.043 6.04-1.269-9.851-6.834-12.66-7.608-2.809-.774-3.62-1.383-10.046 1.291-6.427 2.674 5.343 3.192 5.343 3.192 2.465.412 4.814.704 7.037 1.346zm14.164 3.874c-.017.707-.034 1.414.081 1.534.558 1.31 2.218.878 3.396.906 1.059.026 7.662-.17 4.629-1.421-1.867-.751-3.838-2.095-5.941-2.852-3.036-1.133-2.131.42-2.165 1.833zM168.4 22.438c.894 2.025 2.315 1.705 3.479 2.322 1.163.617 1.483 2.039 1.754 5.462.272 3.423 11.136 2.388 18.558 2.448 7.421.06 2.686-3.942-6.74-3.932-4.124.019-4.578-.699-5.702-2.965-1.124-2.265-3.005-2.428-5.688-3.553-2.683-1.124-2.414-2.532-4.94-5.302-3.445-3.735-1.733 3.493-1.733 3.493s.118.003 1.012 2.027zm29.385 2.943c5.299.127 8.788-7.802 9.055-9.091.266-1.29 3.499-3.451 7.739-3.35 4.239.102 6.476.156 8.414-2.037 1.938-2.192-.09-1.18 6.07-2.564 6.16-1.384 6.088-3.271 6.026-5.63-.061-2.357-9.955-2.476-12.667-2.423-2.711.052-2.515 1.707-5.504 3.52-2.989 1.814-20.728-.379-26.377-.632-.589-.014-1.178-.028-1.654.196.681 1.077 3.148 1.372 4.197 1.868 1.516.626 2.312 1.823 3.588 2.678 1.278.738 2.806.892 4.217 1.044 14.8 1.886 3.347 2.908 2.166 2.997-1.18.09-3.047-.662-3.474 2.391-.426 3.054-4.276 1.43-6.28 1.5-2.005.07-1.29-.267-1.2-4.035.091-3.768-8.64-3.27-12.411-3.243-3.771.027-2.317 3.243-2.64 6.888-.323 3.645.622 3.55 4.5 3.996 3.759.444 2.442 1.355 2.859 3.603.417 2.249 6.314 2.037 6.314 2.037s1.763.16 7.062.287zm43.34-18.874s-3.392-1.024-5.218 1.407c-1.825 2.43.053 2.71-4.071 2.73-4.124.019-3.895.26-4.896 2.71s-3.059 4.758-6.003 4.687c-2.944-.07-7.629-1.243-7.212 1.006.415 2.366 4.275 8.468 6.274 8.633 1.999.166 18.883-1.315 20.489 5.44 1.602 6.872-1.495 18.109 1.64 20.07 3.134 1.96 1.667 4.163.593 4.726-1.074.564-2.691-.771-2.773 2.644-.082 3.415 1.015 1.91 2.831 4.78 1.816 2.872 2.784 1.835 2.682 6.074-.101 4.24-.612 5.876 2.556 6.424 3.169.547 5.815 3.202 6.249 4.744.435 1.543 3.648.206 4.517-1.659.87-1.864 10.962-14.936 13.912-15.101 2.949-.165 8.004.31 8.184-2.279.18-2.587-1.378-6.395 2.275-6.425 3.653-.03 10.598.254 13.742-3.088 3.143-3.342 9.589-6.84 3.724-7.923-2.697-.536-5.114-2.95-3.633-5.742.126-.35 4.239.101 4.831-.002 1.419-.202 3.314-.628 4.172-2.021 1.355-2.442 2.709-4.884 4.182-7.323 1.343-1.97 5.687-6.226.41-7.295-1.64-.393-2.419-2.297-.016-4.242 0 0 3.722-7.805 7.254-7.72 1.06.025 11.081-.207 9.707-1.889-.917-1.082-.916-1.082-7.971-1.723-.939-.14-1.508-.978-2.324-1.351-1.169-.382-2.702-.3-3.88-.329-6.367.201-4.251.37-6.905-1.933-2.655-2.302-5.246-2.364-16.671-2.52-11.543-.159-15.872-1.44-18.757.965-2.885 2.405-1.627 3.967-7.632 3.823-6.006-.144-22.262-.298-22.262-.298zm60.103 63.415l-.029 1.178c-.022.942-.064 2.708 1.231 2.74 1.884.044 3.771-.028 5.658-.1.945-.096 1.993.4 2.714-.171 1.677-1.139 2.42-2.653 4.666-2.952.945-.095 3.524.438 3.676-.973.014-.588-.552-6.493-1.477-7.222-2.313-1.823-8.282 1.451-12.286 1.355-1.413-.034-2.815-.539-4.351-.34-1.301.205-.867 1.747-.654 2.694.555 1.428.765 2.493.852 3.791zm29.939 28.995s-4.792 3.302-4.977 6.126c-.183 2.705-1.129 7.749 2.219 5.708 3.466-2.038 6.052-6.688 6.052-6.688s1.05-9.401-3.294-5.146zm7.441-.764c.558 1.31.757 2.846 1.076 4.267.527 2.605-1.057 4.806-2.516 6.656-1.334 1.618-3.152 3.695-.836 5.4 3.129 2.196 7.489-2.766 10.484-4.815 2.395-1.593 1.288-4.565-.08-6.483-1.705-2.633-3.771-4.92-4.76-7.89-.874-2.849-2.828-4.899-4.538-7.296-1.256-1.68-3.039-1.015-3.819 2.03-.654 2.694 1.197 4.152 2.811 5.604.925.73 1.73 1.573 2.178 2.527zm39.933 5.316c-4.377.72-6.754 1.606-10.968.444-2.341-.645-1.126-7.096-3.588-7.626-.818-.256-2.094-1.111-2.703-.3-.364.462-.16 1.763-.174 2.351.09 1.18.726 4.142-1.046 4.335-2.364.297-1.267-1.209-2.799 3.703-1.531 4.912-6.646 6.91-8.317 7.813-1.671.902-4.318 3.196-8.322 3.1-4.001-.214-4.62 1.067-1.495 3.381 2.431 1.825 2.722 4.424 2.89 7.256l-.003.118c.09 1.18.58 5.316-1.195 5.627-2.128.302-9.185-.22-12.129-.291-2.944-.07-1.876 4.55-2.062 7.374-.185 2.823.499 3.782 1.435 4.04.934.376 3.146 1.489 4.261 4.108 1.116 2.619 5.033 1.417 9.031 1.748 3.998.332 3.404-4.395 4.035-6.148.631-1.752-.756-2.846 3.25-2.867 3.889-.025 5.364-2.582 5.906-5.515.544-3.05 3.42-.153 7.365-2.533 3.945-2.38 9.894 5.068 12.554 7.135 1.273.973 4.623 3.763 4.371 4.464-.864 1.629-7.057-.523-5.255 2.937 2.36 4.77 5.001 2.712 8.765-1.911 3.878-4.502-4.74-8.714-6.358-10.049-1.614-1.453-5.556-4.139-2.648-7.486 2.905-3.23 9.308 4.936 9.308 4.936 2.887 2.425 7.095 8.771 8.384 13.986 1.409 5.1 1.987 5.585 6.571 6.048 4.584.464 1.195-5.627.545-7.999-.771-2.257-.757-2.845 2.184-2.657 2.941.188 4.334 5.995 5.932 8.154 1.597 2.159 7.331 3.828 9.708 2.942 2.496-.882 3.225-1.807 5.983 1.086 2.759 2.894-3.884 9.687-5.894 9.992-2.011.305-5.718 2.573-10.369-.013-4.648-2.703-5.483-2.252-10.76-3.321-5.276-1.069-4.517 1.659-5.888 4.808-1.372 3.148-3.906.731-5.05-.711-1.143-1.441-10.804-6.385-14.275-9.06-3.471-2.676-2.82-5.252-4.053-7.874s-5.411-.365-6.137.442c-.727.807-4.144.843-7.324.767-3.179-.076-4.343-.693-6.286 1.735-1.943 2.428-1.792 1.017-5.381 3.288-3.589 2.27-7.102 1.361-12.3 1.944-5.198.582-3.905 10.51-3.947 12.277-.042 1.766-.914 3.748-3.023 3.226-2.108-.521-6.012 9.989-8.539 12.167-2.526 2.178-1.277 9.042-1.216 11.4.062 2.358-1.985 4.194-3.292 4.634-1.306.44.153 8.369-.837 10.348-.99 1.98 5.809 3.439 5.809 3.439.569.838 5.007 2.476 7.846 6.904 3.521 5.504 7.062 5.235 7.062 5.235s24.143.461 29.678.593c2.355.057 4.572.935 6.058 2.856 1.368 1.918 2.708 5.013 1.359 7.219-1.229 2.092-1.908 5.846-.189 7.89.916 1.082 2.43 1.826 3.588 2.678 3.715 2.328 4.776 12.133 4.655 17.196-.079 3.297-.514 6.704-1.536 9.978-.26 1.054-.639 2.106-1.368 3.031-.976 1.39-1.349 2.206-1.271 3.858-.062 2.59-.601 5.405 2.2 6.533 1.75.749 4.263 8.939 4.263 8.939s6.485 19.478 7.326 23.74c.84 4.262 2.848 4.074 4.143 4.105 1.295.031 2.703.3 3.098-1.457.393-1.641 1.915-1.251 1.915-1.251s1.408.27 7.537.181c6.246-.086 10.955-9.753 12.523-11.247 1.567-1.494 1.696-1.962 1.652-5.027-.159-3.185.435-3.406 3.502-3.568 3.185-.159 2.777-2.761 3.041-8.882.264-6.12 3.371-7.931 7.709-11.951 4.338-4.02 1.792-20.694 1.6-27.415-.193-6.72 4.24-9.795 4.24-9.795s14.992-20.849 20.429-26.492c5.438-5.643-3.192-4.436-3.192-4.436s-7.896.046-11.535-.512c-3.642-.441-7.344-8.188-9.063-10.233-1.718-2.044-5.755-5.675-6.363-9.813-.608-4.139-2.048-7.944-2.048-7.944-.334-.833-4.012-4.691-4.375-9.177-.82-10.035 2.762-2.172 2.762-2.172s1.348 2.742 6.324 6.514c4.973 3.889 7.486 17.028 9.838 22.15 2.351 5.123 1.998 5.115 9.767 5.419 7.766.421 18.638-10.747 21.868-12.79 3.23-2.044 2.235-4.778 1.008-7.635-1.228-2.857-3.95-2.333-9.106-3.517-5.159-1.066-6.773-7.467-11.413-10.524-4.639-3.057-.288-2.717 3.001-2.285 3.288.432 3.599 2.207 5.2 4.249 1.598 2.159 4.16 3.398 9.353 3.051 5.19-.229 8.557 1.855 9.697 3.414 1.141 1.559 4.643 2.939 4.643 2.939s8.832.212 9.863 1.415c1.032 1.203.367 4.368 6.123 5.095 5.756.727 8.308 12.217 8.308 12.217s1.299 14.641 5.243 17.21c7.657 5.014 6.041-11.166 6.468-14.22.427-3.053 9.253-7.554 12.349-8.894 1.309-.558 1.932-1.957 2.084-3.367.14-.939-.516-3.076.208-3.765.6-.457 2.952-.283 3.656-.148 1.525.272 4.379-.838 5.007 2.476.627 3.314 4.768 7.537 4.768 7.537 1.264 1.327 2.896 2.073 4.654 2.468 1.525.272 3.426-.389 4.819.469 1.974 1.226.583 5.198.422 6.962-.045 1.884-.561 3.757-.373 5.764.184 2.126 1.437 3.923 1.858 6.054.319 1.421.524 2.722.608 4.138 0 0 4.517 13.069 11.378 11.937 4.612-.714-3.209-8.678-6.539-12.292-3.33-3.615-3.481-7.153-1.863-10.767 1.618-3.614 4.452 1.049 9.439 4.35 4.988 3.301 3.014 2.075 7.26-3.007 4.243-4.965.739-11.176-.526-12.502-1.264-1.326-6.511-8.521-.099-10.606 6.295-2.088 12.429-2.413 15.856-2.802 3.426-.389 3.16-4.048 9.004-11.92 5.844-7.872.67-18.129-1.586-22.307-2.374-4.18-2.795-6.311.837-10.348 3.631-4.037 6.868 3.464 6.868 3.464s3.389 6.09 7.958 12.09c4.57 6.001 5.821-1.981 6.691-3.845.872-1.982-2.131-4.529-3.832-7.279-1.701-2.751.402-6.942.91-8.462.507-1.519 9.202-5.435 11.936-6.43 2.734-.995 5.67-5.52 7.087-15.501 1.418-9.981 3.511 1.027 3.511 1.027s-.186 22.5-.403 26.619c-.216 4.118-.023 5.89-5.163 8.948-5.139 3.058-5.711 2.338-8.434 2.862-2.722.524-3.687 1.443-4.077 7.914-.391 6.471 2.873 3.014 3.263 1.492.39-1.522 1.675-5.969 5.081-5.534 3.407.435 8.917-3.321 12.152-5.6 3.236-2.279 1.975-8.671 1.945-12.325-.03-3.653-.409-2.602 2.776-2.761 3.185-.159 2.013-.423 2.555-3.356.541-2.932-.863-3.319-3.804-3.508-2.941-.188-2.285-3-2.285-3s.936-14.47.311-17.902c-.627-3.314-4.63-8.358-13.241-7.975-8.61.382 4.743-11.08 8.966-15.22 4.106-4.144 8.042-1.222 8.042-1.222s4.771 2.471 11.449 4.045c6.679 1.574 3.626-3.801 4.535-7.314.909-3.513 3.819-2.03 9.263 1.871 5.445 3.9-5.084 10.6-6.431 12.689-1.346 2.088 1.583 7.696 4.849 14.019 3.265 6.323 2.86-1.345 3.39-3.807.413-2.464.231-4.707 2.749-6.532 2.518-1.825 1.184-5.156 1.305-10.22.121-5.063 3.637-4.272 9.172-4.14 5.531.251 6.286-1.734 7.601-2.527 1.315-.793.653-2.694 8.922-3.557 8.265-.744-8.422-22.234-9.798-23.8-1.377-1.564-25.548-.847-31.43-1.223-5.882-.377-5.556-4.14-6.7-5.58-1.144-1.442-14.478-.583-16.949-.76-2.47-.177-4.936-5.42-7.05-5.707-2.114-.286-2.989 1.814-5.154 3.647-2.165 1.833-2.057-2.642-2.248-4.531-.19-1.89-1.471-2.51-3.81-3.273-2.338-.763-2.487 5.478-2.656 7.595-.168 2.117-19.11.956-22.758.75-3.647-.204-4.729-4.236-5.334-8.492-.605-4.257-4.48.128-4.48.128l-8.961.257s-15.062-.833-19.079-.34c-3.9.496.115-4.828 2.294-7.25 2.182-2.54-7.502-6.542-8.654-7.63-1.152-1.088-9.073.018-10.707-.61-1.517-.625-2.632-3.244-3.123-2.431-.491.813-1.139 3.271-2.936 4.524-1.798 1.253-3.435.743-5.799 1.04-2.363.297-.976 1.39-8.972.727-7.999-.545-8.479 4.746-11.022 7.63-2.661 2.882-6.895 2.545-8.9 2.615-2.007.188-1.397 4.208-2.398 6.659-1.001 2.45-4.634-3.293-6.03-4.033-1.393-.858-1.032 3.745-1.032 3.745s-.445 13.657-1.068 15.056c-.623 1.4-4.815-10.484-4.75-13.192.182-2.705-1.914-8.647-2.36-9.718-.33-.95-1.545.552-3.126 2.635-1.582 2.083-.741 6.345-1.165 9.28-.424 2.936-2.036 1.365-6.628 1.255-4.593-.11-5.454 1.401-7.38 3.123-1.927 1.72-8.863 1.083-12.867.987-4.003-.096-6.059 2.094-9.763 4.244-3.704 2.15-2.677-1.36-4.956-4.596-2.394-3.357-3.348 2.04-4.7 4.364-1.352 2.324-8.032-4.08-11.264-6.867-3.232-2.788-5.282-.834-7.049-.876-1.766-.043-3.785.616-5.596-2.49-1.81-3.108-6.764-2.873-12.021-4.766-5.257-1.893-6.999 1.953-12.699 3.82-5.7 1.866-7.192 5.13-7.192 5.13l-.43 3.17c-.429 3.171-4.4 6.61-6.946 9.613-2.546 3.002-7.262 3.125-9.886 4.476-2.625 1.351-1.059 9.754-1.023 13.172.039 3.3 5.512 1.075 9.045 1.16 3.415.081 1.46 2.98.955 4.382-.261 1.054-2.022.776-2.392 1.474-.12.115-.126.35-.017.706.443 1.19 1.716 2.162 2.394 3.357 2.15 3.704 3.895-.26 3.895-.26s3.522-4.393 6.696-9.03c2.807-4.057-2.062-7.355.975-11.17 2.552-3.238 5.684-6.108 8.802-8.39 5.398-3.995 6.163-1.502 7.637.89 1.475 2.392-7.789 5.469-10.524 11.412-2.734 5.944 6.193 2.151 3.596 7.273-5.23 11.775-6.697 13.979-11.43 14.808zm75.888-54.501a41.482 41.482 0 005.215 3.66c.58.367 3.249 2.08 2.587.179-.44-1.307-1.468-2.627-2.267-3.707-1.598-2.159-1.329-3.567-1.261-6.393.068-2.826 5.776-5.045 5.776-5.045 19.662-9.19 1.397-4.209-1.437-3.923-2.714.17-5.431.459-6.856.896-1.424.437-4.694 4.13-6.301 7.272-.493.93-.286 2.114.045 3.065.336.715.793 1.315 1.488 1.803 1.043.732 2.204 1.466 3.011 2.193zm-14.504 231.647c-1.559 1.141-1.294 4.8-1.561 11.038-.042 1.766 1.896 14.302 4.944 10.015.003-.117 4.025-5.676 4.219-8.853.196-3.294 2.984-6.527 4.097-8.739 1.114-2.212.595-5.17-1.526-10.051-2.122-4.882-4.907 3.181-4.907 3.181-.738 1.279-3.707 2.268-5.266 3.409zm120.377-32.817c1.603 1.924 3.204 3.965 4.807 5.889l2.406 2.885c.919.965 2.074 1.935 2.517 3.124.443 1.189.285 2.835 1.205 3.799.804.844 2.1.875 3.162.783 4.596-.008 9.183.338 13.893.451 27.084.648 6.639-1.727 5.467-1.99-1.171-.264-3.659.265-5.856-1.437-2.198-1.702-12.337-1.473-12.337-1.473s-3.535.033-2.993-2.9c.541-2.933-.878-2.731-5.175-10.257s-4.185-2.339-11.078-9.691c-6.894-7.353-2.712.053-1.366 2.913 1.345 2.86 4.437 6.586 4.437 6.586a5.2 5.2 0 00.911 1.318zm38.671 3.872c-.507 1.52-.541 2.933 1.211 3.564 3.274 1.021 2.711-.053 6.059-2.093.597-.34 2.389-1.357 2.291-2.184-.101-.71-1.632-.746-2.212-1.114-.577-.485-1.152-1.088-1.859-1.105a11.375 11.375 0 00-2.826-.067c-1.18.089-1.777.428-2.153 1.362-.247.465-.379 1.051-.511 1.637zm-10.446-1.664c1.06.026 2.237.054 3.308-.392.951-.331 1.559-1.141 2.28-1.713 1.321-1.028 1.584-2.2 1.848-3.372.783-3.163.629-6.583.705-9.763.136-5.652-.714-4.612-1.6-6.99-.44-1.306-4.48.129-6.16 1.385-1.679 1.255-.791 3.515-.948 5.161-.051 2.12-2.179 2.422-3.617 3.448-1.798 1.253-3.48 2.627-5.163 4-2.162 1.716-.205 3.648.692 5.555.224.476.563 1.073 1.026 1.438.807.726 1.864.869 2.804 1.01l.235.005c1.528.155 3.059.192 4.59.228zm19.582-25.57c.782 1.786 1.917 3.581 2.938 5.255.566.956 1.824 2.518 3.025 1.604 1.559-1.141 1.253-3.151 1.29-4.682.085-3.533.562-8.705-.792-11.212-1.471-2.51-4.264-3.99-5.974-6.388-1.37-1.8-2.554-1.593-4.162-8.229-1.726-6.64-1.335 1.617-1.787 5.73-.452 4.113 3.237 7.501 3.237 7.501 2.635 3.126.779 6.852 2.225 10.421zm28.069 33.31c1.41.152 2.694.654 3.608 1.854 1.144 1.441 1.457 3.098 2.363 4.651.563 1.074 1.471 2.51 3.011 2.193 1.424-.437 2.871-1.816 4.012-.257 1.598 2.159 2.444 1.237 2.444 1.237.48-.342 4.184-2.492 5.916-1.037 10.045 8.607 5.838 2.261 3.326-1.098s-8.99-8.345-11.864-11.36c-2.873-3.014-8.941-.568-12.227-1.118-3.286-.55-2.155-3.468-3.874-5.512-1.718-2.044-8.834-.094-10.463-.958-1.629-.864-2.445-1.237-2.391-3.474.008-.353-.628-3.314-1.477-2.274-.365.462-.16 1.763-.174 2.352-.023.942-.046 1.884.05 2.829.299 2.246 2.088 1.346 4.99 3.183 2.904 1.719 3.893 4.689 4.423 7.176.423 2.013 2.899 1.954 4.788 1.764 1.181-.09 2.361-.179 3.539-.151zm13.918 87.876c-.586-.131-1.76-.277-2.013.423-.252.701 1.023 1.557 1.009 2.145-.022.943-.328 3.881 2.492 4.184 2.703.3 3.213-1.337 3.867-4.031.129-.468.14-.939-.084-1.416-.339-.597-1.16-.735-1.749-.749-.586-.132-1.175-.146-1.879-.281-.586-.131-1.057-.143-1.643-.275zm-30.41-68.359c-3.188.277-6.18 2.208-8.925 3.674-1.789.9-3.701 2.033-4.573 4.015-.746 1.631-.696 4.46-.974 6.221-.404 2.111-5.893.094-8.021.397-2.129.302-1.473 2.439-2.196 3.129-.842.686-3.766-.208-6.25.203-2.958.519-1.669 5.734-1.952 7.73-.284 1.996-1.038 3.981-1.557 5.972-1.033 3.745 1.213 3.446 3.075 4.433 1.861.987-.035 6.361.248 9.314.288 2.717 3.759 5.392 5.974 6.387 1.514.744 3.406.436 5.055.475 1.884.045 3.765.208 5.543-.221 1.777-.428 3.106-1.81 4.663-2.833 2.397-1.71 5.008-2.473 7.946-2.167 3.056.309 5.991.733 9.05.924 1.649.04 4.489-.481 4.909 1.65.317 1.539.042 3.182.358 4.721.628 3.314 2.893 2.19 5.602 2.255 2.708.065 2.775 2.187 3.434 4.206 1.095 3.443 3.574 3.267 6.636 3.34 2.119.051 4.239.102 6.361.035 3.659-.266 5.984-3.863 5.984-3.863s5.026-8.127 7.46-11.368c2.434-3.24 3.554-10.636 3.692-16.406.138-5.771-7.675-14.088-7.675-14.088s-10.397-13.563-12.233-15.61c-1.836-2.047-.599-4.491-1.252-6.746-.535-2.251-2.389 1.357-4.405 1.898-2.016.541-1.148 8.573-1.176 9.751-.028 1.178-2.496.883-3.751-.797-1.256-1.679-2.089-1.346-3.948-2.451-1.858-1.105-2.988-3.135-3.147-6.32-.042-3.182-3.365-2.201-7.13-2.409-3.765-.208-2.263 1.006-3.017 2.991-.502 1.284-1.918 1.368-3.099 1.457-.353-.008-.591.104-.709.101zm79.306 78.25l-.121.115c-1.332 1.5-5.342 6.588-2.995 6.997 2.229.407 5.024 1.77 6.474.273 1.455-1.732 1.018-3.157 5.297-4.704 2.139-.773 4.06-7.207 4.06-7.207s-.65-2.372-2.029-3.819c-1.152-1.088-4.074 2.848-5.159 3.882-1.806 1.606-3.957 2.851-5.527 4.463zm19.246-11.557c.884-2.453 2.616-.998 2.659-2.764.042-1.767-5.063-5.07-6.793-6.643-3.462-3.029-.314 3.291-1.178 4.92-1.105 1.859-1.223 1.856-.452 4.113.221.595.742 3.435 1.326 3.684 3.386 1.26 3.552-.739 4.438-3.31z"/></mask><path d="M128.202 28.191c-1.508-.979-3.019-1.84-4.777-2.235-2.347-.41-5.061-.24-7.27-1.47-1.511-.861-4.471-5.174-.712-4.73 2.585.297 7.652.3 9.466-1.659 4.596-4.956 10.311 7.317 15.406 6.143 2.725-.642 3.398-4.16 6.185-2.444 1.741 1.102 3.586 2.796 4.841 4.475 1.828 2.4.502 3.665-2.218 4.07-2.481.295-4.949 0-7.539-.062-2.355-.056-4.716.123-7.077.302-2.361.179-4.331-1.164-6.305-2.39zm27.456-14.895s1.166 5.448 3.033 6.2c1.749.748 2.669 1.713 3.906-.732 1.234-2.326-1.449-3.451-3.406-5.383s-5.026-6.601-3.533-.085zM146.3 44.884c-3.375-1.73-1.673-3.928-2.757-7.842-1.085-3.914-3.651-.088-7.153 3.481-3.503 3.569-6.757-3.225-8.481-5.034-1.724-1.809-.067-2.122-9.114-3.164-8.927-1.156-8.215-1.375-12.329 3.122-4.113 4.496 3.333 3.496 8.501 4.21 5.167.712 5.211 3.777 4.664 6.945-.547 3.168-10.049 1.409-18.973.134-8.924-1.274-8.148.748-12.788 2.64-4.64 1.891-14.17-3.639-18.142-5.03-3.973-1.391-31.332-.397-35.335-.493-4.004-.096-6.315 2.912-9.41 4.252-3.096 1.34-1.933 6.905-2.113 9.493-.18 2.587-6.011.091-9.073.018-3.062-.073-2.28 1.713-2.569 3.944-.289 2.232 1 2.499 4.657 2.35 3.656-.147 5.173.478 5.231 2.954.059 2.475-4.738 1.064-7.682.994-2.944-.07-1.89 5.139-1.406 9.51.484 4.371 3.327 3.732 4.948 4.95 1.62 1.216 3.936 2.921-10.1 8.476-14.037 5.555-.55 3.286 1.827 2.4 2.378-.885 12.817-3.816 15.878-3.743 3.062.073 7.857-3.346 11.822-6.55 3.965-3.205 16.057-1.383 24.768-1.057 8.711.327 15.79 19.584 19.96 22.629 4.168 3.046 4.066 26.962 3.779 34.024-.287 7.063 4.779 12.015 7.08 14.309 2.302 2.293 7.764 15.267 13.917 24.016 6.15 8.866 3.469-2.156 1.703-7.147-1.763-5.108 1.778-.428 1.778-.428s10.994 13.224 13.087 19.283c2.094 6.059 11.629 11.354 18.094 11.98 6.465.626 6.305 2.39 6.305 2.39s-.412 2.464 7.337 3.592c7.631 1.126 6.192 7.1 9.315 9.532 3.123 2.431 8.01 5.022 12.367 5.127 4.357.104 2.837-.404 3.582 2.913.746 3.317-2.423 7.718-4.717 10.02-2.294 2.302-2.659 7.713-2.811 14.071-.153 6.359 2.289 7.714 2.289 7.714s12.9 22.224 16.031 24.302c3.131 2.078 2.559 6.306 2.559 6.306s-.773 32.265-.95 34.735c-.177 2.47-.413 2.465-2.603 5.358-2.19 2.893-1.992 9.378-1.992 9.378s-1.039 28.606-1.089 30.726c-.051 2.119 3.181 4.907 13.759 10.934 10.577 6.026 3.011-2.756 1.882-4.786-1.13-2.03-.182-7.192-.088-11.078.093-3.886 3.438-5.808 4.79-8.132 1.351-2.325.216-4.119.315-8.241.099-4.121 4.742-6.131 4.742-6.131s25.815-25.067 27.873-27.374c2.058-2.307 2.521-6.891 2.348-9.487-.173-2.597 7.779-9.947 12.212-13.022 4.433-3.075 8.063-11.942 8.346-13.939.284-1.996.511-6.586 3.509-8.752 2.997-2.167 2.995-6.998 4.294-12.033 1.299-5.036-8.107-5.85-13.672-9.636-5.565-3.786-14.489-5.06-15.196-5.077-.706-.017-4.721.358-4.415-2.58.306-2.938-2.046-8.061-3.399-10.568-1.354-2.507-3.594-2.442-6.303-2.507-2.708-.065-10.768-7.917-14.244-10.357-3.476-2.439-10.705-.727-15.384-2.135-4.679-1.409-2.324-1.352-6.535-2.631-4.211-1.279-6.354 4.56-8.37 5.101-2.016.541-8.487.15-10.833-.259-2.347-.41-4.015-4.574-4.513-8.356-.499-3.782-1.754-5.462-4.891-7.305-3.138-1.842-3.513-5.857-3.092-8.675.421-2.817-1.575-3.101-3.927-3.275-2.352-.174-2.257.771-2.894 2.758-.637 1.988-2.543 2.885-7.587 1.939-5.041-1.063-7.017-7.119-7.49-11.961-.473-4.843-.29-7.548 3.074-10.295 3.365-2.747 4.271-1.194 8.728-.38 4.458.813 7.579-1.586 10.596-4.577 3.018-2.991 6.426 2.275 6.426 2.275l4.648 7.652c4.647 7.652 4.242-.017 3.239-7.346-1.003-7.329 22.045-29.988 25.539-33.203 3.493-3.215 3.106-1.811 9.005-2.141 5.9-.33 8.281-6.282 11.755-8.673s-4.418-2.462-7.906-4.431c-3.487-1.969 2.412-2.299 4.557-3.308 2.145-1.009 6.633-1.49 12.513-.996 5.879.494-8.226-20.58-10.643-22.995-2.416-2.414-1.625-5.93-2.721-9.373-1.095-3.443-5.234 2.113-8.266 5.693-3.031 3.58-2.826-.068-2.301-2.294.524-2.226-1.774-4.637-2.761-7.724-.986-3.087-8.545-2.326-11.251-2.509-2.705-.182-2.24.065-3.174 4.637-.935 4.573.29 7.548 1.013 11.807.723 4.259-4.126 9.916-6.905 12.795-2.779 2.879-3.401-.671-3.448-3.617-.047-2.947-1.471-2.51-4.757-3.06-3.286-.55-3.519-.673-4.741-3.766-1.222-3.093-5.517-5.788-9.633-6.122-4.115-.334-2.648-7.486-2.454-10.663.197-3.294 6.323-3.265 8.339-3.806 2.016-.54 5.364-2.581 8.571 1.266 3.209 3.73 6.476.155 6.476.155s5.157-3.765 5.213-6.12c.057-2.355-1.02-1.674-4.199-1.75-3.18-.076-3.651-.087-3.586-2.796.065-2.708.071-2.944 5.726-2.926 5.655.018 3.188-5.226 5.956-7.634 2.768-2.408 5.313-.462 4.721 4.59-.593 5.053 5.388 1.308 8.654 2.682 3.267 1.375 1.696 2.986-1.144 3.508-2.84.52-.979 1.508-.228 4.59.751 3.08.418 2.248 9.35 3.169 8.933.92 1.389-3.855.822-4.811-.566-.956-3.218-3.376 4.896-2.71 8.114.665 3.208-6.05 3.208-6.05s-5.418-9.91-11.835-12.538c-6.417-2.628-4.654-2.468-7.967-6.789-3.314-4.32-16.433-2.632-20.313-2.96-3.88-.33-3.707 2.267-5.768 4.692-1.943 2.428 2.708 5.013 2.99 12.914.282 7.901-4.733.83-4.733.83s-2.744-3.483-3.966-6.576c-1.222-3.093-1.654-4.753.284-6.945s2.821-4.645-.946-9.684c-3.768-5.039-6.902-7-8.545-7.274-1.643-.275-1.251 3.033-1.083 5.865.168 2.832 1.828 2.4 3.79 4.097 1.845 1.694.947 4.736.4 7.904-.547 3.168-.612.928-3.44-3.97-2.828-4.9-4.774-2.354-7.444.881-2.669 3.235 4.348 5.406 4.442 11.3.095 5.893-3.087.986-3.087.986s-3.439-3.97-6.815-5.7zM36.42 155.952s2.283 12.897 5.594 12.387c6.623-1.019 1.778-5.377-3.828-12.345-.454-.718-2.402-3.003-1.766-.042zm140.736 32.12c.701.253 1.405.388 1.985.755.928.611 1.609 1.688 2.661 2.067 1.399.622 4.259-.723 5.68-1.043 6.04-1.269-9.851-6.834-12.66-7.608-2.809-.774-3.62-1.383-10.046 1.291-6.427 2.674 5.343 3.192 5.343 3.192 2.465.412 4.814.704 7.037 1.346zm14.164 3.874c-.017.707-.034 1.414.081 1.534.558 1.31 2.218.878 3.396.906 1.059.026 7.662-.17 4.629-1.421-1.867-.751-3.838-2.095-5.941-2.852-3.036-1.133-2.131.42-2.165 1.833zM168.4 22.438c.894 2.025 2.315 1.705 3.479 2.322 1.163.617 1.483 2.039 1.754 5.462.272 3.423 11.136 2.388 18.558 2.448 7.421.06 2.686-3.942-6.74-3.932-4.124.019-4.578-.699-5.702-2.965-1.124-2.265-3.005-2.428-5.688-3.553-2.683-1.124-2.414-2.532-4.94-5.302-3.445-3.735-1.733 3.493-1.733 3.493s.118.003 1.012 2.027zm29.385 2.943c5.299.127 8.788-7.802 9.055-9.091.266-1.29 3.499-3.451 7.739-3.35 4.239.102 6.476.156 8.414-2.037 1.938-2.192-.09-1.18 6.07-2.564 6.16-1.384 6.088-3.271 6.026-5.63-.061-2.357-9.955-2.476-12.667-2.423-2.711.052-2.515 1.707-5.504 3.52-2.989 1.814-20.728-.379-26.377-.632-.589-.014-1.178-.028-1.654.196.681 1.077 3.148 1.372 4.197 1.868 1.516.626 2.312 1.823 3.588 2.678 1.278.738 2.806.892 4.217 1.044 14.8 1.886 3.347 2.908 2.166 2.997-1.18.09-3.047-.662-3.474 2.391-.426 3.054-4.276 1.43-6.28 1.5-2.005.07-1.29-.267-1.2-4.035.091-3.768-8.64-3.27-12.411-3.243-3.771.027-2.317 3.243-2.64 6.888-.323 3.645.622 3.55 4.5 3.996 3.759.444 2.442 1.355 2.859 3.603.417 2.249 6.314 2.037 6.314 2.037s1.763.16 7.062.287zm43.34-18.874s-3.392-1.024-5.218 1.407c-1.825 2.43.053 2.71-4.071 2.73-4.124.019-3.895.26-4.896 2.71s-3.059 4.758-6.003 4.687c-2.944-.07-7.629-1.243-7.212 1.006.415 2.366 4.275 8.468 6.274 8.633 1.999.166 18.883-1.315 20.489 5.44 1.602 6.872-1.495 18.109 1.64 20.07 3.134 1.96 1.667 4.163.593 4.726-1.074.564-2.691-.771-2.773 2.644-.082 3.415 1.015 1.91 2.831 4.78 1.816 2.872 2.784 1.835 2.682 6.074-.101 4.24-.612 5.876 2.556 6.424 3.169.547 5.815 3.202 6.249 4.744.435 1.543 3.648.206 4.517-1.659.87-1.864 10.962-14.936 13.912-15.101 2.949-.165 8.004.31 8.184-2.279.18-2.587-1.378-6.395 2.275-6.425 3.653-.03 10.598.254 13.742-3.088 3.143-3.342 9.589-6.84 3.724-7.923-2.697-.536-5.114-2.95-3.633-5.742.126-.35 4.239.101 4.831-.002 1.419-.202 3.314-.628 4.172-2.021 1.355-2.442 2.709-4.884 4.182-7.323 1.343-1.97 5.687-6.226.41-7.295-1.64-.393-2.419-2.297-.016-4.242 0 0 3.722-7.805 7.254-7.72 1.06.025 11.081-.207 9.707-1.889-.917-1.082-.916-1.082-7.971-1.723-.939-.14-1.508-.978-2.324-1.351-1.169-.382-2.702-.3-3.88-.329-6.367.201-4.251.37-6.905-1.933-2.655-2.302-5.246-2.364-16.671-2.52-11.543-.159-15.872-1.44-18.757.965-2.885 2.405-1.627 3.967-7.632 3.823-6.006-.144-22.262-.298-22.262-.298zm60.103 63.415l-.029 1.178c-.022.942-.064 2.708 1.231 2.74 1.884.044 3.771-.028 5.658-.1.945-.096 1.993.4 2.714-.171 1.677-1.139 2.42-2.653 4.666-2.952.945-.095 3.524.438 3.676-.973.014-.588-.552-6.493-1.477-7.222-2.313-1.823-8.282 1.451-12.286 1.355-1.413-.034-2.815-.539-4.351-.34-1.301.205-.867 1.747-.654 2.694.555 1.428.765 2.493.852 3.791zm29.939 28.995s-4.792 3.302-4.977 6.126c-.183 2.705-1.129 7.749 2.219 5.708 3.466-2.038 6.052-6.688 6.052-6.688s1.05-9.401-3.294-5.146zm7.441-.764c.558 1.31.757 2.846 1.076 4.267.527 2.605-1.057 4.806-2.516 6.656-1.334 1.618-3.152 3.695-.836 5.4 3.129 2.196 7.489-2.766 10.484-4.815 2.395-1.593 1.288-4.565-.08-6.483-1.705-2.633-3.771-4.92-4.76-7.89-.874-2.849-2.828-4.899-4.538-7.296-1.256-1.68-3.039-1.015-3.819 2.03-.654 2.694 1.197 4.152 2.811 5.604.925.73 1.73 1.573 2.178 2.527zm39.933 5.316c-4.377.72-6.754 1.606-10.968.444-2.341-.645-1.126-7.096-3.588-7.626-.818-.256-2.094-1.111-2.703-.3-.364.462-.16 1.763-.174 2.351.09 1.18.726 4.142-1.046 4.335-2.364.297-1.267-1.209-2.799 3.703-1.531 4.912-6.646 6.91-8.317 7.813-1.671.902-4.318 3.196-8.322 3.1-4.001-.214-4.62 1.067-1.495 3.381 2.431 1.825 2.722 4.424 2.89 7.256l-.003.118c.09 1.18.58 5.316-1.195 5.627-2.128.302-9.185-.22-12.129-.291-2.944-.07-1.876 4.55-2.062 7.374-.185 2.823.499 3.782 1.435 4.04.934.376 3.146 1.489 4.261 4.108 1.116 2.619 5.033 1.417 9.031 1.748 3.998.332 3.404-4.395 4.035-6.148.631-1.752-.756-2.846 3.25-2.867 3.889-.025 5.364-2.582 5.906-5.515.544-3.05 3.42-.153 7.365-2.533 3.945-2.38 9.894 5.068 12.554 7.135 1.273.973 4.623 3.763 4.371 4.464-.864 1.629-7.057-.523-5.255 2.937 2.36 4.77 5.001 2.712 8.765-1.911 3.878-4.502-4.74-8.714-6.358-10.049-1.614-1.453-5.556-4.139-2.648-7.486 2.905-3.23 9.308 4.936 9.308 4.936 2.887 2.425 7.095 8.771 8.384 13.986 1.409 5.1 1.987 5.585 6.571 6.048 4.584.464 1.195-5.627.545-7.999-.771-2.257-.757-2.845 2.184-2.657 2.941.188 4.334 5.995 5.932 8.154 1.597 2.159 7.331 3.828 9.708 2.942 2.496-.882 3.225-1.807 5.983 1.086 2.759 2.894-3.884 9.687-5.894 9.992-2.011.305-5.718 2.573-10.369-.013-4.648-2.703-5.483-2.252-10.76-3.321-5.276-1.069-4.517 1.659-5.888 4.808-1.372 3.148-3.906.731-5.05-.711-1.143-1.441-10.804-6.385-14.275-9.06-3.471-2.676-2.82-5.252-4.053-7.874s-5.411-.365-6.137.442c-.727.807-4.144.843-7.324.767-3.179-.076-4.343-.693-6.286 1.735-1.943 2.428-1.792 1.017-5.381 3.288-3.589 2.27-7.102 1.361-12.3 1.944-5.198.582-3.905 10.51-3.947 12.277-.042 1.766-.914 3.748-3.023 3.226-2.108-.521-6.012 9.989-8.539 12.167-2.526 2.178-1.277 9.042-1.216 11.4.062 2.358-1.985 4.194-3.292 4.634-1.306.44.153 8.369-.837 10.348-.99 1.98 5.809 3.439 5.809 3.439.569.838 5.007 2.476 7.846 6.904 3.521 5.504 7.062 5.235 7.062 5.235s24.143.461 29.678.593c2.355.057 4.572.935 6.058 2.856 1.368 1.918 2.708 5.013 1.359 7.219-1.229 2.092-1.908 5.846-.189 7.89.916 1.082 2.43 1.826 3.588 2.678 3.715 2.328 4.776 12.133 4.655 17.196-.079 3.297-.514 6.704-1.536 9.978-.26 1.054-.639 2.106-1.368 3.031-.976 1.39-1.349 2.206-1.271 3.858-.062 2.59-.601 5.405 2.2 6.533 1.75.749 4.263 8.939 4.263 8.939s6.485 19.478 7.326 23.74c.84 4.262 2.848 4.074 4.143 4.105 1.295.031 2.703.3 3.098-1.457.393-1.641 1.915-1.251 1.915-1.251s1.408.27 7.537.181c6.246-.086 10.955-9.753 12.523-11.247 1.567-1.494 1.696-1.962 1.652-5.027-.159-3.185.435-3.406 3.502-3.568 3.185-.159 2.777-2.761 3.041-8.882.264-6.12 3.371-7.931 7.709-11.951 4.338-4.02 1.792-20.694 1.6-27.415-.193-6.72 4.24-9.795 4.24-9.795s14.992-20.849 20.429-26.492c5.438-5.643-3.192-4.436-3.192-4.436s-7.896.046-11.535-.512c-3.642-.441-7.344-8.188-9.063-10.233-1.718-2.044-5.755-5.675-6.363-9.813-.608-4.139-2.048-7.944-2.048-7.944-.334-.833-4.012-4.691-4.375-9.177-.82-10.035 2.762-2.172 2.762-2.172s1.348 2.742 6.324 6.514c4.973 3.889 7.486 17.028 9.838 22.15 2.351 5.123 1.998 5.115 9.767 5.419 7.766.421 18.638-10.747 21.868-12.79 3.23-2.044 2.235-4.778 1.008-7.635-1.228-2.857-3.95-2.333-9.106-3.517-5.159-1.066-6.773-7.467-11.413-10.524-4.639-3.057-.288-2.717 3.001-2.285 3.288.432 3.599 2.207 5.2 4.249 1.598 2.159 4.16 3.398 9.353 3.051 5.19-.229 8.557 1.855 9.697 3.414 1.141 1.559 4.643 2.939 4.643 2.939s8.832.212 9.863 1.415c1.032 1.203.367 4.368 6.123 5.095 5.756.727 8.308 12.217 8.308 12.217s1.299 14.641 5.243 17.21c7.657 5.014 6.041-11.166 6.468-14.22.427-3.053 9.253-7.554 12.349-8.894 1.309-.558 1.932-1.957 2.084-3.367.14-.939-.516-3.076.208-3.765.6-.457 2.952-.283 3.656-.148 1.525.272 4.379-.838 5.007 2.476.627 3.314 4.768 7.537 4.768 7.537 1.264 1.327 2.896 2.073 4.654 2.468 1.525.272 3.426-.389 4.819.469 1.974 1.226.583 5.198.422 6.962-.045 1.884-.561 3.757-.373 5.764.184 2.126 1.437 3.923 1.858 6.054.319 1.421.524 2.722.608 4.138 0 0 4.517 13.069 11.378 11.937 4.612-.714-3.209-8.678-6.539-12.292-3.33-3.615-3.481-7.153-1.863-10.767 1.618-3.614 4.452 1.049 9.439 4.35 4.988 3.301 3.014 2.075 7.26-3.007 4.243-4.965.739-11.176-.526-12.502-1.264-1.326-6.511-8.521-.099-10.606 6.295-2.088 12.429-2.413 15.856-2.802 3.426-.389 3.16-4.048 9.004-11.92 5.844-7.872.67-18.129-1.586-22.307-2.374-4.18-2.795-6.311.837-10.348 3.631-4.037 6.868 3.464 6.868 3.464s3.389 6.09 7.958 12.09c4.57 6.001 5.821-1.981 6.691-3.845.872-1.982-2.131-4.529-3.832-7.279-1.701-2.751.402-6.942.91-8.462.507-1.519 9.202-5.435 11.936-6.43 2.734-.995 5.67-5.52 7.087-15.501 1.418-9.981 3.511 1.027 3.511 1.027s-.186 22.5-.403 26.619c-.216 4.118-.023 5.89-5.163 8.948-5.139 3.058-5.711 2.338-8.434 2.862-2.722.524-3.687 1.443-4.077 7.914-.391 6.471 2.873 3.014 3.263 1.492.39-1.522 1.675-5.969 5.081-5.534 3.407.435 8.917-3.321 12.152-5.6 3.236-2.279 1.975-8.671 1.945-12.325-.03-3.653-.409-2.602 2.776-2.761 3.185-.159 2.013-.423 2.555-3.356.541-2.932-.863-3.319-3.804-3.508-2.941-.188-2.285-3-2.285-3s.936-14.47.311-17.902c-.627-3.314-4.63-8.358-13.241-7.975-8.61.382 4.743-11.08 8.966-15.22 4.106-4.144 8.042-1.222 8.042-1.222s4.771 2.471 11.449 4.045c6.679 1.574 3.626-3.801 4.535-7.314.909-3.513 3.819-2.03 9.263 1.871 5.445 3.9-5.084 10.6-6.431 12.689-1.346 2.088 1.583 7.696 4.849 14.019 3.265 6.323 2.86-1.345 3.39-3.807.413-2.464.231-4.707 2.749-6.532 2.518-1.825 1.184-5.156 1.305-10.22.121-5.063 3.637-4.272 9.172-4.14 5.531.251 6.286-1.734 7.601-2.527 1.315-.793.653-2.694 8.922-3.557 8.265-.744-8.422-22.234-9.798-23.8-1.377-1.564-25.548-.847-31.43-1.223-5.882-.377-5.556-4.14-6.7-5.58-1.144-1.442-14.478-.583-16.949-.76-2.47-.177-4.936-5.42-7.05-5.707-2.114-.286-2.989 1.814-5.154 3.647-2.165 1.833-2.057-2.642-2.248-4.531-.19-1.89-1.471-2.51-3.81-3.273-2.338-.763-2.487 5.478-2.656 7.595-.168 2.117-19.11.956-22.758.75-3.647-.204-4.729-4.236-5.334-8.492-.605-4.257-4.48.128-4.48.128l-8.961.257s-15.062-.833-19.079-.34c-3.9.496.115-4.828 2.294-7.25 2.182-2.54-7.502-6.542-8.654-7.63-1.152-1.088-9.073.018-10.707-.61-1.517-.625-2.632-3.244-3.123-2.431-.491.813-1.139 3.271-2.936 4.524-1.798 1.253-3.435.743-5.799 1.04-2.363.297-.976 1.39-8.972.727-7.999-.545-8.479 4.746-11.022 7.63-2.661 2.882-6.895 2.545-8.9 2.615-2.007.188-1.397 4.208-2.398 6.659-1.001 2.45-4.634-3.293-6.03-4.033-1.393-.858-1.032 3.745-1.032 3.745s-.445 13.657-1.068 15.056c-.623 1.4-4.815-10.484-4.75-13.192.182-2.705-1.914-8.647-2.36-9.718-.33-.95-1.545.552-3.126 2.635-1.582 2.083-.741 6.345-1.165 9.28-.424 2.936-2.036 1.365-6.628 1.255-4.593-.11-5.454 1.401-7.38 3.123-1.927 1.72-8.863 1.083-12.867.987-4.003-.096-6.059 2.094-9.763 4.244-3.704 2.15-2.677-1.36-4.956-4.596-2.394-3.357-3.348 2.04-4.7 4.364-1.352 2.324-8.032-4.08-11.264-6.867-3.232-2.788-5.282-.834-7.049-.876-1.766-.043-3.785.616-5.596-2.49-1.81-3.108-6.764-2.873-12.021-4.766-5.257-1.893-6.999 1.953-12.699 3.82-5.7 1.866-7.192 5.13-7.192 5.13l-.43 3.17c-.429 3.171-4.4 6.61-6.946 9.613-2.546 3.002-7.262 3.125-9.886 4.476-2.625 1.351-1.059 9.754-1.023 13.172.039 3.3 5.512 1.075 9.045 1.16 3.415.081 1.46 2.98.955 4.382-.261 1.054-2.022.776-2.392 1.474-.12.115-.126.35-.017.706.443 1.19 1.716 2.162 2.394 3.357 2.15 3.704 3.895-.26 3.895-.26s3.522-4.393 6.696-9.03c2.807-4.057-2.062-7.355.975-11.17 2.552-3.238 5.684-6.108 8.802-8.39 5.398-3.995 6.163-1.502 7.637.89 1.475 2.392-7.789 5.469-10.524 11.412-2.734 5.944 6.193 2.151 3.596 7.273-5.23 11.775-6.697 13.979-11.43 14.808zm75.888-54.501a41.482 41.482 0 005.215 3.66c.58.367 3.249 2.08 2.587.179-.44-1.307-1.468-2.627-2.267-3.707-1.598-2.159-1.329-3.567-1.261-6.393.068-2.826 5.776-5.045 5.776-5.045 19.662-9.19 1.397-4.209-1.437-3.923-2.714.17-5.431.459-6.856.896-1.424.437-4.694 4.13-6.301 7.272-.493.93-.286 2.114.045 3.065.336.715.793 1.315 1.488 1.803 1.043.732 2.204 1.466 3.011 2.193zm-14.504 231.647c-1.559 1.141-1.294 4.8-1.561 11.038-.042 1.766 1.896 14.302 4.944 10.015.003-.117 4.025-5.676 4.219-8.853.196-3.294 2.984-6.527 4.097-8.739 1.114-2.212.595-5.17-1.526-10.051-2.122-4.882-4.907 3.181-4.907 3.181-.738 1.279-3.707 2.268-5.266 3.409zm120.377-32.817c1.603 1.924 3.204 3.965 4.807 5.889l2.406 2.885c.919.965 2.074 1.935 2.517 3.124.443 1.189.285 2.835 1.205 3.799.804.844 2.1.875 3.162.783 4.596-.008 9.183.338 13.893.451 27.084.648 6.639-1.727 5.467-1.99-1.171-.264-3.659.265-5.856-1.437-2.198-1.702-12.337-1.473-12.337-1.473s-3.535.033-2.993-2.9c.541-2.933-.878-2.731-5.175-10.257s-4.185-2.339-11.078-9.691c-6.894-7.353-2.712.053-1.366 2.913 1.345 2.86 4.437 6.586 4.437 6.586a5.2 5.2 0 00.911 1.318zm38.671 3.872c-.507 1.52-.541 2.933 1.211 3.564 3.274 1.021 2.711-.053 6.059-2.093.597-.34 2.389-1.357 2.291-2.184-.101-.71-1.632-.746-2.212-1.114-.577-.485-1.152-1.088-1.859-1.105a11.375 11.375 0 00-2.826-.067c-1.18.089-1.777.428-2.153 1.362-.247.465-.379 1.051-.511 1.637zm-10.446-1.664c1.06.026 2.237.054 3.308-.392.951-.331 1.559-1.141 2.28-1.713 1.321-1.028 1.584-2.2 1.848-3.372.783-3.163.629-6.583.705-9.763.136-5.652-.714-4.612-1.6-6.99-.44-1.306-4.48.129-6.16 1.385-1.679 1.255-.791 3.515-.948 5.161-.051 2.12-2.179 2.422-3.617 3.448-1.798 1.253-3.48 2.627-5.163 4-2.162 1.716-.205 3.648.692 5.555.224.476.563 1.073 1.026 1.438.807.726 1.864.869 2.804 1.01l.235.005c1.528.155 3.059.192 4.59.228zm19.582-25.57c.782 1.786 1.917 3.581 2.938 5.255.566.956 1.824 2.518 3.025 1.604 1.559-1.141 1.253-3.151 1.29-4.682.085-3.533.562-8.705-.792-11.212-1.471-2.51-4.264-3.99-5.974-6.388-1.37-1.8-2.554-1.593-4.162-8.229-1.726-6.64-1.335 1.617-1.787 5.73-.452 4.113 3.237 7.501 3.237 7.501 2.635 3.126.779 6.852 2.225 10.421zm28.069 33.31c1.41.152 2.694.654 3.608 1.854 1.144 1.441 1.457 3.098 2.363 4.651.563 1.074 1.471 2.51 3.011 2.193 1.424-.437 2.871-1.816 4.012-.257 1.598 2.159 2.444 1.237 2.444 1.237.48-.342 4.184-2.492 5.916-1.037 10.045 8.607 5.838 2.261 3.326-1.098s-8.99-8.345-11.864-11.36c-2.873-3.014-8.941-.568-12.227-1.118-3.286-.55-2.155-3.468-3.874-5.512-1.718-2.044-8.834-.094-10.463-.958-1.629-.864-2.445-1.237-2.391-3.474.008-.353-.628-3.314-1.477-2.274-.365.462-.16 1.763-.174 2.352-.023.942-.046 1.884.05 2.829.299 2.246 2.088 1.346 4.99 3.183 2.904 1.719 3.893 4.689 4.423 7.176.423 2.013 2.899 1.954 4.788 1.764 1.181-.09 2.361-.179 3.539-.151zm13.918 87.876c-.586-.131-1.76-.277-2.013.423-.252.701 1.023 1.557 1.009 2.145-.022.943-.328 3.881 2.492 4.184 2.703.3 3.213-1.337 3.867-4.031.129-.468.14-.939-.084-1.416-.339-.597-1.16-.735-1.749-.749-.586-.132-1.175-.146-1.879-.281-.586-.131-1.057-.143-1.643-.275zm-30.41-68.359c-3.188.277-6.18 2.208-8.925 3.674-1.789.9-3.701 2.033-4.573 4.015-.746 1.631-.696 4.46-.974 6.221-.404 2.111-5.893.094-8.021.397-2.129.302-1.473 2.439-2.196 3.129-.842.686-3.766-.208-6.25.203-2.958.519-1.669 5.734-1.952 7.73-.284 1.996-1.038 3.981-1.557 5.972-1.033 3.745 1.213 3.446 3.075 4.433 1.861.987-.035 6.361.248 9.314.288 2.717 3.759 5.392 5.974 6.387 1.514.744 3.406.436 5.055.475 1.884.045 3.765.208 5.543-.221 1.777-.428 3.106-1.81 4.663-2.833 2.397-1.71 5.008-2.473 7.946-2.167 3.056.309 5.991.733 9.05.924 1.649.04 4.489-.481 4.909 1.65.317 1.539.042 3.182.358 4.721.628 3.314 2.893 2.19 5.602 2.255 2.708.065 2.775 2.187 3.434 4.206 1.095 3.443 3.574 3.267 6.636 3.34 2.119.051 4.239.102 6.361.035 3.659-.266 5.984-3.863 5.984-3.863s5.026-8.127 7.46-11.368c2.434-3.24 3.554-10.636 3.692-16.406.138-5.771-7.675-14.088-7.675-14.088s-10.397-13.563-12.233-15.61c-1.836-2.047-.599-4.491-1.252-6.746-.535-2.251-2.389 1.357-4.405 1.898-2.016.541-1.148 8.573-1.176 9.751-.028 1.178-2.496.883-3.751-.797-1.256-1.679-2.089-1.346-3.948-2.451-1.858-1.105-2.988-3.135-3.147-6.32-.042-3.182-3.365-2.201-7.13-2.409-3.765-.208-2.263 1.006-3.017 2.991-.502 1.284-1.918 1.368-3.099 1.457-.353-.008-.591.104-.709.101zm79.306 78.25l-.121.115c-1.332 1.5-5.342 6.588-2.995 6.997 2.229.407 5.024 1.77 6.474.273 1.455-1.732 1.018-3.157 5.297-4.704 2.139-.773 4.06-7.207 4.06-7.207s-.65-2.372-2.029-3.819c-1.152-1.088-4.074 2.848-5.159 3.882-1.806 1.606-3.957 2.851-5.527 4.463zm19.246-11.557c.884-2.453 2.616-.998 2.659-2.764.042-1.767-5.063-5.07-6.793-6.643-3.462-3.029-.314 3.291-1.178 4.92-1.105 1.859-1.223 1.856-.452 4.113.221.595.742 3.435 1.326 3.684 3.386 1.26 3.552-.739 4.438-3.31z" stroke="#475566" stroke-opacity=".3" stroke-width="2" mask="url(#path-1-inside-1_405_5205)"/></svg>