<svg width="25" height="18" fill="none" xmlns="http://www.w3.org/2000/svg"><path d="M1.21 10.125l3.354 1.271-.686.344c-.186.134-.242.327-.171.515l1.029 1.995c.068.124.134.186.261.18.13.06.193.057.317-.011l7.108-3.64.027-.954.08-1.274c-.008-.19.178-.325.307-.266.127-.005.193.056.261.18.002.064.068.125.07.188l-.486 8.918c.195.12.451.173.64.103.314-.076.617-.469.783-1.11l2.983-10.157.117-.259c.056-.193.244-.264.374-.205.192.056.263.244.205.374l-.282.964-.34 1.093 5.548-2.88c1.622-.825 2.386-2.443 1.77-3.627a2.086 2.086 0 00-1.694-1.08 3.597 3.597 0 00-2.271.468L14.28 4.479 7.258 2.013c-.9-.283-1.599-.257-2.029.141a1.79 1.79 0 00-.584 1.357.35.35 0 00.203.31L9.602 6.82 6.984 8.19l-4.486-.973A.578.578 0 002 7.489L.996 9.498c-.12.195-.047.447.214.627-.002-.063-.002-.063 0 0z" fill="#fff"/></svg>