<svg width="202" height="499" fill="none" xmlns="http://www.w3.org/2000/svg"><mask id="path-1-inside-1_2135_278" fill="#fff"><path d="M-449.486 124.994c-1.588-.843-3.169-1.568-4.955-1.808-2.373-.203-5.062.205-7.371-.828-1.58-.725-4.907-4.761-1.123-4.649 2.601.07 7.648-.371 9.284-2.482 4.144-5.34 10.913 6.385 15.885 4.769 2.658-.878 3.021-4.442 5.947-2.977 1.831.945 3.817 2.471 5.215 4.034 2.031 2.231.821 3.606-1.853 4.249-2.446.511-4.93.433-7.516.599-2.351.15-4.687.535-7.023.92-2.336.386-4.417-.78-6.49-1.827zm26.045-17.245s1.639 5.325 3.564 5.91c1.809.593 2.809 1.473 3.827-1.071 1.025-2.426-1.746-3.311-3.864-5.064-2.119-1.753-5.586-6.135-3.527.225zm-6.553 32.287c-3.514-1.428-2.011-3.766-3.435-7.57-1.423-3.804-3.644.233-6.82 4.094-3.176 3.862-7.013-2.62-8.889-4.271-1.876-1.65-.253-2.108-9.357-2.353-8.994-.369-8.303-.649-12.007 4.19-3.704 4.84 3.627 3.192 8.837 3.449 5.209.257 5.522 3.306 5.255 6.51-.268 3.204-9.887 2.284-18.888 1.797-9.002-.487-8.051 1.458-12.508 3.75-4.457 2.291-14.434-2.383-18.513-3.421-4.079-1.037-31.246 2.351-35.243 2.606-3.996.256-6.035 3.455-9.001 5.061-2.966 1.606-1.32 7.048-1.272 9.641.048 2.594-5.98.619-9.036.814-3.057.195-2.121 1.906-2.214 4.154-.092 2.249 1.216 2.401 4.845 1.933 3.629-.468 5.195.023 5.47 2.484.275 2.461-4.627 1.475-7.566 1.663-2.938.188-1.432 5.285-.567 9.597.866 4.312 3.642 3.426 5.363 4.497 1.721 1.07 4.177 2.565-9.318 9.329-13.496 6.764-.26 3.322 2.031 2.231 2.29-1.091 12.432-4.925 15.488-5.121 3.057-.195 7.533-4.022 11.202-7.561 3.669-3.54 15.874-2.785 24.581-3.223 8.706-.439 17.446 18.124 21.865 20.792 4.42 2.669 6.415 26.501 6.748 33.562.333 7.06 5.813 11.549 8.307 13.633 2.494 2.083 9.072 14.528 15.968 22.703 6.904 8.293 3.267-2.451 1.07-7.268-2.203-4.934 1.734-.583 1.734-.583s12.111 12.21 14.727 18.062c2.617 5.852 12.579 10.291 19.074 10.348 6.495.057 6.49 1.828 6.49 1.828s-.194 2.491 7.624 2.936c7.701.452 6.791 6.53 10.115 8.678 3.324 2.148 8.419 4.301 12.768 4.023 4.35-.278 2.791-.65 3.824 2.589 1.034 3.238-1.737 7.901-3.82 10.394-2.084 2.494-1.973 7.916-1.568 14.264.406 6.348 2.957 7.483 2.957 7.483s14.798 21.008 18.099 22.804c3.302 1.795 3.102 6.057 3.102 6.057s2.058 32.209 2.098 34.685c.04 2.476-.195 2.491-2.123 5.565-1.928 3.074-1.162 9.517-1.162 9.517s1.472 28.587 1.608 30.703c.135 2.116 3.599 4.609 14.664 9.686 11.065 5.076 2.759-3.009 1.455-4.933-1.303-1.923-.81-7.148-1.058-11.027-.248-3.879 2.916-6.088 4.058-8.521 1.143-2.434-.145-4.122-.408-8.236-.263-4.115 4.187-6.523 4.187-6.523s23.518-27.234 25.366-29.712c1.848-2.479 1.908-7.086 1.508-9.657-.401-2.571 6.877-10.59 11.023-14.042 4.147-3.452 6.985-12.603 7.092-14.617.108-2.013-.068-6.605 2.728-9.026 2.797-2.421 2.371-7.234 3.224-12.363.852-5.13-8.589-5.117-14.465-8.4-5.875-3.284-14.876-3.771-15.582-3.726-.705.045-4.672.771-4.624-2.183.047-2.954-2.745-7.851-4.313-10.229-1.568-2.379-3.794-2.118-6.498-1.946-2.703.173-11.42-6.942-15.097-9.068-3.677-2.125-10.727.214-15.512-.779-4.784-.993-2.433-1.143-6.74-2.048s-5.93 5.1-7.891 5.816c-1.96.715-8.441.893-10.814.691-2.374-.203-4.4-4.204-5.228-7.928-.828-3.724-2.226-5.288-5.513-6.848-3.286-1.56-4.012-5.527-3.84-8.371.173-2.844-1.841-2.951-4.199-2.918-2.359.032-2.181.965-2.641 3.001-.46 2.036-2.281 3.097-7.388 2.597-5.115-.618-7.614-6.477-8.509-11.259-.896-4.782-.951-7.494 2.16-10.525 3.111-3.032 4.149-1.564 8.661-1.144 4.512.42 7.41-2.244 10.154-5.488 2.743-3.244 6.6 1.703 6.6 1.703l5.301 7.215c5.3 7.216 4.224-.388 2.583-7.601s19.331-31.805 22.53-35.314c3.198-3.509 2.936-2.076 8.783-2.922 5.848-.845 7.698-6.983 10.949-9.67 3.251-2.686-4.617-2.065-8.264-3.721-3.646-1.655 2.201-2.501 4.25-3.694 2.048-1.193 6.477-2.066 12.377-2.089 5.9-.023-9.998-19.781-12.617-21.974-2.618-2.193-2.138-5.765-3.532-9.099-1.393-3.333-5.029 2.564-7.735 6.396-2.706 3.832-2.821.18-2.494-2.083.328-2.264-2.174-4.464-3.427-7.453-1.253-2.989-8.716-1.568-11.427-1.512-2.712.055-2.226.26-2.756 4.897-.53 4.637.951 7.493 2.044 11.672s-3.241 10.24-5.757 13.351c-2.516 3.112-3.446-.37-3.752-3.301-.305-2.931-1.685-2.371-5.007-2.631-3.321-.259-3.564-.362-5.052-3.336-1.489-2.973-6.003-5.282-10.132-5.254-4.13.028-3.295-7.225-3.38-10.407-.093-3.298 6.012-3.807 7.973-4.522 1.961-.715 5.117-3.042 8.649.51 3.524 3.433 6.465-.413 6.465-.413s4.807-4.203 4.657-6.554c-.151-2.351-1.164-1.578-4.337-1.375-3.174.203-3.644.233-3.817-2.471-.173-2.703-.188-2.938 5.447-3.417 5.635-.478 2.718-5.485 5.264-8.126 2.546-2.641 5.252-.926 5.105 4.159-.147 5.085 5.483.83 8.857 1.913 3.374 1.083 1.951 2.826-.833 3.594-2.784.768-.843 1.588.175 4.592 1.019 3.004.613 2.203 9.592 2.338 8.979.134 1.045-3.962.398-4.865-.648-.903-3.502-3.081 4.639-3.129 8.141-.048 2.666-6.308 2.666-6.308s-6.266-9.396-12.889-11.452c-6.623-2.055-4.853-2.05-8.532-6.064-3.679-4.014-16.6-1.182-20.494-1.169-3.894.013-3.494 2.584-5.334 5.18-1.723 2.589 3.136 4.757 4.11 12.603.973 7.845-4.642 1.24-4.642 1.24s-3.039-3.228-4.527-6.202c-1.489-2.974-2.064-4.589-.326-6.943 1.738-2.354 2.403-4.875-1.791-9.564-4.195-4.689-7.489-6.367-9.15-6.497-1.661-.13-.98 3.131-.565 5.937.416 2.807 2.031 2.231 4.135 3.749 1.986 1.526 1.358 4.635 1.091 7.839-.268 3.203-.528.978-3.774-3.654-3.247-4.632-4.963-1.926-7.339 1.531-2.375 3.457 4.805 5.004 5.416 10.867.611 5.862-2.989 1.253-2.989 1.253s-3.774-3.654-7.288-5.082zm-99.723 120.271s3.405 12.648 6.659 11.85c6.508-1.596 1.3-5.513-4.895-11.962-.516-.676-2.657-2.782-1.764.112zm143.011 19.662c.72.19 1.433.262 2.043.577.978.528 1.751 1.541 2.832 1.826 1.448.498 4.179-1.093 5.567-1.536 5.905-1.794-10.413-5.945-13.279-6.47-2.866-.525-3.727-1.06-9.894 2.167s5.603 2.711 5.603 2.711c2.491.195 4.857.28 7.128.725zm14.449 2.617c.045.706.09 1.411.215 1.521.67 1.255 2.286.68 3.461.605 1.058-.068 7.619-.841 4.487-1.821-1.926-.585-4.007-1.751-6.168-2.321-3.124-.862-2.085.606-1.995 2.016zm-37.69-166.847c1.068 1.939 2.456 1.496 3.669 2.009 1.213.512 1.656 1.9 2.226 5.287.571 3.386 11.303 1.402 18.701.811 7.398-.59 2.331-4.162-7.058-3.326-4.107.381-4.622-.294-5.94-2.453-1.319-2.158-3.207-2.156-5.978-3.041-2.772-.885-2.627-2.311-5.385-4.849-3.76-3.419-1.421 3.632-1.421 3.632s.118-.008 1.186 1.93zm29.53.356c5.29-.338 8.071-8.542 8.223-9.85.152-1.308 3.184-3.744 7.415-4.014 4.232-.271 6.466-.413 8.204-2.767 1.738-2.354-.193-1.168 5.822-3.087 6.015-1.919 5.777-3.792 5.51-6.135-.268-2.344-10.135-1.595-12.831-1.305-2.696.29-2.356 1.92-5.175 3.99-2.818 2.068-20.681 1.439-26.331 1.682-.588.038-1.175.075-1.63.34.772 1.013 3.256 1.09 4.344 1.493 1.566.49 2.464 1.613 3.809 2.353 1.338.623 2.874.643 4.292.67 14.909.582 3.589 2.604 2.421 2.796-1.168.193-3.093-.392-3.251 2.687-.157 3.079-4.134 1.798-6.125 2.044-1.991.245-1.308-.153-1.548-3.915-.241-3.761-8.894-2.5-12.648-2.142-3.754.358-2.023 3.434-2.026 7.093-.002 3.659.931 3.482 4.833 3.586 3.784.113 2.551 1.136 3.164 3.339.613 2.203 6.468 1.475 6.468 1.475s1.77.005 7.06-.333zm41.519-22.6s-3.469-.722-5.075 1.859c-1.605 2.581.291 2.696-3.816 3.076-4.107.38-3.857.6-4.639 3.13-.783 2.528-2.631 5.007-5.57 5.195-2.939.187-7.708-.57-7.095 1.633.62 2.321 5 8.061 7.006 8.051 2.006-.01 18.695-2.965 20.886 3.622 2.199 6.706.099 18.171 3.393 19.849 3.294 1.678 2.026 4.001 1.006 4.657-1.02.655-2.749-.533-2.531 2.876.218 3.409 1.178 1.813 3.239 4.514 2.061 2.701 2.934 1.583 3.205 5.815.27 4.232-.095 5.908 3.109 6.175 3.204.268 6.073 2.681 6.64 4.179.568 1.498 3.652-.115 4.355-2.049.702-1.933 9.61-15.84 12.534-16.263 2.924-.422 8.001-.393 7.953-2.986-.047-2.594-1.933-6.25 1.703-6.601 3.637-.35 10.58-.676 13.418-4.28 2.839-3.604 8.953-7.654 3.016-8.219-2.734-.297-5.353-2.49-4.122-5.402.095-.36 4.231-.27 4.812-.425 1.395-.326 3.246-.916 3.979-2.379 1.135-2.551 2.27-5.102 3.523-7.661 1.166-2.081 5.12-6.701-.23-7.303-1.669-.248-2.612-2.076-.388-4.225 0 0 3.023-8.1 6.55-8.326 1.057-.068 11.019-1.176 9.503-2.732-1.008-.998-1.008-.998-8.091-1.017-.948-.058-1.588-.843-2.433-1.143-1.198-.278-2.719-.063-3.894.013-6.326.758-4.202.74-7.049-1.32-2.846-2.061-5.432-1.896-16.827-1.05-11.512.854-15.937-.044-18.6 2.605-2.664 2.649-1.273 4.094-7.268 4.478-5.995.383-22.202 1.654-22.202 1.654zm65.43 57.903l.075 1.176c.06.94.172 2.703 1.465 2.621 1.881-.12 3.755-.358 5.628-.596.933-.177 2.021.225 2.688-.408 1.571-1.28 2.179-2.854 4.39-3.349.932-.178 3.549.127 3.576-1.291-.037-.587-1.118-6.42-2.104-7.065-2.463-1.613-8.123 2.171-12.12 2.427-1.41.09-2.851-.29-4.364.043-1.278.317-.71 1.815-.415 2.741.678 1.373.98 2.416 1.181 3.701zm32.365 26.259s-4.484 3.71-4.421 6.539c.055 2.711-.445 7.818 2.711 5.492 3.274-2.334 5.442-7.194 5.442-7.194s.222-9.456-3.732-4.837zm7.346-1.413c.67 1.255 1.003 2.768 1.446 4.157.753 2.548-.633 4.879-1.923 6.85-1.188 1.728-2.816 3.957-.36 5.452 3.309 1.914 7.218-3.411 10.021-5.715 2.246-1.796.883-4.66-.648-6.45-1.928-2.474-4.187-4.572-5.433-7.443-1.12-2.761-3.246-4.632-5.16-6.87-1.398-1.563-3.116-.745-3.626 2.356-.415 2.741 1.556 4.032 3.292 5.337.985.645 1.86 1.415 2.391 2.326zm40.245 1.795c-4.297 1.101-6.588 2.192-10.887 1.404-2.389-.437-1.744-6.97-4.243-7.283-.838-.182-2.183-.922-2.718-.062-.323.493-.005 1.771.032 2.359.193 1.168 1.086 4.061-.662 4.409-2.329.503-1.368-1.093-2.463 3.934-1.096 5.028-6.015 7.466-7.601 8.512-1.585 1.046-4.021 3.562-8.018 3.817-4.004.138-4.509 1.469-1.193 3.499 2.582 1.606 3.099 4.169 3.515 6.976l.007.117c.193 1.168 1.044 5.245-.697 5.71-2.093.488-9.169.586-12.108.774-2.939.188-1.47 4.697-1.407 7.526.062 2.828.828 3.724 1.783 3.899.963.292 3.264 1.207 4.605 3.718 1.341 2.511 5.137.971 9.149.95 4.012-.02 3.006-4.677 3.481-6.478.475-1.801-1.003-2.768 2.986-3.141 3.872-.366 5.117-3.042 5.399-6.011.275-3.086 3.394-.453 7.116-3.169 3.721-2.716 10.3 4.181 13.131 6.007 1.353.857 4.935 3.343 4.745 4.064-.718 1.698-7.076.098-4.977 3.386 2.769 4.545 5.22 2.263 8.563-2.671 3.469-4.825-5.485-8.266-7.213-9.454-1.736-1.305-5.898-3.636-3.295-7.225 2.611-3.472 9.705 4.101 9.705 4.101 3.089 2.163 7.836 8.115 9.577 13.197 1.851 4.957 2.469 5.39 7.076 5.45 4.607.059.697-5.71-.158-8.016-.966-2.181-1.003-2.769 1.943-2.839 2.946-.07 4.843 5.592 6.623 7.603 1.781 2.011 7.639 3.171 9.93 2.08 2.408-1.098 3.054-2.084 6.055.557s-3.021 9.99-4.996 10.47c-1.976.481-5.47 3.064-10.33.896-4.867-2.285-5.66-1.763-11.01-2.365-5.35-.602-4.354 2.049-5.444 5.305-1.09 3.257-3.827 1.071-5.092-.265-1.266-1.335-11.323-5.414-15.015-7.775-3.692-2.36-3.269-4.984-4.727-7.487-1.459-2.504-5.423.11-6.076.978-.652.868-4.054 1.203-7.228 1.406-3.173.203-4.386-.31-6.11 2.279-1.723 2.589-1.695 1.17-5.071 3.747-3.377 2.576-6.956 1.979-12.083 3.014-5.127 1.036-2.968 10.813-2.855 12.576.112 1.763-.583 3.814-2.729 3.479-2.146-.335-5.114 10.478-7.44 12.869-2.326 2.391-.479 9.119-.212 11.462.268 2.344-1.61 4.352-2.873 4.905-1.263.553.886 8.324.073 10.382-.812 2.058 6.088 2.916 6.088 2.916.64.785 5.205 2.028 8.422 6.189 3.989 5.175 7.493 4.597 7.493 4.597s24.09-1.657 29.615-2.01c2.351-.151 4.637.529 6.286 2.313 1.53 1.79 3.136 4.756 1.986 7.073-1.04 2.191-1.388 5.99.503 7.875 1.008.998 2.581 1.606 3.81 2.354 3.904 1.993 5.82 11.667 6.143 16.721.211 3.292.076 6.723-.654 10.075-.168 1.073-.453 2.153-1.098 3.139-.85 1.47-1.15 2.316-.928 3.954.166 2.586-.124 5.437 2.764 6.315 1.809.593 5.031 8.531 5.031 8.531s8.167 18.835 9.378 23.007c1.21 4.171 3.194 3.809 4.487 3.726 1.293-.083 2.719.062 2.959-1.723.247-1.669 1.798-1.414 1.798-1.414s1.425.145 7.523-.48c6.215-.634 10.059-10.676 11.489-12.301 1.431-1.626 1.518-2.104 1.205-5.153-.438-3.159.135-3.431 3.176-3.862 3.159-.437 2.524-2.994 2.251-9.114-.273-6.12 2.663-8.196 6.632-12.581 3.969-4.384-.029-20.771-.81-27.449-.781-6.678 3.366-10.129 3.366-10.129s13.107-22.083 18.028-28.181c4.922-6.098-3.569-4.139-3.569-4.139s-7.861.738-11.535.501c-3.667-.12-8.034-7.513-9.925-9.399-1.891-1.885-6.23-5.149-7.199-9.218-.968-4.069-2.736-7.733-2.736-7.733-.406-.801-4.407-4.322-5.163-8.759-1.696-9.924 2.561-2.406 2.561-2.406s1.583 2.614 6.871 5.935c5.295 3.438 8.95 16.306 11.741 21.203 2.792 4.897 2.439 4.919 10.205 4.541 7.773-.26 17.624-12.339 20.663-14.657 3.038-2.319 1.808-4.955.334-7.694-1.473-2.738-4.139-1.978-9.379-2.705-5.232-.61-7.401-6.845-12.291-9.484-4.89-2.638-.525-2.681 2.789-2.538 3.314.142 3.779 1.883 5.552 3.776 1.781 2.011 4.443 3.021 9.585 2.22 5.15-.683 8.686 1.098 9.96 2.551 1.272 1.453 4.881 2.52 4.881 2.52s8.817-.563 9.95.545c1.133 1.108.748 4.319 6.545 4.539 5.798.22 9.348 11.442 9.348 11.442s2.577 14.471 6.731 16.684c8.067 4.324 5.04-11.653 5.196-14.732.158-3.078 8.556-8.336 11.522-9.942 1.256-.671 1.753-2.119 1.78-3.537.058-.948-.782-3.019-.122-3.769.558-.508 2.916-.54 3.629-.468 1.543.138 4.29-1.218 5.205 2.028.915 3.247 5.41 7.09 5.41 7.09 1.376 1.211 3.067 1.811 4.852 2.051 1.544.137 3.38-.688 4.843.045 2.073 1.047 1.035 5.127 1.03 6.898.12 1.88-.23 3.791.133 5.775.37 2.1 1.776 3.781 2.382 5.867.443 1.388.76 2.666.968 4.069 0 0 5.646 12.623 12.381 10.894 4.532-1.116-3.957-8.363-7.592-11.672-3.634-3.309-4.094-6.82-2.799-10.562 1.295-3.742 4.527.655 9.785 3.506 5.257 2.851 3.184 1.803 6.967-3.632 3.792-5.318-.243-11.197-1.619-12.408-1.375-1.21-7.233-7.918-1.028-10.557 6.087-2.631 12.17-3.492 15.548-4.18 3.38-.688 2.794-4.31 7.926-12.664 5.131-8.354-.922-18.117-3.536-22.081-2.731-3.957-3.337-6.043-.073-10.382 3.264-4.34 7.146 2.848 7.146 2.848s3.91 5.77 8.987 11.347 5.625-2.484 6.327-4.418c.695-2.051-2.519-4.324-4.455-6.915s-.208-6.95.165-8.509c.372-1.558 8.69-6.22 11.327-7.451 2.636-1.231 5.164-5.995 5.701-16.062.537-10.067 3.587.715 3.587.715s1.787 22.429 1.932 26.551c.146 4.122.493 5.87-4.359 9.367-4.851 3.497-5.484 2.829-8.15 3.59-2.666.76-3.547 1.761-3.369 8.241.178 6.48 3.127 2.751 3.382 1.2.255-1.551 1.145-6.093 4.577-5.958 3.431.135 8.59-4.09 11.614-6.643 3.024-2.554 1.207-8.812.857-12.448-.35-3.637-.635-2.556 2.523-2.994 3.16-.438 1.969-.598 2.251-3.567.283-2.969-1.15-3.231-4.097-3.161-2.946.07-2.538-2.789-2.538-2.789s-.337-14.496-1.26-17.86c-.915-3.246-5.345-7.92-13.889-6.784-8.543 1.136 3.754-11.453 7.598-15.948 3.726-4.487 7.903-1.921 7.903-1.921s4.97 2.043 11.76 3.026c6.79.982 3.279-4.105 3.876-7.684.598-3.579 3.627-2.356 9.392 1.052 5.765 3.409-4.136 11.005-5.294 13.204-1.158 2.198 2.251 7.528 6.058 13.54 3.807 6.013 2.732-1.591 3.044-4.089.195-2.491-.183-4.71 2.165-6.748 2.349-2.039.728-5.24.405-10.295-.323-5.054 3.249-4.574 8.773-4.927 5.533-.236 6.11-2.279 7.351-3.185 1.24-.905.415-2.741 8.576-4.325 8.168-1.466-10.339-21.411-11.847-22.849-1.508-1.438-25.523 1.395-31.416 1.536-5.892.14-5.898-3.637-7.163-4.972-1.266-1.336-14.474.689-16.95.729-2.476.04-5.393-4.967-7.524-5.067-2.13-.1-2.818 2.069-4.814 4.085-1.995 2.016-2.281-2.451-2.636-4.317s-1.686-2.37-4.082-2.926c-2.396-.555-1.998 5.675-1.98 7.799.017 2.123-18.954 2.627-22.605 2.742-3.652.115-5.083-3.806-6.058-7.993-.976-4.187-4.452.521-4.452.521l-8.904 1.041s-15.076.491-19.035 1.334c-3.842.836-.308-4.82 1.65-7.423 1.95-2.722-8.047-5.86-9.29-6.843-1.243-.982-9.036.814-10.72.331-1.565-.49-2.906-3-3.323-2.148-.418.853-.848 3.36-2.529 4.765-1.68 1.406-3.356 1.04-5.684 1.543-2.329.503-.85 1.471-8.874 1.511-8.016.159-8.03 5.471-10.312 8.567-2.398 3.104-6.645 3.14-8.636 3.385-1.983.363-1.022 4.314-1.805 6.843-.783 2.529-4.905-2.873-6.36-3.489-1.464-.732-.7 3.822-.7 3.822s.753 13.643.256 15.092c-.498 1.448-5.716-10.022-5.889-12.725-.055-2.712-2.664-8.446-3.202-9.474-.413-.918-1.49.685-2.883 2.899-1.393 2.213-.182 6.385-.347 9.346-.165 2.961-1.909 1.538-6.493 1.831-4.584.293-5.31 1.874-7.078 3.757-1.768 1.884-8.733 1.857-12.73 2.112-3.997.256-5.852 2.617-9.354 5.083-3.501 2.466-2.786-1.12-5.34-4.144-2.679-3.134-3.156 2.326-4.299 4.76-1.143 2.434-8.359-3.361-11.823-5.854-3.464-2.494-5.335-.368-7.098-.255-1.763.113-3.717.946-5.793-1.99-2.076-2.937-6.99-2.268-12.393-3.694-5.402-1.425-6.8 2.559-12.315 4.918-5.514 2.359-6.715 5.741-6.715 5.741l-.15 3.196c-.149 3.196-3.803 6.971-6.077 10.185-2.273 3.214-6.96 3.749-9.456 5.325-2.496 1.576-.199 9.81.136 13.211.328 3.284 5.585.587 9.112.362 3.409-.218 1.716 2.841 1.336 4.282-.168 1.073-1.946.95-2.254 1.678-.11.125-.095.36.045.705.546 1.146 1.899 2.004 2.679 3.134 2.466 3.501 3.857-.6 3.857-.6s3.123-4.685 5.879-9.582c2.441-4.287-2.699-7.146-.008-11.213 2.258-3.449 5.127-6.583 8.033-9.129 5.027-4.452 6.007-2.037 7.686.217 1.678 2.253-7.281 6.13-9.484 12.291-2.203 6.16 6.358 1.6 4.22 6.93-4.178 12.188-5.446 14.512-10.088 15.752zm70.819-60.943a41.31 41.31 0 005.515 3.188c.61.316 3.419 1.789 2.593-.047-.552-1.263-1.693-2.489-2.583-3.494-1.781-2.011-1.636-3.436-1.817-6.258-.18-2.821 5.312-5.532 5.312-5.532 18.78-10.879 1.023-4.315-1.776-3.782-2.688.408-5.369.933-6.75 1.494-1.381.56-4.314 4.524-5.639 7.796-.411.97-.1 2.131.312 3.049.398.683.906 1.24 1.641 1.665 1.103.638 2.324 1.268 3.192 1.921zm5.855 232.027c-1.453 1.273-.867 4.895-.587 11.132.113 1.764 3.142 14.081 5.803 9.544-.007-.117 3.511-6.008 3.426-9.189-.093-3.299 2.401-6.763 3.316-9.064s.14-5.202-2.402-9.879c-2.541-4.677-4.609 3.599-4.609 3.599-.623 1.338-3.494 2.584-4.947 3.857zM.2 305.882c1.766 1.775 3.539 3.669 5.305 5.444l2.649 2.664c1 .88 2.236 1.745 2.781 2.891.545 1.145.533 2.798 1.533 3.679.876.77 2.169.687 3.22.502 4.576-.41 9.176-.468 13.878-.769 27.036-1.727 6.462-2.301 5.272-2.461-1.19-.16-3.622.586-5.96-.917-2.339-1.503-12.418-.387-12.418-.387s-3.52.343-3.237-2.626c.283-2.969-1.113-2.644-6.053-9.764-4.94-7.12-4.374-1.963-11.886-8.683-7.51-6.72-2.696.29-1.105 3.021 1.591 2.731 4.998 6.173 4.998 6.173.265.455.648.903 1.023 1.233zm38.861.467c-.372 1.559-.282 2.969 1.519 3.444 3.351.73 2.696-.29 5.852-2.616.565-.391 2.261-1.561 2.091-2.376-.163-.698-1.69-.601-2.301-.916-.618-.432-1.243-.983-1.949-.937a11.31 11.31 0 00-2.82.18c-1.169.192-1.734.583-2.027 1.546-.205.485-.285 1.08-.364 1.675zm-10.552-.742c1.058-.067 2.234-.143 3.262-.68.918-.413 1.453-1.273 2.12-1.906 1.226-1.141 1.386-2.331 1.546-3.522.502-3.219.05-6.613-.153-9.787-.36-5.642-1.116-4.531-2.207-6.822-.552-1.263-4.451.52-6.015 1.918-1.563 1.399-.48 3.572-.492 5.225.135 2.116-1.958 2.604-3.301 3.752-1.68 1.406-3.236 2.921-4.792 4.437-2.003 1.899.115 3.652 1.176 5.472.265.456.655 1.021 1.148 1.343.868.653 1.933.703 2.881.761l.235-.015c1.536.019 3.064-.078 4.592-.176zm17.266-27.188c.936 1.711 2.224 3.399 3.387 4.977.648.903 2.038 2.349 3.154 1.333 1.453-1.273.972-3.249.875-4.777-.226-3.527-.203-8.721-1.772-11.1-1.686-2.371-4.597-3.601-6.51-5.839-1.524-1.673-2.684-1.363-4.868-7.833-2.301-6.463-1.188 1.728-1.278 5.865-.09 4.137 3.883 7.188 3.883 7.188 2.898 2.883 1.376 6.757 3.129 10.186zm30.88 30.722c1.418.027 2.742.415 3.757 1.53 1.266 1.335 1.723 2.959 2.762 4.427.655 1.02 1.685 2.371 3.191 1.92 1.38-.56 2.701-2.061 3.974-.608 1.781 2.011 2.544 1.018 2.544 1.018.448-.383 3.949-2.849 5.802-1.551 10.76 7.693 6.013 1.74 3.217-1.386-2.797-3.126-9.688-7.525-12.814-10.276-3.127-2.751-8.956.218-12.278-.042-3.321-.26-2.451-3.266-4.342-5.152-1.891-1.885-8.809.681-10.507-.036-1.698-.718-2.544-1.018-2.686-3.252-.023-.352-.916-3.246-1.671-2.135-.323.492-.005 1.77.032 2.358.06.941.12 1.881.298 2.814.495 2.211 2.199 1.158 5.25 2.733 3.044 1.458 4.29 4.329 5.035 6.76.598 1.969 3.06 1.693 4.925 1.338 1.168-.193 2.336-.385 3.511-.46zm21.568 86.318c-.595-.08-1.778-.123-1.968.598-.19.72 1.155 1.46 1.193 2.048.06.94.013 3.894 2.849 3.949 2.718.062 3.083-1.613 3.498-4.355.088-.477.058-.948-.207-1.403-.39-.565-1.221-.63-1.809-.592-.595-.08-1.183-.043-1.895-.115-.596-.08-1.066-.05-1.661-.13zm-36.285-65.431c-3.151.555-5.963 2.742-8.569 4.442-1.703 1.054-3.508 2.349-4.203 4.4-.6 1.691-.303 4.505-.425 6.283-.218 2.138-5.863.611-7.956 1.098-2.093.488-1.253 2.559-1.913 3.309-.778.758-3.77.123-6.208.751-2.901.776-1.16 5.858-1.267 7.871-.108 2.014-.685 4.057-1.028 6.085-.7 3.822 1.51 3.327 3.452 4.147 1.94.82.523 6.34 1.063 9.256.526 2.681 4.218 5.042 6.511 5.84 1.573.608 3.432.135 5.077.03 1.881-.121 3.77-.123 5.503-.706s2.936-2.076 4.396-3.232c2.239-1.913 4.772-2.901 7.726-2.854 3.071.04 6.032.205 9.096.127 1.646-.105 4.43-.873 5.035 1.213.45 1.505.32 3.166.77 4.672.916 3.246 3.075 1.928 5.778 1.755 2.704-.173 2.957 1.936 3.79 3.889 1.393 3.334 3.847 2.941 6.903 2.746 2.116-.136 4.232-.271 6.34-.524 3.622-.585 5.622-4.372 5.622-4.372s4.294-8.536 6.435-11.978c2.14-3.442 2.608-10.907 2.24-16.667-.369-5.76-8.88-13.36-8.88-13.36s-11.546-12.6-13.555-14.478c-2.008-1.878-.99-4.422-1.838-6.61-.73-2.196-2.261 1.56-4.222 2.276-1.96.715-.392 8.641-.317 9.817.075 1.175-2.408 1.098-3.806-.465-1.399-1.563-2.199-1.158-4.147-2.096-1.949-.938-3.252-2.861-3.69-6.02-.32-3.166-3.544-1.898-7.313-1.775-3.77.123-2.166 1.201-2.744 3.244-.387 1.323-1.79 1.531-2.958 1.723-.353.023-.58.156-.698.163zm85.859 70.997l-.11.125c-1.195 1.611-4.744 7.031-2.371 7.234 2.256.21 5.16 1.322 6.473-.296 1.298-1.853.738-3.234 4.865-5.15 2.063-.958 3.413-7.536 3.413-7.536s-.856-2.306-2.356-3.626c-1.243-.983-3.809 3.194-4.8 4.319-1.658 1.759-3.691 3.187-5.114 4.93zm18.16-13.199c.665-2.521 2.518-1.223 2.405-2.986-.112-1.764-5.487-4.607-7.348-6.023-3.714-2.713-.025 3.307-.743 5.005-.937 1.949-1.055 1.956-.089 4.137.272.573 1.04 3.356 1.643 3.554 3.484.958 3.474-1.048 4.132-3.687z"/></mask><path d="M-449.486 124.994c-1.588-.843-3.169-1.568-4.955-1.808-2.373-.203-5.062.205-7.371-.828-1.58-.725-4.907-4.761-1.123-4.649 2.601.07 7.648-.371 9.284-2.482 4.144-5.34 10.913 6.385 15.885 4.769 2.658-.878 3.021-4.442 5.947-2.977 1.831.945 3.817 2.471 5.215 4.034 2.031 2.231.821 3.606-1.853 4.249-2.446.511-4.93.433-7.516.599-2.351.15-4.687.535-7.023.92-2.336.386-4.417-.78-6.49-1.827zm26.045-17.245s1.639 5.325 3.564 5.91c1.809.593 2.809 1.473 3.827-1.071 1.025-2.426-1.746-3.311-3.864-5.064-2.119-1.753-5.586-6.135-3.527.225zm-6.553 32.287c-3.514-1.428-2.011-3.766-3.435-7.57-1.423-3.804-3.644.233-6.82 4.094-3.176 3.862-7.013-2.62-8.889-4.271-1.876-1.65-.253-2.108-9.357-2.353-8.994-.369-8.303-.649-12.007 4.19-3.704 4.84 3.627 3.192 8.837 3.449 5.209.257 5.522 3.306 5.255 6.51-.268 3.204-9.887 2.284-18.888 1.797-9.002-.487-8.051 1.458-12.508 3.75-4.457 2.291-14.434-2.383-18.513-3.421-4.079-1.037-31.246 2.351-35.243 2.606-3.996.256-6.035 3.455-9.001 5.061-2.966 1.606-1.32 7.048-1.272 9.641.048 2.594-5.98.619-9.036.814-3.057.195-2.121 1.906-2.214 4.154-.092 2.249 1.216 2.401 4.845 1.933 3.629-.468 5.195.023 5.47 2.484.275 2.461-4.627 1.475-7.566 1.663-2.938.188-1.432 5.285-.567 9.597.866 4.312 3.642 3.426 5.363 4.497 1.721 1.07 4.177 2.565-9.318 9.329-13.496 6.764-.26 3.322 2.031 2.231 2.29-1.091 12.432-4.925 15.488-5.121 3.057-.195 7.533-4.022 11.202-7.561 3.669-3.54 15.874-2.785 24.581-3.223 8.706-.439 17.446 18.124 21.865 20.792 4.42 2.669 6.415 26.501 6.748 33.562.333 7.06 5.813 11.549 8.307 13.633 2.494 2.083 9.072 14.528 15.968 22.703 6.904 8.293 3.267-2.451 1.07-7.268-2.203-4.934 1.734-.583 1.734-.583s12.111 12.21 14.727 18.062c2.617 5.852 12.579 10.291 19.074 10.348 6.495.057 6.49 1.828 6.49 1.828s-.194 2.491 7.624 2.936c7.701.452 6.791 6.53 10.115 8.678 3.324 2.148 8.419 4.301 12.768 4.023 4.35-.278 2.791-.65 3.824 2.589 1.034 3.238-1.737 7.901-3.82 10.394-2.084 2.494-1.973 7.916-1.568 14.264.406 6.348 2.957 7.483 2.957 7.483s14.798 21.008 18.099 22.804c3.302 1.795 3.102 6.057 3.102 6.057s2.058 32.209 2.098 34.685c.04 2.476-.195 2.491-2.123 5.565-1.928 3.074-1.162 9.517-1.162 9.517s1.472 28.587 1.608 30.703c.135 2.116 3.599 4.609 14.664 9.686 11.065 5.076 2.759-3.009 1.455-4.933-1.303-1.923-.81-7.148-1.058-11.027-.248-3.879 2.916-6.088 4.058-8.521 1.143-2.434-.145-4.122-.408-8.236-.263-4.115 4.187-6.523 4.187-6.523s23.518-27.234 25.366-29.712c1.848-2.479 1.908-7.086 1.508-9.657-.401-2.571 6.877-10.59 11.023-14.042 4.147-3.452 6.985-12.603 7.092-14.617.108-2.013-.068-6.605 2.728-9.026 2.797-2.421 2.371-7.234 3.224-12.363.852-5.13-8.589-5.117-14.465-8.4-5.875-3.284-14.876-3.771-15.582-3.726-.705.045-4.672.771-4.624-2.183.047-2.954-2.745-7.851-4.313-10.229-1.568-2.379-3.794-2.118-6.498-1.946-2.703.173-11.42-6.942-15.097-9.068-3.677-2.125-10.727.214-15.512-.779-4.784-.993-2.433-1.143-6.74-2.048s-5.93 5.1-7.891 5.816c-1.96.715-8.441.893-10.814.691-2.374-.203-4.4-4.204-5.228-7.928-.828-3.724-2.226-5.288-5.513-6.848-3.286-1.56-4.012-5.527-3.84-8.371.173-2.844-1.841-2.951-4.199-2.918-2.359.032-2.181.965-2.641 3.001-.46 2.036-2.281 3.097-7.388 2.597-5.115-.618-7.614-6.477-8.509-11.259-.896-4.782-.951-7.494 2.16-10.525 3.111-3.032 4.149-1.564 8.661-1.144 4.512.42 7.41-2.244 10.154-5.488 2.743-3.244 6.6 1.703 6.6 1.703l5.301 7.215c5.3 7.216 4.224-.388 2.583-7.601s19.331-31.805 22.53-35.314c3.198-3.509 2.936-2.076 8.783-2.922 5.848-.845 7.698-6.983 10.949-9.67 3.251-2.686-4.617-2.065-8.264-3.721-3.646-1.655 2.201-2.501 4.25-3.694 2.048-1.193 6.477-2.066 12.377-2.089 5.9-.023-9.998-19.781-12.617-21.974-2.618-2.193-2.138-5.765-3.532-9.099-1.393-3.333-5.029 2.564-7.735 6.396-2.706 3.832-2.821.18-2.494-2.083.328-2.264-2.174-4.464-3.427-7.453-1.253-2.989-8.716-1.568-11.427-1.512-2.712.055-2.226.26-2.756 4.897-.53 4.637.951 7.493 2.044 11.672s-3.241 10.24-5.757 13.351c-2.516 3.112-3.446-.37-3.752-3.301-.305-2.931-1.685-2.371-5.007-2.631-3.321-.259-3.564-.362-5.052-3.336-1.489-2.973-6.003-5.282-10.132-5.254-4.13.028-3.295-7.225-3.38-10.407-.093-3.298 6.012-3.807 7.973-4.522 1.961-.715 5.117-3.042 8.649.51 3.524 3.433 6.465-.413 6.465-.413s4.807-4.203 4.657-6.554c-.151-2.351-1.164-1.578-4.337-1.375-3.174.203-3.644.233-3.817-2.471-.173-2.703-.188-2.938 5.447-3.417 5.635-.478 2.718-5.485 5.264-8.126 2.546-2.641 5.252-.926 5.105 4.159-.147 5.085 5.483.83 8.857 1.913 3.374 1.083 1.951 2.826-.833 3.594-2.784.768-.843 1.588.175 4.592 1.019 3.004.613 2.203 9.592 2.338 8.979.134 1.045-3.962.398-4.865-.648-.903-3.502-3.081 4.639-3.129 8.141-.048 2.666-6.308 2.666-6.308s-6.266-9.396-12.889-11.452c-6.623-2.055-4.853-2.05-8.532-6.064-3.679-4.014-16.6-1.182-20.494-1.169-3.894.013-3.494 2.584-5.334 5.18-1.723 2.589 3.136 4.757 4.11 12.603.973 7.845-4.642 1.24-4.642 1.24s-3.039-3.228-4.527-6.202c-1.489-2.974-2.064-4.589-.326-6.943 1.738-2.354 2.403-4.875-1.791-9.564-4.195-4.689-7.489-6.367-9.15-6.497-1.661-.13-.98 3.131-.565 5.937.416 2.807 2.031 2.231 4.135 3.749 1.986 1.526 1.358 4.635 1.091 7.839-.268 3.203-.528.978-3.774-3.654-3.247-4.632-4.963-1.926-7.339 1.531-2.375 3.457 4.805 5.004 5.416 10.867.611 5.862-2.989 1.253-2.989 1.253s-3.774-3.654-7.288-5.082zm-99.723 120.271s3.405 12.648 6.659 11.85c6.508-1.596 1.3-5.513-4.895-11.962-.516-.676-2.657-2.782-1.764.112zm143.011 19.662c.72.19 1.433.262 2.043.577.978.528 1.751 1.541 2.832 1.826 1.448.498 4.179-1.093 5.567-1.536 5.905-1.794-10.413-5.945-13.279-6.47-2.866-.525-3.727-1.06-9.894 2.167s5.603 2.711 5.603 2.711c2.491.195 4.857.28 7.128.725zm14.449 2.617c.045.706.09 1.411.215 1.521.67 1.255 2.286.68 3.461.605 1.058-.068 7.619-.841 4.487-1.821-1.926-.585-4.007-1.751-6.168-2.321-3.124-.862-2.085.606-1.995 2.016zm-37.69-166.847c1.068 1.939 2.456 1.496 3.669 2.009 1.213.512 1.656 1.9 2.226 5.287.571 3.386 11.303 1.402 18.701.811 7.398-.59 2.331-4.162-7.058-3.326-4.107.381-4.622-.294-5.94-2.453-1.319-2.158-3.207-2.156-5.978-3.041-2.772-.885-2.627-2.311-5.385-4.849-3.76-3.419-1.421 3.632-1.421 3.632s.118-.008 1.186 1.93zm29.53.356c5.29-.338 8.071-8.542 8.223-9.85.152-1.308 3.184-3.744 7.415-4.014 4.232-.271 6.466-.413 8.204-2.767 1.738-2.354-.193-1.168 5.822-3.087 6.015-1.919 5.777-3.792 5.51-6.135-.268-2.344-10.135-1.595-12.831-1.305-2.696.29-2.356 1.92-5.175 3.99-2.818 2.068-20.681 1.439-26.331 1.682-.588.038-1.175.075-1.63.34.772 1.013 3.256 1.09 4.344 1.493 1.566.49 2.464 1.613 3.809 2.353 1.338.623 2.874.643 4.292.67 14.909.582 3.589 2.604 2.421 2.796-1.168.193-3.093-.392-3.251 2.687-.157 3.079-4.134 1.798-6.125 2.044-1.991.245-1.308-.153-1.548-3.915-.241-3.761-8.894-2.5-12.648-2.142-3.754.358-2.023 3.434-2.026 7.093-.002 3.659.931 3.482 4.833 3.586 3.784.113 2.551 1.136 3.164 3.339.613 2.203 6.468 1.475 6.468 1.475s1.77.005 7.06-.333zm41.519-22.6s-3.469-.722-5.075 1.859c-1.605 2.581.291 2.696-3.816 3.076-4.107.38-3.857.6-4.639 3.13-.783 2.528-2.631 5.007-5.57 5.195-2.939.187-7.708-.57-7.095 1.633.62 2.321 5 8.061 7.006 8.051 2.006-.01 18.695-2.965 20.886 3.622 2.199 6.706.099 18.171 3.393 19.849 3.294 1.678 2.026 4.001 1.006 4.657-1.02.655-2.749-.533-2.531 2.876.218 3.409 1.178 1.813 3.239 4.514 2.061 2.701 2.934 1.583 3.205 5.815.27 4.232-.095 5.908 3.109 6.175 3.204.268 6.073 2.681 6.64 4.179.568 1.498 3.652-.115 4.355-2.049.702-1.933 9.61-15.84 12.534-16.263 2.924-.422 8.001-.393 7.953-2.986-.047-2.594-1.933-6.25 1.703-6.601 3.637-.35 10.58-.676 13.418-4.28 2.839-3.604 8.953-7.654 3.016-8.219-2.734-.297-5.353-2.49-4.122-5.402.095-.36 4.231-.27 4.812-.425 1.395-.326 3.246-.916 3.979-2.379 1.135-2.551 2.27-5.102 3.523-7.661 1.166-2.081 5.12-6.701-.23-7.303-1.669-.248-2.612-2.076-.388-4.225 0 0 3.023-8.1 6.55-8.326 1.057-.068 11.019-1.176 9.503-2.732-1.008-.998-1.008-.998-8.091-1.017-.948-.058-1.588-.843-2.433-1.143-1.198-.278-2.719-.063-3.894.013-6.326.758-4.202.74-7.049-1.32-2.846-2.061-5.432-1.896-16.827-1.05-11.512.854-15.937-.044-18.6 2.605-2.664 2.649-1.273 4.094-7.268 4.478-5.995.383-22.202 1.654-22.202 1.654zm65.43 57.903l.075 1.176c.06.94.172 2.703 1.465 2.621 1.881-.12 3.755-.358 5.628-.596.933-.177 2.021.225 2.688-.408 1.571-1.28 2.179-2.854 4.39-3.349.932-.178 3.549.127 3.576-1.291-.037-.587-1.118-6.42-2.104-7.065-2.463-1.613-8.123 2.171-12.12 2.427-1.41.09-2.851-.29-4.364.043-1.278.317-.71 1.815-.415 2.741.678 1.373.98 2.416 1.181 3.701zm32.365 26.259s-4.484 3.71-4.421 6.539c.055 2.711-.445 7.818 2.711 5.492 3.274-2.334 5.442-7.194 5.442-7.194s.222-9.456-3.732-4.837zm7.346-1.413c.67 1.255 1.003 2.768 1.446 4.157.753 2.548-.633 4.879-1.923 6.85-1.188 1.728-2.816 3.957-.36 5.452 3.309 1.914 7.218-3.411 10.021-5.715 2.246-1.796.883-4.66-.648-6.45-1.928-2.474-4.187-4.572-5.433-7.443-1.12-2.761-3.246-4.632-5.16-6.87-1.398-1.563-3.116-.745-3.626 2.356-.415 2.741 1.556 4.032 3.292 5.337.985.645 1.86 1.415 2.391 2.326zm40.245 1.795c-4.297 1.101-6.588 2.192-10.887 1.404-2.389-.437-1.744-6.97-4.243-7.283-.838-.182-2.183-.922-2.718-.062-.323.493-.005 1.771.032 2.359.193 1.168 1.086 4.061-.662 4.409-2.329.503-1.368-1.093-2.463 3.934-1.096 5.028-6.015 7.466-7.601 8.512-1.585 1.046-4.021 3.562-8.018 3.817-4.004.138-4.509 1.469-1.193 3.499 2.582 1.606 3.099 4.169 3.515 6.976l.007.117c.193 1.168 1.044 5.245-.697 5.71-2.093.488-9.169.586-12.108.774-2.939.188-1.47 4.697-1.407 7.526.062 2.828.828 3.724 1.783 3.899.963.292 3.264 1.207 4.605 3.718 1.341 2.511 5.137.971 9.149.95 4.012-.02 3.006-4.677 3.481-6.478.475-1.801-1.003-2.768 2.986-3.141 3.872-.366 5.117-3.042 5.399-6.011.275-3.086 3.394-.453 7.116-3.169 3.721-2.716 10.3 4.181 13.131 6.007 1.353.857 4.935 3.343 4.745 4.064-.718 1.698-7.076.098-4.977 3.386 2.769 4.545 5.22 2.263 8.563-2.671 3.469-4.825-5.485-8.266-7.213-9.454-1.736-1.305-5.898-3.636-3.295-7.225 2.611-3.472 9.705 4.101 9.705 4.101 3.089 2.163 7.836 8.115 9.577 13.197 1.851 4.957 2.469 5.39 7.076 5.45 4.607.059.697-5.71-.158-8.016-.966-2.181-1.003-2.769 1.943-2.839 2.946-.07 4.843 5.592 6.623 7.603 1.781 2.011 7.639 3.171 9.93 2.08 2.408-1.098 3.054-2.084 6.055.557s-3.021 9.99-4.996 10.47c-1.976.481-5.47 3.064-10.33.896-4.867-2.285-5.66-1.763-11.01-2.365-5.35-.602-4.354 2.049-5.444 5.305-1.09 3.257-3.827 1.071-5.092-.265-1.266-1.335-11.323-5.414-15.015-7.775-3.692-2.36-3.269-4.984-4.727-7.487-1.459-2.504-5.423.11-6.076.978-.652.868-4.054 1.203-7.228 1.406-3.173.203-4.386-.31-6.11 2.279-1.723 2.589-1.695 1.17-5.071 3.747-3.377 2.576-6.956 1.979-12.083 3.014-5.127 1.036-2.968 10.813-2.855 12.576.112 1.763-.583 3.814-2.729 3.479-2.146-.335-5.114 10.478-7.44 12.869-2.326 2.391-.479 9.119-.212 11.462.268 2.344-1.61 4.352-2.873 4.905-1.263.553.886 8.324.073 10.382-.812 2.058 6.088 2.916 6.088 2.916.64.785 5.205 2.028 8.422 6.189 3.989 5.175 7.493 4.597 7.493 4.597s24.09-1.657 29.615-2.01c2.351-.151 4.637.529 6.286 2.313 1.53 1.79 3.136 4.756 1.986 7.073-1.04 2.191-1.388 5.99.503 7.875 1.008.998 2.581 1.606 3.81 2.354 3.904 1.993 5.82 11.667 6.143 16.721.211 3.292.076 6.723-.654 10.075-.168 1.073-.453 2.153-1.098 3.139-.85 1.47-1.15 2.316-.928 3.954.166 2.586-.124 5.437 2.764 6.315 1.809.593 5.031 8.531 5.031 8.531s8.167 18.835 9.378 23.007c1.21 4.171 3.194 3.809 4.487 3.726 1.293-.083 2.719.062 2.959-1.723.247-1.669 1.798-1.414 1.798-1.414s1.425.145 7.523-.48c6.215-.634 10.059-10.676 11.489-12.301 1.431-1.626 1.518-2.104 1.205-5.153-.438-3.159.135-3.431 3.176-3.862 3.159-.437 2.524-2.994 2.251-9.114-.273-6.12 2.663-8.196 6.632-12.581 3.969-4.384-.029-20.771-.81-27.449-.781-6.678 3.366-10.129 3.366-10.129s13.107-22.083 18.028-28.181c4.922-6.098-3.569-4.139-3.569-4.139s-7.861.738-11.535.501c-3.667-.12-8.034-7.513-9.925-9.399-1.891-1.885-6.23-5.149-7.199-9.218-.968-4.069-2.736-7.733-2.736-7.733-.406-.801-4.407-4.322-5.163-8.759-1.696-9.924 2.561-2.406 2.561-2.406s1.583 2.614 6.871 5.935c5.295 3.438 8.95 16.306 11.741 21.203 2.792 4.897 2.439 4.919 10.205 4.541 7.773-.26 17.624-12.339 20.663-14.657 3.038-2.319 1.808-4.955.334-7.694-1.473-2.738-4.139-1.978-9.379-2.705-5.232-.61-7.401-6.845-12.291-9.484-4.89-2.638-.525-2.681 2.789-2.538 3.314.142 3.779 1.883 5.552 3.776 1.781 2.011 4.443 3.021 9.585 2.22 5.15-.683 8.686 1.098 9.96 2.551 1.272 1.453 4.881 2.52 4.881 2.52s8.817-.563 9.95.545c1.133 1.108.748 4.319 6.545 4.539 5.798.22 9.348 11.442 9.348 11.442s2.577 14.471 6.731 16.684c8.067 4.324 5.04-11.653 5.196-14.732.158-3.078 8.556-8.336 11.522-9.942 1.256-.671 1.753-2.119 1.78-3.537.058-.948-.782-3.019-.122-3.769.558-.508 2.916-.54 3.629-.468 1.543.138 4.29-1.218 5.205 2.028.915 3.247 5.41 7.09 5.41 7.09 1.376 1.211 3.067 1.811 4.852 2.051 1.544.137 3.38-.688 4.843.045 2.073 1.047 1.035 5.127 1.03 6.898.12 1.88-.23 3.791.133 5.775.37 2.1 1.776 3.781 2.382 5.867.443 1.388.76 2.666.968 4.069 0 0 5.646 12.623 12.381 10.894 4.532-1.116-3.957-8.363-7.592-11.672-3.634-3.309-4.094-6.82-2.799-10.562 1.295-3.742 4.527.655 9.785 3.506 5.257 2.851 3.184 1.803 6.967-3.632 3.792-5.318-.243-11.197-1.619-12.408-1.375-1.21-7.233-7.918-1.028-10.557 6.087-2.631 12.17-3.492 15.548-4.18 3.38-.688 2.794-4.31 7.926-12.664 5.131-8.354-.922-18.117-3.536-22.081-2.731-3.957-3.337-6.043-.073-10.382 3.264-4.34 7.146 2.848 7.146 2.848s3.91 5.77 8.987 11.347 5.625-2.484 6.327-4.418c.695-2.051-2.519-4.324-4.455-6.915s-.208-6.95.165-8.509c.372-1.558 8.69-6.22 11.327-7.451 2.636-1.231 5.164-5.995 5.701-16.062.537-10.067 3.587.715 3.587.715s1.787 22.429 1.932 26.551c.146 4.122.493 5.87-4.359 9.367-4.851 3.497-5.484 2.829-8.15 3.59-2.666.76-3.547 1.761-3.369 8.241.178 6.48 3.127 2.751 3.382 1.2.255-1.551 1.145-6.093 4.577-5.958 3.431.135 8.59-4.09 11.614-6.643 3.024-2.554 1.207-8.812.857-12.448-.35-3.637-.635-2.556 2.523-2.994 3.16-.438 1.969-.598 2.251-3.567.283-2.969-1.15-3.231-4.097-3.161-2.946.07-2.538-2.789-2.538-2.789s-.337-14.496-1.26-17.86c-.915-3.246-5.345-7.92-13.889-6.784-8.543 1.136 3.754-11.453 7.598-15.948 3.726-4.487 7.903-1.921 7.903-1.921s4.97 2.043 11.76 3.026c6.79.982 3.279-4.105 3.876-7.684.598-3.579 3.627-2.356 9.392 1.052 5.765 3.409-4.136 11.005-5.294 13.204-1.158 2.198 2.251 7.528 6.058 13.54 3.807 6.013 2.732-1.591 3.044-4.089.195-2.491-.183-4.71 2.165-6.748 2.349-2.039.728-5.24.405-10.295-.323-5.054 3.249-4.574 8.773-4.927 5.533-.236 6.11-2.279 7.351-3.185 1.24-.905.415-2.741 8.576-4.325 8.168-1.466-10.339-21.411-11.847-22.849-1.508-1.438-25.523 1.395-31.416 1.536-5.892.14-5.898-3.637-7.163-4.972-1.266-1.336-14.474.689-16.95.729-2.476.04-5.393-4.967-7.524-5.067-2.13-.1-2.818 2.069-4.814 4.085-1.995 2.016-2.281-2.451-2.636-4.317s-1.686-2.37-4.082-2.926c-2.396-.555-1.998 5.675-1.98 7.799.017 2.123-18.954 2.627-22.605 2.742-3.652.115-5.083-3.806-6.058-7.993-.976-4.187-4.452.521-4.452.521l-8.904 1.041s-15.076.491-19.035 1.334c-3.842.836-.308-4.82 1.65-7.423 1.95-2.722-8.047-5.86-9.29-6.843-1.243-.982-9.036.814-10.72.331-1.565-.49-2.906-3-3.323-2.148-.418.853-.848 3.36-2.529 4.765-1.68 1.406-3.356 1.04-5.684 1.543-2.329.503-.85 1.471-8.874 1.511-8.016.159-8.03 5.471-10.312 8.567-2.398 3.104-6.645 3.14-8.636 3.385-1.983.363-1.022 4.314-1.805 6.843-.783 2.529-4.905-2.873-6.36-3.489-1.464-.732-.7 3.822-.7 3.822s.753 13.643.256 15.092c-.498 1.448-5.716-10.022-5.889-12.725-.055-2.712-2.664-8.446-3.202-9.474-.413-.918-1.49.685-2.883 2.899-1.393 2.213-.182 6.385-.347 9.346-.165 2.961-1.909 1.538-6.493 1.831-4.584.293-5.31 1.874-7.078 3.757-1.768 1.884-8.733 1.857-12.73 2.112-3.997.256-5.852 2.617-9.354 5.083-3.501 2.466-2.786-1.12-5.34-4.144-2.679-3.134-3.156 2.326-4.299 4.76-1.143 2.434-8.359-3.361-11.823-5.854-3.464-2.494-5.335-.368-7.098-.255-1.763.113-3.717.946-5.793-1.99-2.076-2.937-6.99-2.268-12.393-3.694-5.402-1.425-6.8 2.559-12.315 4.918-5.514 2.359-6.715 5.741-6.715 5.741l-.15 3.196c-.149 3.196-3.803 6.971-6.077 10.185-2.273 3.214-6.96 3.749-9.456 5.325-2.496 1.576-.199 9.81.136 13.211.328 3.284 5.585.587 9.112.362 3.409-.218 1.716 2.841 1.336 4.282-.168 1.073-1.946.95-2.254 1.678-.11.125-.095.36.045.705.546 1.146 1.899 2.004 2.679 3.134 2.466 3.501 3.857-.6 3.857-.6s3.123-4.685 5.879-9.582c2.441-4.287-2.699-7.146-.008-11.213 2.258-3.449 5.127-6.583 8.033-9.129 5.027-4.452 6.007-2.037 7.686.217 1.678 2.253-7.281 6.13-9.484 12.291-2.203 6.16 6.358 1.6 4.22 6.93-4.178 12.188-5.446 14.512-10.088 15.752zm70.819-60.943a41.31 41.31 0 005.515 3.188c.61.316 3.419 1.789 2.593-.047-.552-1.263-1.693-2.489-2.583-3.494-1.781-2.011-1.636-3.436-1.817-6.258-.18-2.821 5.312-5.532 5.312-5.532 18.78-10.879 1.023-4.315-1.776-3.782-2.688.408-5.369.933-6.75 1.494-1.381.56-4.314 4.524-5.639 7.796-.411.97-.1 2.131.312 3.049.398.683.906 1.24 1.641 1.665 1.103.638 2.324 1.268 3.192 1.921zm5.855 232.027c-1.453 1.273-.867 4.895-.587 11.132.113 1.764 3.142 14.081 5.803 9.544-.007-.117 3.511-6.008 3.426-9.189-.093-3.299 2.401-6.763 3.316-9.064s.14-5.202-2.402-9.879c-2.541-4.677-4.609 3.599-4.609 3.599-.623 1.338-3.494 2.584-4.947 3.857zM.2 305.882c1.766 1.775 3.539 3.669 5.305 5.444l2.649 2.664c1 .88 2.236 1.745 2.781 2.891.545 1.145.533 2.798 1.533 3.679.876.77 2.169.687 3.22.502 4.576-.41 9.176-.468 13.878-.769 27.036-1.727 6.462-2.301 5.272-2.461-1.19-.16-3.622.586-5.96-.917-2.339-1.503-12.418-.387-12.418-.387s-3.52.343-3.237-2.626c.283-2.969-1.113-2.644-6.053-9.764-4.94-7.12-4.374-1.963-11.886-8.683-7.51-6.72-2.696.29-1.105 3.021 1.591 2.731 4.998 6.173 4.998 6.173.265.455.648.903 1.023 1.233zm38.861.467c-.372 1.559-.282 2.969 1.519 3.444 3.351.73 2.696-.29 5.852-2.616.565-.391 2.261-1.561 2.091-2.376-.163-.698-1.69-.601-2.301-.916-.618-.432-1.243-.983-1.949-.937a11.31 11.31 0 00-2.82.18c-1.169.192-1.734.583-2.027 1.546-.205.485-.285 1.08-.364 1.675zm-10.552-.742c1.058-.067 2.234-.143 3.262-.68.918-.413 1.453-1.273 2.12-1.906 1.226-1.141 1.386-2.331 1.546-3.522.502-3.219.05-6.613-.153-9.787-.36-5.642-1.116-4.531-2.207-6.822-.552-1.263-4.451.52-6.015 1.918-1.563 1.399-.48 3.572-.492 5.225.135 2.116-1.958 2.604-3.301 3.752-1.68 1.406-3.236 2.921-4.792 4.437-2.003 1.899.115 3.652 1.176 5.472.265.456.655 1.021 1.148 1.343.868.653 1.933.703 2.881.761l.235-.015c1.536.019 3.064-.078 4.592-.176zm17.266-27.188c.936 1.711 2.224 3.399 3.387 4.977.648.903 2.038 2.349 3.154 1.333 1.453-1.273.972-3.249.875-4.777-.226-3.527-.203-8.721-1.772-11.1-1.686-2.371-4.597-3.601-6.51-5.839-1.524-1.673-2.684-1.363-4.868-7.833-2.301-6.463-1.188 1.728-1.278 5.865-.09 4.137 3.883 7.188 3.883 7.188 2.898 2.883 1.376 6.757 3.129 10.186zm30.88 30.722c1.418.027 2.742.415 3.757 1.53 1.266 1.335 1.723 2.959 2.762 4.427.655 1.02 1.685 2.371 3.191 1.92 1.38-.56 2.701-2.061 3.974-.608 1.781 2.011 2.544 1.018 2.544 1.018.448-.383 3.949-2.849 5.802-1.551 10.76 7.693 6.013 1.74 3.217-1.386-2.797-3.126-9.688-7.525-12.814-10.276-3.127-2.751-8.956.218-12.278-.042-3.321-.26-2.451-3.266-4.342-5.152-1.891-1.885-8.809.681-10.507-.036-1.698-.718-2.544-1.018-2.686-3.252-.023-.352-.916-3.246-1.671-2.135-.323.492-.005 1.77.032 2.358.06.941.12 1.881.298 2.814.495 2.211 2.199 1.158 5.25 2.733 3.044 1.458 4.29 4.329 5.035 6.76.598 1.969 3.06 1.693 4.925 1.338 1.168-.193 2.336-.385 3.511-.46zm21.568 86.318c-.595-.08-1.778-.123-1.968.598-.19.72 1.155 1.46 1.193 2.048.06.94.013 3.894 2.849 3.949 2.718.062 3.083-1.613 3.498-4.355.088-.477.058-.948-.207-1.403-.39-.565-1.221-.63-1.809-.592-.595-.08-1.183-.043-1.895-.115-.596-.08-1.066-.05-1.661-.13zm-36.285-65.431c-3.151.555-5.963 2.742-8.569 4.442-1.703 1.054-3.508 2.349-4.203 4.4-.6 1.691-.303 4.505-.425 6.283-.218 2.138-5.863.611-7.956 1.098-2.093.488-1.253 2.559-1.913 3.309-.778.758-3.77.123-6.208.751-2.901.776-1.16 5.858-1.267 7.871-.108 2.014-.685 4.057-1.028 6.085-.7 3.822 1.51 3.327 3.452 4.147 1.94.82.523 6.34 1.063 9.256.526 2.681 4.218 5.042 6.511 5.84 1.573.608 3.432.135 5.077.03 1.881-.121 3.77-.123 5.503-.706s2.936-2.076 4.396-3.232c2.239-1.913 4.772-2.901 7.726-2.854 3.071.04 6.032.205 9.096.127 1.646-.105 4.43-.873 5.035 1.213.45 1.505.32 3.166.77 4.672.916 3.246 3.075 1.928 5.778 1.755 2.704-.173 2.957 1.936 3.79 3.889 1.393 3.334 3.847 2.941 6.903 2.746 2.116-.136 4.232-.271 6.34-.524 3.622-.585 5.622-4.372 5.622-4.372s4.294-8.536 6.435-11.978c2.14-3.442 2.608-10.907 2.24-16.667-.369-5.76-8.88-13.36-8.88-13.36s-11.546-12.6-13.555-14.478c-2.008-1.878-.99-4.422-1.838-6.61-.73-2.196-2.261 1.56-4.222 2.276-1.96.715-.392 8.641-.317 9.817.075 1.175-2.408 1.098-3.806-.465-1.399-1.563-2.199-1.158-4.147-2.096-1.949-.938-3.252-2.861-3.69-6.02-.32-3.166-3.544-1.898-7.313-1.775-3.77.123-2.166 1.201-2.744 3.244-.387 1.323-1.79 1.531-2.958 1.723-.353.023-.58.156-.698.163zm85.859 70.997l-.11.125c-1.195 1.611-4.744 7.031-2.371 7.234 2.256.21 5.16 1.322 6.473-.296 1.298-1.853.738-3.234 4.865-5.15 2.063-.958 3.413-7.536 3.413-7.536s-.856-2.306-2.356-3.626c-1.243-.983-3.809 3.194-4.8 4.319-1.658 1.759-3.691 3.187-5.114 4.93zm18.16-13.199c.665-2.521 2.518-1.223 2.405-2.986-.112-1.764-5.487-4.607-7.348-6.023-3.714-2.713-.025 3.307-.743 5.005-.937 1.949-1.055 1.956-.089 4.137.272.573 1.04 3.356 1.643 3.554 3.484.958 3.474-1.048 4.132-3.687z" stroke="#475566" stroke-opacity=".3" stroke-width="2" mask="url(#path-1-inside-1_2135_278)"/><mask id="path-2-inside-2_2135_278" fill="#fff"><path d="M-364.924 282.826c3.132.98-3.429 1.753-4.486 1.821-1.176.075-2.792.651-3.462-.605-.008-.117-.17-.815-.215-1.521-.098-1.528-1.128-2.878 1.87-2.126 2.286.681 4.485 1.838 6.293 2.431zm525.233 96.037c-3.714-2.714-.025 3.306-.742 5.004-.938 1.949-1.056 1.956-.09 4.137.272.573 1.04 3.356 1.643 3.554 3.367.965 3.467-1.166 4.132-3.687.665-2.521 2.518-1.223 2.406-2.986-.113-1.764-5.37-4.614-7.349-6.022zm-690.738-118.628s3.522 12.64 6.659 11.849c6.507-1.596 1.3-5.512-4.896-11.962-.507-.558-2.656-2.781-1.763.113zm260.089-115.292c-1.41.09-2.851-.29-4.364.043-1.278.317-.71 1.815-.415 2.741.435 1.27.738 2.313.938 3.599l.075 1.175c.06.941.173 2.704 1.466 2.621 1.881-.12 3.754-.358 5.628-.595.932-.178 2.02.225 2.688-.408 1.571-1.281 2.178-2.854 4.389-3.349.933-.178 3.549.127 3.577-1.291-.038-.588-1.119-6.42-2.104-7.066-2.214-1.393-7.991 2.4-11.878 2.53zm26.925 44.547c3.274-2.333 5.442-7.193 5.442-7.193s.112-9.332-3.842-4.712c0 0-4.484 3.709-4.429 6.421.18 2.821-.437 7.936 2.829 5.484zm116.936-74.395c.992.763 2.213 1.393 3.081 2.046a41.487 41.487 0 005.515 3.189c.61.315 3.419 1.788 2.594-.048-.553-1.263-1.694-2.489-2.584-3.494-1.781-2.011-1.636-3.436-1.816-6.257-.181-2.822 5.312-5.533 5.312-5.533 18.78-10.879 1.022-4.315-1.776-3.782-2.689.408-5.37.934-6.751 1.494-1.38.56-4.314 4.525-5.639 7.796-.41.971-.1 2.131.313 3.049l1.751 1.54zm-110.264 58.743c.868.653 1.743 1.423 2.273 2.333.671 1.256 1.004 2.769 1.446 4.157.753 2.549-.632 4.88-1.922 6.851-1.188 1.728-2.816 3.957-.36 5.452 3.309 1.913 7.1-3.404 10.021-5.716 2.246-1.795.883-4.659-.648-6.45-1.929-2.473-4.187-4.572-5.433-7.443-1.121-2.761-3.247-4.631-5.16-6.87-1.398-1.563-3.116-.745-3.626 2.356-.423 2.624 1.548 3.915 3.409 5.33zm-163.399 102.74c-6.167 3.227 5.603 2.711 5.603 2.711 2.366.085 4.732.17 7.003.615.72.19 1.433.262 2.043.577.978.528 1.751 1.541 2.832 1.826 1.448.498 4.179-1.093 5.567-1.536 5.905-1.794-10.412-5.944-13.279-6.469-2.866-.526-3.601-.951-9.769 2.276zm438.856 28.023c-.197.603-.277 1.198-.482 1.683-.373 1.559-.283 2.969 1.518 3.444 3.352.73 2.696-.29 5.852-2.616.566-.39 2.261-1.561 2.091-2.376-.162-.698-1.69-.601-2.3-.916-.619-.432-1.244-.982-1.95-.937a11.31 11.31 0 00-2.82.18c-1.058.067-1.624.458-1.909 1.538zm113.375 91.547c-1.54 1.751-3.581 3.062-5.004 4.805l-.11.125c-1.196 1.611-4.744 7.031-2.371 7.233 2.256.21 5.16 1.323 6.473-.295 1.298-1.854.738-3.234 4.864-5.15 2.064-.958 3.414-7.536 3.414-7.536s-.856-2.306-2.357-3.627c-1.47-.85-4.029 3.445-4.909 4.445zm-89.492-94.607c3.044 1.458 4.29 4.329 5.035 6.76.598 1.968 3.059 1.693 4.925 1.338 1.168-.193 2.328-.503 3.394-.453 1.418.027 2.74.415 3.756 1.53 1.266 1.336 1.724 2.959 2.762 4.427.655 1.02 1.686 2.371 3.191 1.92 1.38-.56 2.701-2.061 3.975-.608 1.78 2.011 2.543 1.018 2.543 1.018.448-.383 3.95-2.849 5.803-1.551 10.76 7.693 6.012 1.74 3.216-1.386-2.797-3.126-9.687-7.525-12.814-10.276-3.126-2.751-8.956.218-12.278-.042-3.321-.259-2.45-3.266-4.342-5.151-1.89-1.886-8.809.68-10.507-.037-1.698-.718-2.544-1.018-2.686-3.251-.023-.353-.916-3.247-1.671-2.136-.323.492-.005 1.77.032 2.358.06.941.12 1.881.298 2.814.613 2.203 2.316 1.15 5.368 2.726zm-70.375-31.857l-1.528.098.015.235c.12 1.881-.23 3.792.133 5.775.37 2.101 1.776 3.781 2.381 5.867.443 1.388.76 2.666.968 4.069 0 0 5.646 12.623 12.381 10.894 4.532-1.115-3.957-8.363-7.591-11.672-3.634-3.308-4.095-6.82-2.8-10.562 1.296-3.741 4.527.655 9.785 3.506 5.257 2.851 3.184 1.803 6.968-3.632 3.028-4.324 1.082-8.921-.596-11.175-6.263 3.587-13.07 6.029-20.116 6.597zm58.485-.904c-1.686-2.371-4.597-3.601-6.51-5.84-1.524-1.673-2.684-1.363-4.868-7.833-2.302-6.462-1.188 1.729-1.278 5.865-.09 4.137 3.882 7.188 3.882 7.188 2.907 3.001 1.384 6.876 3.255 10.297.935 1.711 2.223 3.399 3.387 4.977.647.903 2.038 2.348 3.153 1.333 1.454-1.273.973-3.249.876-4.777-.24-3.762-.336-8.949-1.897-11.21zm-28.15 24.933c-1.681 1.405-3.237 2.921-4.792 4.437-2.003 1.898.115 3.651 1.176 5.472.265.455.655 1.02 1.148 1.343.868.653 1.933.703 2.881.76l.235-.015c1.536.02 3.064-.078 4.592-.175 1.058-.068 2.234-.143 3.261-.681.918-.412 1.453-1.273 2.121-1.906 1.226-1.14 1.386-2.331 1.546-3.521.502-3.219.05-6.613-.154-9.787-.36-5.642-1.115-4.532-2.206-6.823-.553-1.263-4.452.521-6.015 1.919-1.563 1.398-.48 3.571-.492 5.225.135 2.116-1.958 2.603-3.302 3.752zm11.576 24.164c-1.183-.042-3.621.586-5.96-.917-2.339-1.503-12.418-.387-12.418-.387s-3.519.343-3.236-2.626c.282-2.969-1.114-2.644-6.054-9.764-4.94-7.12-4.374-1.963-11.885-8.683-7.512-6.72-2.697.29-1.106 3.022 1.591 2.731 4.998 6.172 4.998 6.172.383.448.758.778 1.14 1.225 1.766 1.776 3.54 3.669 5.306 5.445l2.648 2.663c1 .881 2.237 1.746 2.782 2.891.545 1.146.533 2.799 1.533 3.679.876.771 2.169.688 3.22.503 4.576-.411 9.176-.468 13.878-.769 26.794-1.83 6.337-2.411 5.154-2.454zm-146.861 27.207c-.49 1.565-3.369 2.694-4.822 3.967-1.453 1.273-.868 4.894-.587 11.132.113 1.763 3.142 14.081 5.803 9.544-.008-.118 3.511-6.008 3.426-9.189-.093-3.299 2.4-6.764 3.316-9.065.915-2.301.139-5.202-2.402-9.879-2.541-4.677-4.734 3.49-4.734 3.49z"/></mask><path d="M-364.924 282.826c3.132.98-3.429 1.753-4.486 1.821-1.176.075-2.792.651-3.462-.605-.008-.117-.17-.815-.215-1.521-.098-1.528-1.128-2.878 1.87-2.126 2.286.681 4.485 1.838 6.293 2.431zm525.233 96.037c-3.714-2.714-.025 3.306-.742 5.004-.938 1.949-1.056 1.956-.09 4.137.272.573 1.04 3.356 1.643 3.554 3.367.965 3.467-1.166 4.132-3.687.665-2.521 2.518-1.223 2.406-2.986-.113-1.764-5.37-4.614-7.349-6.022zm-690.738-118.628s3.522 12.64 6.659 11.849c6.507-1.596 1.3-5.512-4.896-11.962-.507-.558-2.656-2.781-1.763.113zm260.089-115.292c-1.41.09-2.851-.29-4.364.043-1.278.317-.71 1.815-.415 2.741.435 1.27.738 2.313.938 3.599l.075 1.175c.06.941.173 2.704 1.466 2.621 1.881-.12 3.754-.358 5.628-.595.932-.178 2.02.225 2.688-.408 1.571-1.281 2.178-2.854 4.389-3.349.933-.178 3.549.127 3.577-1.291-.038-.588-1.119-6.42-2.104-7.066-2.214-1.393-7.991 2.4-11.878 2.53zm26.925 44.547c3.274-2.333 5.442-7.193 5.442-7.193s.112-9.332-3.842-4.712c0 0-4.484 3.709-4.429 6.421.18 2.821-.437 7.936 2.829 5.484zm116.936-74.395c.992.763 2.213 1.393 3.081 2.046a41.487 41.487 0 005.515 3.189c.61.315 3.419 1.788 2.594-.048-.553-1.263-1.694-2.489-2.584-3.494-1.781-2.011-1.636-3.436-1.816-6.257-.181-2.822 5.312-5.533 5.312-5.533 18.78-10.879 1.022-4.315-1.776-3.782-2.689.408-5.37.934-6.751 1.494-1.38.56-4.314 4.525-5.639 7.796-.41.971-.1 2.131.313 3.049l1.751 1.54zm-110.264 58.743c.868.653 1.743 1.423 2.273 2.333.671 1.256 1.004 2.769 1.446 4.157.753 2.549-.632 4.88-1.922 6.851-1.188 1.728-2.816 3.957-.36 5.452 3.309 1.913 7.1-3.404 10.021-5.716 2.246-1.795.883-4.659-.648-6.45-1.929-2.473-4.187-4.572-5.433-7.443-1.121-2.761-3.247-4.631-5.16-6.87-1.398-1.563-3.116-.745-3.626 2.356-.423 2.624 1.548 3.915 3.409 5.33zm-163.399 102.74c-6.167 3.227 5.603 2.711 5.603 2.711 2.366.085 4.732.17 7.003.615.72.19 1.433.262 2.043.577.978.528 1.751 1.541 2.832 1.826 1.448.498 4.179-1.093 5.567-1.536 5.905-1.794-10.412-5.944-13.279-6.469-2.866-.526-3.601-.951-9.769 2.276zm438.856 28.023c-.197.603-.277 1.198-.482 1.683-.373 1.559-.283 2.969 1.518 3.444 3.352.73 2.696-.29 5.852-2.616.566-.39 2.261-1.561 2.091-2.376-.162-.698-1.69-.601-2.3-.916-.619-.432-1.244-.982-1.95-.937a11.31 11.31 0 00-2.82.18c-1.058.067-1.624.458-1.909 1.538zm113.375 91.547c-1.54 1.751-3.581 3.062-5.004 4.805l-.11.125c-1.196 1.611-4.744 7.031-2.371 7.233 2.256.21 5.16 1.323 6.473-.295 1.298-1.854.738-3.234 4.864-5.15 2.064-.958 3.414-7.536 3.414-7.536s-.856-2.306-2.357-3.627c-1.47-.85-4.029 3.445-4.909 4.445zm-89.492-94.607c3.044 1.458 4.29 4.329 5.035 6.76.598 1.968 3.059 1.693 4.925 1.338 1.168-.193 2.328-.503 3.394-.453 1.418.027 2.74.415 3.756 1.53 1.266 1.336 1.724 2.959 2.762 4.427.655 1.02 1.686 2.371 3.191 1.92 1.38-.56 2.701-2.061 3.975-.608 1.78 2.011 2.543 1.018 2.543 1.018.448-.383 3.95-2.849 5.803-1.551 10.76 7.693 6.012 1.74 3.216-1.386-2.797-3.126-9.687-7.525-12.814-10.276-3.126-2.751-8.956.218-12.278-.042-3.321-.259-2.45-3.266-4.342-5.151-1.89-1.886-8.809.68-10.507-.037-1.698-.718-2.544-1.018-2.686-3.251-.023-.353-.916-3.247-1.671-2.136-.323.492-.005 1.77.032 2.358.06.941.12 1.881.298 2.814.613 2.203 2.316 1.15 5.368 2.726zm-70.375-31.857l-1.528.098.015.235c.12 1.881-.23 3.792.133 5.775.37 2.101 1.776 3.781 2.381 5.867.443 1.388.76 2.666.968 4.069 0 0 5.646 12.623 12.381 10.894 4.532-1.115-3.957-8.363-7.591-11.672-3.634-3.308-4.095-6.82-2.8-10.562 1.296-3.741 4.527.655 9.785 3.506 5.257 2.851 3.184 1.803 6.968-3.632 3.028-4.324 1.082-8.921-.596-11.175-6.263 3.587-13.07 6.029-20.116 6.597zm58.485-.904c-1.686-2.371-4.597-3.601-6.51-5.84-1.524-1.673-2.684-1.363-4.868-7.833-2.302-6.462-1.188 1.729-1.278 5.865-.09 4.137 3.882 7.188 3.882 7.188 2.907 3.001 1.384 6.876 3.255 10.297.935 1.711 2.223 3.399 3.387 4.977.647.903 2.038 2.348 3.153 1.333 1.454-1.273.973-3.249.876-4.777-.24-3.762-.336-8.949-1.897-11.21zm-28.15 24.933c-1.681 1.405-3.237 2.921-4.792 4.437-2.003 1.898.115 3.651 1.176 5.472.265.455.655 1.02 1.148 1.343.868.653 1.933.703 2.881.76l.235-.015c1.536.02 3.064-.078 4.592-.175 1.058-.068 2.234-.143 3.261-.681.918-.412 1.453-1.273 2.121-1.906 1.226-1.14 1.386-2.331 1.546-3.521.502-3.219.05-6.613-.154-9.787-.36-5.642-1.115-4.532-2.206-6.823-.553-1.263-4.452.521-6.015 1.919-1.563 1.398-.48 3.571-.492 5.225.135 2.116-1.958 2.603-3.302 3.752zm11.576 24.164c-1.183-.042-3.621.586-5.96-.917-2.339-1.503-12.418-.387-12.418-.387s-3.519.343-3.236-2.626c.282-2.969-1.114-2.644-6.054-9.764-4.94-7.12-4.374-1.963-11.885-8.683-7.512-6.72-2.697.29-1.106 3.022 1.591 2.731 4.998 6.172 4.998 6.172.383.448.758.778 1.14 1.225 1.766 1.776 3.54 3.669 5.306 5.445l2.648 2.663c1 .881 2.237 1.746 2.782 2.891.545 1.146.533 2.799 1.533 3.679.876.771 2.169.688 3.22.503 4.576-.411 9.176-.468 13.878-.769 26.794-1.83 6.337-2.411 5.154-2.454zm-146.861 27.207c-.49 1.565-3.369 2.694-4.822 3.967-1.453 1.273-.868 4.894-.587 11.132.113 1.763 3.142 14.081 5.803 9.544-.008-.118 3.511-6.008 3.426-9.189-.093-3.299 2.4-6.764 3.316-9.065.915-2.301.139-5.202-2.402-9.879-2.541-4.677-4.734 3.49-4.734 3.49z" stroke="#475566" stroke-opacity=".5" stroke-width="2" mask="url(#path-2-inside-2_2135_278)"/></svg>