<svg width="67" height="361" fill="none" xmlns="http://www.w3.org/2000/svg"><path opacity=".32" d="M64.67 359.497c-9.995-.233-24.857-3.636-37.73-10.883-13.758-7.746-25.145-19.822-26.005-37.017v-.016C.5 306.377.5 300.3.5 293.322c.872-42.251 8.713-113.226 18.282-146.294 3.494-10.05 7.42-24.884 10.907-41.012 3.926-17.229 7.31-36.325 8.346-54.123 1.021-17.517-.226-33.84-5.52-45.887l4.652-1.163.148-.037.103-.113L41.028.68l3.437 2.673 3.002 9.008.07.21.202.09 3.392 1.507-2.74 4.305-.115.18.052.21 3.05 12.195 2.177 10.017.093.425.434-.033 5.076-.39-.794 8.735-7.614 4.23-.214.12-.037.241-.872 5.666-.007.047.001.047.432 12.508-5.92 11.417-3.227.404-.46.057.023.464.86 17.186-5.478 4.635-.184.156.008.242.435 13.511.005.129.066.112 3.842 6.402-.033.409a87.452 87.452 0 01-.822 6.634c-.654 3.978-1.733 8.574-3.42 11.314-.828 1.345-1.681 2.543-2.498 3.688l-.098.138c-.842 1.182-1.647 2.319-2.315 3.488-1.347 2.357-2.147 4.86-1.698 8.252.111 1.657.387 3.443.686 5.216.069.41.14.82.21 1.227.234 1.366.465 2.707.631 3.978.217 1.651.32 3.143.19 4.37-.13 1.232-.487 2.116-1.109 2.649-.266.228-.486.567-.675.952a9.916 9.916 0 00-.54 1.416c-.337 1.09-.643 2.486-.92 4.068-.555 3.166-1.006 7.132-1.36 11.004a347.995 347.995 0 00-.785 10.489 372.086 372.086 0 00-.237 4.345v.017l-4.938 2.058-.443.184.166.45 3.05 8.281.05.134.113.088 3.67 2.854-1.67 7.097-.07.292.227.198 3.196 2.797-2.006 4.013-.086.171.05.184 1.278 4.686 36.854 114.97zm0 0c-4.54-2.346-10.181-4.723-15.456-5.1l-.445-.032-.02-.445-1.307-30.073v-.929l-.274-.062a312.427 312.427 0 00-7.55-1.591c-4.428-.875-9.387-1.734-11.725-1.734-2.591 0-4.25-1.305-5.244-2.591a8.43 8.43 0 01-1.265-2.334 4.46 4.46 0 01-.055-.169l-.014-.047-.004-.014v-.005l-.001-.001v-.001l.482-.132-.483.132-.01-.038-.004-.039-1.259-11.326-.194-.003a53.462 53.462 0 01-1.506-.048 29.313 29.313 0 01-1.768-.132c-.556-.062-1.092-.148-1.472-.275l-.112-.037-.083-.084c-.15-.15-.226-.36-.271-.516a4.554 4.554 0 01-.123-.628 19.704 19.704 0 01-.134-1.805c-.055-1.426-.055-3.286-.055-5.24v-.034l.003-.025.081-.818c.192-1.945.397-4.016.686-5.752.165-.991.361-1.893.605-2.612.123-.36.261-.686.422-.96.156-.265.348-.508.59-.674.124-.096.276-.291.444-.633.168-.342.33-.786.494-1.326.313-1.036.61-2.359.947-3.864l.044-.2c.707-3.152 1.588-7.019 3.14-10.344 1.517-3.251 2.491-5.848 3.085-7.629.296-.89.498-1.576.625-2.038a20.36 20.36 0 00.169-.651l.007-.03v-.001l.002-.007v-.001l39.009 102.898z" stroke="#fff"/></svg>