<svg width="289" height="358" fill="none" xmlns="http://www.w3.org/2000/svg"><path opacity=".32" d="M276.924 44.685c2.892.482 6.651.965 10.51 1.066-9.256 7.26-17.465 14.452-23.43 19.898a397.074 397.074 0 00-7.318 6.846 275.53 275.53 0 00-2.492 2.426l-.132.13-.033.033-.008.009-.003.002h0l.353.354-.353-.353-.144.143-.003.202-2.155 140.12-.004.212.15.149 23.368 23.368c-21.421 22.516-39.642 43.969-52.797 63.031-13.211 19.142-21.363 35.941-22.452 49.015l-.002.02v5.528l-63.671-44.569v-17.28l-.257-.143L.5 219.586v-38.361l43.034-66.702.139-.215-.093-.238L9.207 25.99 34.675.524l18.892 2.1 6.345 12.69.138.277h13.22l45.048 4.29 30.048 34.341.15.171h54.25l.115-.065L252.15 26.48l19.135 17.008.091.082.119.03.122-.485-.121.485h.002l.005.002.019.005.076.018.104.025.189.044c.255.06.628.145 1.103.247.949.203 2.304.474 3.93.745z" stroke="#fff"/></svg>