<svg width="320" height="360" fill="none" xmlns="http://www.w3.org/2000/svg"><path opacity=".32" d="M302.388 101.575l.013.053.025.049c4.594 9.233 6.287 19.936 7.842 29.76l.253 1.596c.814 5.11 1.632 9.948 2.864 14.125 1.227 4.161 2.878 7.721 5.391 10.259 1.033 1.415.966 3.68-.238 6.766-1.197 3.072-3.457 6.789-6.501 10.918-6.082 8.251-15.218 18.047-24.98 27.448-9.759 9.398-20.126 18.387-28.66 25.022-4.267 3.319-8.069 6.043-11.101 7.935-1.517.947-2.833 1.679-3.913 2.173-1.098.503-1.892.73-2.387.73-1.71 0-3.858.481-6.332 1.331-2.483.853-5.328 2.09-8.443 3.63-6.231 3.079-13.575 7.385-21.317 12.299-15.483 9.827-32.59 22.106-45.622 31.928-5.769 4.143-11.302 10.744-16.352 18.278-5.055 7.543-9.646 16.054-13.519 24.043-3.874 7.991-7.033 15.468-9.225 20.947a300.184 300.184 0 00-2.529 6.538 186.758 186.758 0 00-.745 2.032l-74.051-12.942 3.232-58.465.006-.113-.042-.105-22.797-55.636-.078-.189-.187-.081L.52 222.225c1.647-27.795 6.534-69.297 17.466-107.953 10.988-38.85 28.045-74.683 53.927-90.94l.007-.003.006-.005.012-.008C81.61 16.836 91.322 10.33 101.035.63l4.828 2.908c15.578 9.377 34.966 21.048 51.402 32.06 9.154 6.132 17.379 12.052 23.515 17.25 3.068 2.599 5.604 5.009 7.47 7.168 1.867 2.161 3.023 4.025 3.406 5.54.854 5.111 4.058 8.294 8.952 10.282 4.867 1.978 11.455 2.797 19.193 3.207 4.642.245 9.707.344 15.092.449 12.634.246 27.029.527 41.85 2.818l.038.006h.039c6.43 0 12.02 1.615 16.395 4.813 4.372 3.195 7.569 7.998 9.173 14.444z" stroke="#fff"/></svg>