<svg width="48" height="43" fill="none" xmlns="http://www.w3.org/2000/svg"><path d="M28.193 42.174c.022-.096.103-.229.066-.288l-2.85-19.385 1.806.921c1.748.959 3.68 1.555 5.642 1.806l4.064 6.893c.037.06.074.118.17.14l1.637.782c.133.08.288.066.465-.045.118-.073.162-.265.147-.42l-2.686-7.182 2.493-.081c.501.014 1.01-.222 1.253-.62.221-.302.406-.664.435-1.01l6.445-1.24a.335.335 0 00.28-.34c.08-.132-.03-.31-.163-.39l-4.424-2.484c-.037-.06-.096-.023-.192-.045l-6.202-.47 1.526-3.334c.103-.228-.008-.405-.177-.545l-1.409-.678a.383.383 0 00-.405.007l-3.753 2.921c-2.11-1.143-4.675-2.491-7.375-3.921l2.01-12.005c-.014-.155-.029-.31-.161-.391a2.37 2.37 0 00-3.238.465l-3.007 3.85-2.972-1.342c-.325-.125-.79-.08-1.239.119-.354.22-.693.597-.995 1.032-.207.457-.376.974-.332 1.438-.007.25.082.524.192.7.11.178.28.318.413.399l2.345.995-.582.774a626.78 626.78 0 01-7.11-3.76c-1.806-.92-3.878-1.348-5.795-1.133-.679.096-1.357.192-1.962.406-.818.265-1.415.885-1.555 1.71-.192.613-.074 1.195.258 1.726.11.177.221.354.391.494 1.128 1.017 2.375 1.961 3.547 2.787 1.269.847 2.537 1.695 3.85 2.351l7.279 3.9 2.354 5.994-1.313-.656c-.361-.184-.826-.14-1.239.118-.354.221-.693.598-.995 1.033-.428.76-.413 1.57-.08 2.101.11.177.28.317.412.398l5.28 2.278 4.56 11.753c.074.118.125.331.2.45a2.685 2.685 0 002.337 1.245c.214-.052.332-.125.354-.221zm10.026-10.208l-.686-.31-4.89-8.345a30.43 30.43 0 012.986 1.496l2.59 7.16zm4.48-11.99l3.4 1.894-6.658 1.292-6.85-4.003 10.109.816zm-5.405-4.579l-1.467 3.297-.693-.06c-.59-.287-1.254-.692-1.976-1.06l3.317-2.567.819.39zM16.159 6.79a.768.768 0 01-.296-.472c-.03-.31.096-.634.221-.958a1.91 1.91 0 01.679-.753c.177-.11.39-.162.523-.08.037.058.096.021.133.08.037.06.11.177.125.332.03.31-.095.634-.22.959-.406.663-.878.958-1.166.892zm1.01.435c.295-.184.575-.524.76-.885.206-.457.316-.937.309-1.342l1.828.825-1.526 2.021-1.371-.619zm7.07-5.488c.442-.604 1.298-.811 1.962-.406l-1.937 11.467a633.884 633.884 0 01-6.121-3.228l6.096-7.833zM1.661 6.83c.022-.096-.014-.155.045-.192.132-.575.471-.951 1.017-1.128.192.044.265.162.34.28.257.413.147.892-.266 1.15-.354.222-.855.207-1.136-.11zm7.789 6.288c-1.313-.656-2.582-1.503-3.813-2.292-1.173-.826-2.42-1.77-3.51-2.728-.038-.059-.17-.14-.207-.199.383.089.81-.015 1.224-.273.766-.48 1.046-1.475.567-2.242l-.074-.118c.369-.066.679-.096.988-.125.06-.037.096.022.155-.015-.191.612.015 1.467.642 2.47.148.236.332.531.576.789.11.177.36.184.538.074.177-.111.184-.362.074-.539C5.4 6.38 5.421 5.626 5.487 5.34c.081-.133.162-.266.258-.244 1.468-.015 2.883.413 4.292 1.09 4.639 2.433 16.689 8.846 23.112 12.296l-2.175-.2c-.192-.043-.332.126-.413.26a.528.528 0 00.03.309c.037.059.074.118.17.14l8.466 4.88.287.066.583-.118c-.022.096-.103.228-.184.361-.2.207-.436.354-.686.347l-2.743.074-.015-.155-.148-.236c-.53-.324-3.34-1.93-4.365-1.864-.155.015-.273.088-.295.184a.383.383 0 00.007.406l.826 1.452a15.428 15.428 0 01-4.72-1.643l-2.337-1.246-.03-.31a.212.212 0 00-.147-.236c-.207-.199-4.934-4.216-8.732-5.041-.096-.022-.31.03-.39.162a.543.543 0 00-.09.383l.038.06-6.637-3.399zm6.455 12.947c-.362-.184-.362-.84-.016-1.467.185-.361.443-.605.679-.752.177-.11.39-.162.523-.081.037.059.096.022.133.08.147.237.17.797-.155 1.328-.346.627-.877.959-1.164.892zm1.069.398c.295-.184.575-.523.76-.884.205-.458.316-.937.308-1.343l1.085.553 1.276 3.222-3.43-1.548zm9.11 13.913l-9.142-23.41c3.157.98 6.851 4.003 7.53 4.563l2.946 20.064c-.612-.192-1.12-.612-1.334-1.217z" fill="#475566" fill-opacity=".6"/></svg>