<svg width="50" height="38" fill="none" xmlns="http://www.w3.org/2000/svg"><path d="M8.779 36.747c.024-.095.013-.25.073-.286l11.439-15.908-2.028-.012c-1.993.048-3.983-.31-5.84-.989l-6.778 4.256c-.06.035-.12.07-.215.047l-1.813-.059c-.155.011-.286-.073-.392-.253-.071-.12-.022-.31.062-.44l5.685-5.146-2.176-1.217c-.452-.217-.796-.66-.829-1.126-.057-.37-.055-.776.078-1.098L.891 10.454a.335.335 0 01-.093-.43c-.011-.155.169-.262.324-.273l5.071-.173c.06-.035.095.024.19.049l5.725 2.431.177-3.661c.013-.25.193-.357.408-.404l1.562.045a.383.383 0 01.357.193l1.991 4.319c2.398-.046 5.298-.065 8.352-.095L28.685.868c.085-.13.169-.261.324-.272a2.37 2.37 0 012.661 1.9l.903 4.802 3.256.174c.346.038.738.29 1.046.674.213.36.34.85.41 1.374-.027.501-.114 1.038-.367 1.43a1.343 1.343 0 01-.492.534 1.31 1.31 0 01-.55.164l-2.54-.194.162.955c3.305-.016 6.204-.035 8.041-.072 2.028.012 4.065.584 5.67 1.655.558.397 1.116.794 1.555 1.262.605.612.85 1.437.595 2.235-.11.631-.483 1.095-1.022 1.413-.18.107-.359.213-.574.26-1.47.385-3.01.65-4.431.845-1.516.17-3.032.34-4.5.32l-8.256.119-4.845 4.242 1.467.021c.406.002.798.255 1.046.674.213.36.341.85.41 1.375.03.87-.355 1.584-.894 1.903a1.31 1.31 0 01-.55.164l-5.736-.403-9.45 8.344c-.12.07-.264.237-.384.308a2.685 2.685 0 01-2.648.032c-.167-.144-.237-.264-.213-.359zM4.564 23.074l.751.04 8.179-5.166a30.41 30.41 0 00-3.34-.043l-5.59 5.169zm1.53-12.71l-3.89.121 5.32 4.207 7.924-.407-9.355-3.92zm6.904-1.581l-.212 3.601.643.266c.656.016 1.432-.039 2.243-.034l-1.767-3.804-.907-.03zm22.728 2.065a.768.768 0 00.479-.284c.168-.261.206-.607.244-.953a1.902 1.902 0 00-.257-.98c-.106-.18-.273-.323-.428-.312-.06.035-.095-.025-.155.01a.756.756 0 00-.264.238c-.168.261-.206.607-.244.953.055.776.339 1.254.625 1.328zm-1.097-.078c-.178-.3-.27-.73-.268-1.135.027-.501.149-.978.342-1.335l-2.004-.107.427 2.496 1.503.08zM30.87 2.647c-.115-.74-.78-1.317-1.556-1.262L25.767 12.46c2.339-.01 4.677-.02 6.92-.055L30.87 2.647zm17.714 14.897c.024-.095.084-.13.048-.19.147-.572.019-1.062-.385-1.47-.19-.05-.31.022-.43.092-.419.249-.54.725-.293 1.144.213.36.665.577 1.06.424zm-9.807 2.007c1.467.02 2.984-.15 4.44-.285 1.42-.194 2.961-.46 4.371-.81.06-.035.215-.046.275-.081-.381-.098-.713-.386-.962-.805-.46-.778-.252-1.791.526-2.252l.12-.07a11.3 11.3 0 00-.82-.566c-.035-.06-.095-.025-.13-.085-.111.632-.688 1.297-1.706 1.9-.24.141-.538.318-.873.436-.18.106-.406-.003-.512-.182-.106-.18.002-.406.182-.512 1.782-.813 2.108-1.491 2.182-1.777-.011-.155-.023-.31-.118-.335-1.296-.687-2.75-.958-4.313-1.003-5.237.029-18.887.188-26.177.3l2.023.824c.19.049.237.264.248.419a.527.527 0 01-.168.261c-.06.036-.12.071-.215.047l-9.762.444-.286-.073-.463-.373c-.024.096-.013.25-.002.406.082.275.223.514.45.623l2.402 1.326.084-.13.24-.142c.62-.044 3.854-.18 4.734.35.13.084.201.203.177.299a.382.382 0 01-.193.357l-1.401.91c1.595.51 3.264.735 4.947.709l2.649-.033.168-.261a.212.212 0 01.24-.142c.274-.082 6.32-1.478 10.072-.466.095.024.261.169.272.324a.543.543 0 01-.098.38l-.06.036 7.457.032zm-11.682 8.534c.406.002.707-.58.688-1.297a1.901 1.901 0 00-.257-.98c-.106-.18-.273-.323-.428-.312-.06.035-.095-.025-.155.01-.24.143-.517.63-.473 1.25.02.717.34 1.255.625 1.329zm-1.133-.138c-.177-.3-.27-.73-.267-1.135.026-.501.149-.978.341-1.334l-1.216-.007-2.614 2.275 3.756.2zM11.48 36.118l18.875-16.592c-3.253-.58-7.924.407-8.784.593L9.734 36.586c.632.11 1.277-.029 1.745-.468z" fill="#475566" fill-opacity=".6"/></svg>