<svg width="240" height="373" fill="none" xmlns="http://www.w3.org/2000/svg"><g opacity=".4" fill="#475566"><path d="M12.49 36.813l5.106-5.755c.218-.24.465-.325.718-.297a.803.803 0 01.778.015l6.78 3.374c.234.097.358.314.413.513l.42 2.181c.094.58-.5 1.093-1.149.89l-6.118-.872-5.408 3.161c-.485.394-1.248.197-1.368-.426l-.42-2.18c.015-.182.05-.432.247-.604zm3.023-23.356c.298.002.783.127 1.086.242l16.37 6.693c.302.115.545.436.65.723l.383 1.394c.105.286-.113.526-.41.523l-16.428.548c-.297-.002-.773.097-1.065.207L.81 29.736c-.292.11-.55-.03-.565-.368l-.121-1.141c-.06-.312.128-.708.345-.948l13.635-13.186c.217-.24.593-.513.886-.623l.524-.013z"/><path d="M28.244 21.027l2.56-.489-.46-2.561c-.1-.692-.713-.628-1.417-.513-.703.115-1.242.31-1.142 1.002l.46 2.561zm-5.263-2.169l2.56-.489-.46-2.56c-.1-.693-.714-.629-1.417-.514-.703.115-1.243.31-1.143 1.002l.46 2.561zM5.69 25.55l-2.56.49-.459-2.562c-.1-.692.44-.886 1.143-1.002.703-.115 1.292-.222 1.417.513l.46 2.562zm4.08-4.243l-2.56.489-.46-2.561c-.1-.693.445-.774 1.148-.89.704-.115 1.243-.31 1.413.4l.46 2.562zm7.587 12.021l2.165 6.369c.085.355.437.556.823.508.361-.092.643-.427.558-.782l-.194-6.75c-.154-.891-1.412-.4-1.773-.308-.431.074-1.778.097-1.579.963z"/><path d="M10.868 10.3l5.942 24.553c.175.822.928 1.312 1.676 1.172l2.015-.407c.748-.14 1.262-.897 1.176-1.77 0 0-3.03-24.841-3.065-25.11a12.441 12.441 0 00-1.334-4.192c-.373-.652-.79-1.277-1.271-1.808-.869-1-2.283-2.957-3.678-1.465-1.023 1.107-1.436 3.073-1.647 4.463a11 11 0 00.186 4.563zm174.124 349.865c.283.184.669.135.862-.149.192-.283.152-.664-.131-.848-.639-.497-1.324-.97-1.963-1.467-.283-.184-.669-.135-.862.148-.193.284-.152.664.086.874a23.08 23.08 0 012.008 1.442zm4.061 2.859l2.053 1.416c.282.184.669.135.861-.148.193-.284.128-.708-.13-.848-.684-.472-1.344-.901-2.028-1.373-.282-.184-.669-.135-.861.148-.287.222-.203.577.105.805zm-9.913-7.401c.283.184.625.161.862-.148.218-.24.197-.69-.086-.873a41.984 41.984 0 01-1.899-1.563c-.263-.252-.649-.204-.886.105a.589.589 0 00.085.874c.595.523 1.26 1.064 1.924 1.605zm16.086 11.469c.729.447 1.413.919 2.117 1.322.282.184.688.067.881-.217.193-.284.128-.707-.199-.866-.704-.403-1.389-.875-2.093-1.278-.282-.184-.688-.067-.881.217a.575.575 0 00.175.822zm6.346 3.854s.024.044.069.018c.704.403 1.433.85 2.181 1.228.283.184.689.066.857-.261a.578.578 0 00-.244-.84 83.658 83.658 0 01-2.137-1.253c-.283-.184-.689-.066-.881.217-.213.353-.128.708.155.891zm-28.066-20.104c.283.184.625.161.842-.079a.652.652 0 00-.041-.899c-.62-.567-1.215-1.09-1.835-1.657-.238-.21-.649-.204-.867.036a.58.58 0 00.016.855c.62.567 1.216 1.091 1.836 1.657-.02.069.024.044.049.087zm-5.396-5.09c.213.165.599.117.797-.054a.654.654 0 00.028-.881 151.654 151.654 0 00-1.701-1.734c-.194-.235-.63-.273-.892-.007-.262.265-.291.628-.028.881l1.726 1.777.07.018zm-5.135-5.357c.213.166.555.143.797-.054.287-.222.291-.628.028-.881-.53-.618-1.106-1.21-1.637-1.828-.218-.278-.629-.273-.872-.076a.614.614 0 00-.097.863c.531.618 1.061 1.236 1.637 1.828.074.13.144.148.144.148zm-4.759-5.629c.213.166.511.168.753-.029.287-.222.316-.585.098-.863-.487-.643-1.018-1.261-1.529-1.948-.218-.278-.585-.299-.897-.12-.287.223-.316.585-.142.889.487.644.998 1.33 1.529 1.948.094.061.119.105.188.123zm-4.427-5.878c.213.166.51.169.708-.003.287-.222.361-.61.167-.845-.442-.669-.953-1.356-1.395-2.025-.218-.278-.565-.367-.852-.145a.56.56 0 00-.167.845c.442.669.909 1.382 1.395 2.025.025.044.05.087.144.148zm-4.076-6.194c.188.122.441.15.663.023.312-.179.386-.567.212-.871l-.124-.217c-.373-.651-.765-1.234-1.137-1.885-.174-.304-.565-.367-.833-.214a.618.618 0 00-.236.828c.372.651.72 1.258 1.137 1.884l.124.217c.075.13.124.217.194.235zm-3.606-6.406c.188.122.441.15.664.022.311-.179.454-.549.281-.853-.353-.72-.731-1.483-1.084-2.203-.173-.304-.545-.437-.812-.284-.312.179-.455.55-.306.81l1.083 2.204c.03.155.124.217.174.304zm-3.141-6.731c.188.122.397.176.619.048a.637.637 0 00.351-.835c-.309-.746-.617-1.492-.95-2.281a.624.624 0 00-.793-.352.638.638 0 00-.375.792c.308.746.641 1.535.949 2.28.055.199.105.286.199.348zm-2.601-6.926a.647.647 0 00.574.074c.337-.135.505-.462.376-.792a39.587 39.587 0 01-.747-2.339c-.085-.355-.456-.487-.773-.421a.696.696 0 00-.445.774c.219.797.483 1.568.772 2.383.054.199.149.26.243.321zm-2.151-7.068a.58.58 0 00.53.099c.362-.092.53-.419.445-.774-.219-.796-.369-1.575-.588-2.372-.085-.355-.412-.513-.729-.447a.62.62 0 00-.47.731c.175.822.394 1.619.613 2.416.03.155.105.286.199.347zm-1.542-7.245c.119.105.303.115.486.125.317-.067.554-.376.514-.756-.15-.779-.28-1.627-.385-2.431-.06-.312-.368-.539-.709-.516a.702.702 0 00-.539.713c.105.804.28 1.626.41 2.474-.015.182.129.33.223.391zm-29.341-22.024c.283.183.669.135.862-.149.192-.283.152-.664-.13-.848-.685-.472-1.324-.97-1.964-1.467a.7.7 0 00-.887.105c-.192.283-.152.664.086.873.684.472 1.349 1.013 2.033 1.486zm4.036 2.815c.684.472 1.413.919 2.097 1.391.283.184.689.066.882-.217.192-.284.108-.639-.2-.866-.659-.429-1.388-.875-2.072-1.348-.283-.183-.669-.135-.862.149-.168.327-.127.707.155.891zm-9.888-7.357c.283.184.625.161.842-.079a.589.589 0 00-.085-.874c-.595-.523-1.26-1.064-1.855-1.587-.263-.253-.65-.204-.911.061a.653.653 0 00.04.899c.685.472 1.28.996 1.969 1.58-.024-.043-.024-.043 0 0zm16.214 11.28s.025.044.07.018c.704.403 1.477.824 2.181 1.228.283.183.688.066.856-.261a.577.577 0 00-.244-.84c-.704-.404-1.452-.781-2.156-1.185-.283-.183-.689-.066-.881.218-.149.258-.108.638.174.822zm-21.72-16.25c.214.166.6.117.843-.08a.58.58 0 00-.016-.855c-.576-.592-1.171-1.116-1.746-1.708-.264-.253-.63-.273-.892-.007-.262.265-.291.628-.028.881.575.592 1.15 1.184 1.77 1.751l.07.018zm28.279 19.752c.024.043.069.018.094.061.748.378 1.497.755 2.265 1.064a.616.616 0 00.832-.304.582.582 0 00-.289-.815c-.724-.334-1.472-.712-2.221-1.089-.327-.159-.663-.023-.856.26-.168.327-.063.613.175.823zm-33.388-25.065c.213.166.555.143.797-.054.287-.222.292-.628.073-.907l-1.593-1.853c-.218-.278-.629-.273-.871-.076a.614.614 0 00-.098.863c.53.618 1.087 1.279 1.618 1.897-.02.069.05.087.074.13zm40.153 28.101c.025.044.094.062.094.062l2.305.926a.653.653 0 00.807-.348.614.614 0 00-.333-.789l-2.305-.926a.653.653 0 00-.807.348.685.685 0 00.239.727zM86.17 245.745c.213.166.51.168.752-.028.287-.223.361-.611.143-.889a36.15 36.15 0 01-1.44-1.999c-.218-.279-.61-.342-.852-.146-.287.223-.36.611-.167.846.486.643.953 1.355 1.44 1.999.03.156.099.174.124.217zm49.505 35.246a.453.453 0 00.416.107c.342-.023.579-.332.564-.669-.061-.83-.166-1.634-.202-2.421-.015-.337-.323-.564-.664-.541-.342.023-.624.358-.564.669l.182 2.49c.05.087.149.26.268.365zm2.384 1.169c.025.043.095.061.164.079.788.24 1.601.523 2.388.763a.651.651 0 00.782-.391.61.61 0 00-.377-.764l-2.364-.719a.601.601 0 00-.782.391c-.128.189-.068.501.189.641zm-56.074-42.489c.188.122.485.125.708-.003.312-.179.385-.567.212-.871-.442-.669-.864-1.407-1.262-2.101-.174-.304-.565-.368-.832-.215a.618.618 0 00-.237.828c.422.738.864 1.407 1.287 2.145.005.112.074.13.124.217zm63.255 44.596c.069.018.119.105.232.097.833.214 1.641.385 2.473.599.347.089.678-.158.757-.434a.566.566 0 00-.467-.713c-.807-.171-1.64-.385-2.403-.581-.347-.089-.703.115-.757.434-.128.189-.049.432.165.598zm-66.886-51.046c.188.122.441.15.664.023.311-.179.454-.55.28-.853-.352-.721-.73-1.484-1.082-2.204-.13-.33-.546-.437-.813-.283-.337.135-.455.549-.306.809l1.083 2.204c.03.156.08.243.174.304zm56.983 40.354c.094.061.233.097.371.132.342-.023.604-.288.633-.651.009-.812.018-1.624.001-2.48-.015-.337-.233-.615-.6-.636a.725.725 0 00-.658.608c-.008.813-.037 1.694-.001 2.48a.521.521 0 00.254.547zm17.196 12.273a.693.693 0 00.233.097c.852.145 1.635.272 2.487.418.322.045.678-.159.707-.522.054-.319-.144-.666-.511-.687-.827-.101-1.635-.272-2.443-.443-.322-.046-.678.159-.732.478-.009.294.07.536.259.659zm-77.206-59.366c.189.123.397.176.575.074a.639.639 0 00.375-.792c-.308-.745-.572-1.517-.836-2.288-.13-.329-.456-.487-.793-.352-.336.136-.504.463-.375.792.264.771.552 1.586.86 2.331.05.087.1.174.194.235zm84.637 60.464c.094.061.188.122.302.114.828.102 1.699.179 2.502.237.366.02.653-.202.682-.565.03-.362-.233-.615-.555-.661-.803-.058-1.63-.16-2.502-.236a.616.616 0 00-.683.564c-.014.182.11.399.254.547zm-24.396-20.826c.094.061.188.122.302.115.367.02.629-.246.683-.565a28.75 28.75 0 01.253-2.452.58.58 0 00-.555-.661c-.367-.02-.654.202-.683.564-.123.82-.176 1.658-.229 2.496-.015.181.11.398.229.503zm31.891 21.311a.606.606 0 00.346.089c.847.033 1.694.066 2.517.055.366.02.628-.245.657-.608a.682.682 0 00-.6-.636 29.318 29.318 0 01-2.472-.08c-.366-.021-.628.245-.657.608-.079.276.045.493.209.572zm-94.466-68.027c.12.104.327.158.53.099.362-.092.554-.376.47-.731l-.03-.155c-.17-.71-.364-1.464-.559-2.217-.06-.311-.411-.513-.728-.447a.62.62 0 00-.47.731l.583 2.26c.01.225.085.355.204.46zm101.984 68.037c.094.061.258.14.372.132.867-.036 1.664-.09 2.531-.126.341-.023.603-.289.608-.695-.016-.337-.323-.564-.665-.541-.842.08-1.664.09-2.461.144-.342.023-.604.289-.633.652.005.112.104.286.248.434zM71.431 212.228c.12.104.303.115.486.125a.702.702 0 00.539-.713l-.316-2.413a.568.568 0 00-.709-.516c-.342.023-.579.332-.539.713.106.804.236 1.652.34 2.456-.038.138.08.243.2.348zm65.126 46.521c.094.061.163.079.257.14a.654.654 0 00.708-.521c.122-.82.314-1.622.462-2.398.054-.32-.145-.667-.467-.713-.322-.046-.678.159-.732.478-.167.846-.315 1.622-.482 2.467-.059.207.065.424.254.547zm45.908 28.027a.456.456 0 00.416.108c.842-.08 1.659-.203 2.521-.351a.703.703 0 00.539-.713c-.06-.312-.368-.539-.71-.516-.817.123-1.634.246-2.476.326-.341.023-.579.332-.563.669.079.243.154.373.273.477zM70.707 204.86c.119.105.258.14.416.107.342-.023.604-.289.633-.651-.06-.83-.052-1.643-.043-2.455-.016-.337-.279-.59-.645-.61-.342.023-.604.289-.633.652.016.855.007 1.667.068 2.497-.06.207.04.381.204.46zm67.483 46.61c.069.017.119.104.233.097.346.089.703-.116.757-.435l.138-.483c.177-.62.399-1.267.576-1.887.099-.345-.075-.649-.422-.738a.602.602 0 00-.757.434c-.222.647-.399 1.267-.596 1.957l-.138.483c-.084.163-.005.406.209.572zm51.712 34.037a.612.612 0 00.486.125c.837-.192 1.629-.358 2.466-.55a.62.62 0 00.469-.731c-.06-.311-.412-.513-.729-.446-.812.235-1.604.401-2.441.593a.602.602 0 00-.469.731c.025.043.124.217.218.278zM70.779 197.438c.095.061.189.123.347.089.367.021.629-.245.658-.608.053-.837.131-1.632.184-2.469.03-.363-.233-.616-.555-.662-.367-.02-.63.246-.683.565-.053.838-.176 1.658-.229 2.495-.01.294.09.468.278.59zm69.782 46.905c.025.044.094.062.163.079a.652.652 0 00.807-.347c.331-.767.617-1.507.948-2.274.123-.301.013-.699-.333-.789a.654.654 0 00-.807.348 52.918 52.918 0 00-.967 2.342c-.129.189-.024.475.189.641zm56.634 39.228c.164.079.372.133.575.074a36.94 36.94 0 002.43-.818c.337-.136.505-.463.376-.792-.13-.33-.457-.488-.793-.352-.788.278-1.575.557-2.387.792a.696.696 0 00-.444.774c.074.131.149.261.243.322zM71.63 190.032a.871.871 0 00.302.114.653.653 0 00.707-.521c.123-.82.315-1.622.437-2.442.054-.319-.144-.666-.466-.712-.322-.046-.679.159-.733.478-.167.845-.314 1.622-.481 2.467-.034.25.045.493.234.616zm132.663 90.85c.189.122.397.176.62.048.762-.322 1.544-.713 2.281-1.079.312-.179.455-.549.306-.809-.129-.33-.545-.437-.813-.284-.737.366-1.499.688-2.237 1.054a.636.636 0 00-.35.835c.05.087.099.173.193.235zm-60.618-43.4c.025.044.07.018.095.062.327.158.663.022.831-.305.4-.748.756-1.471 1.181-2.176.168-.327.038-.656-.244-.84-.328-.158-.689-.066-.857.261l-1.2 2.245a.628.628 0 00.194.753zm-70.412-54.73c.069.018.119.105.233.097.346.09.703-.115.757-.434.192-.802.453-1.586.714-2.37a.611.611 0 00-.377-.764.652.652 0 00-.782.391c-.262.784-.498 1.612-.735 2.439-.103.233-.024.475.19.641zm137.751 94.677c.189.122.441.15.664.023.757-.435 1.445-.887 2.202-1.322.312-.178.385-.567.212-.871-.219-.278-.566-.367-.877-.188-.688.452-1.401.861-2.158 1.295a.617.617 0 00-.236.828c.074.13.099.174.193.235zm-63.545-46.448c.025.044.025.044 0 0 .308.227.714.11.906-.174.425-.705.919-1.392 1.414-2.079.192-.284.152-.664-.131-.848-.282-.184-.668-.135-.861.148-.494.688-.964 1.418-1.413 2.08-.213.352-.128.707.085.873zm-71.766-55.337c.025.043.094.061.164.079a.652.652 0 00.806-.348l.992-2.298c.124-.302.014-.7-.288-.815-.302-.115-.708.003-.832.304l-.992 2.299c-.168.327-.063.613.15.779zm141.585 97.551c.213.166.51.168.753-.029a43.318 43.318 0 001.983-1.599.614.614 0 00.098-.863c-.218-.279-.629-.273-.872-.077-.638.539-1.301 1.035-1.939 1.574-.287.223-.316.585-.142.889.025.043.094.061.119.105zm-65.366-48.286c.283.184.669.135.862-.148.519-.644 1.038-1.288 1.626-1.914a.587.587 0 00-.085-.873c-.263-.253-.649-.204-.887.105-.563.669-1.082 1.313-1.601 1.957-.218.24-.178.62.085.873zm-73.01-56.065c.025.044.07.018.094.061.327.159.689.067.857-.26.4-.749.825-1.454 1.25-2.159.192-.283.082-.682-.2-.866-.283-.183-.689-.066-.881.218-.425.705-.87 1.479-1.27 2.227-.193.284-.088.57.15.779zm144.114 99.386c.213.166.599.118.797-.054a45.032 45.032 0 001.79-1.834c.218-.24.222-.646-.016-.855-.238-.21-.649-.205-.867.036-.588.626-1.157 1.182-1.745 1.808a.655.655 0 00-.029.882c.045-.026.07.017.07.017zm-66.061-48.982c.214.166.6.117.842-.08.614-.582 1.157-1.183 1.771-1.765.262-.266.291-.629.028-.881-.263-.253-.629-.273-.891-.008-.614.583-1.227 1.165-1.815 1.791a.58.58 0 00.016.856l.049.087zM82.939 162.44c.282.184.669.135.861-.148.193-.284.386-.567.603-.808.302-.403.603-.807.93-1.167.192-.284.152-.664-.086-.874-.283-.183-.669-.135-.862.149l-.904 1.211c-.193.283-.386.567-.603.807-.262.266-.222.646.06.83zm145.155 100.172c.282.184.668.136.861-.148l.475-.618c.365-.498.687-.971 1.052-1.469.193-.284.108-.639-.13-.848-.282-.184-.669-.135-.861.148-.322.473-.643.946-1.033 1.4l-.43.593c-.282.335-.242.715.066.942-.025-.043-.025-.043 0 0zm-65.535-48.477c.213.166.555.143.753-.028.638-.539 1.301-1.035 1.964-1.531.287-.222.316-.585.142-.889-.218-.278-.585-.298-.896-.119a44.029 44.029 0 00-1.984 1.599c-.287.223-.316.585-.098.864.025.043.05.086.119.104zm-71.364-52.05l1.77 1.232c.282.184.688.067.881-.217.193-.283.153-.664-.2-.866a66.351 66.351 0 01-1.745-1.189l-.282-.184c-.283-.184-.67-.135-.862.149-.193.283-.152.664.086.873l.352.202zm-4.126-3.283c.282.184.624.16.841-.08a.653.653 0 00-.04-.899c-.596-.523-1.216-1.09-1.836-1.656-.238-.21-.649-.205-.866.036a.58.58 0 00.016.855c.62.567 1.24 1.134 1.835 1.657l.05.087zm10.253 6.858c.025.044.07.018.094.062a30.47 30.47 0 002.374.944.601.601 0 00.782-.391.566.566 0 00-.377-.764 61.57 61.57 0 01-2.28-.883.615.615 0 00-.832.305c-.103.232.001.518.24.727zm-15.561-12c.213.166.555.143.797-.054.262-.265.291-.628.029-.881l-1.682-1.802c-.194-.235-.63-.273-.892-.008-.287.223-.291.629-.028.881l1.682 1.803c.044-.026.07.018.094.061zm5.938 2.935c.283.184.624.161.842-.08.588-.625 1.157-1.182 1.746-1.808.262-.266.246-.603.028-.881-.263-.253-.63-.273-.892-.008a45.788 45.788 0 00-1.79 1.835.58.58 0 00.017.855l.05.087zm-10.94-8.368c.214.166.556.143.798-.054.287-.222.291-.628.073-.906-.53-.618-1.106-1.21-1.637-1.828-.219-.279-.63-.273-.872-.077a.616.616 0 00-.098.864 40.3 40.3 0 001.638 1.828l.099.173zm27.713 19.384c.095.062.189.123.303.115.871.077 1.718.109 2.61.117.342-.023.604-.289.633-.652-.015-.337-.278-.589-.645-.61-.822.011-1.6-.004-2.427-.106a.616.616 0 00-.683.564c-.034.251.065.424.209.572zm-32.54-25.031c.213.166.555.143.752-.029a.614.614 0 00.098-.863c-.53-.618-1.062-1.236-1.548-1.879-.218-.278-.585-.299-.872-.076-.287.222-.316.585-.098.863.531.618 1.018 1.261 1.574 1.923.024.043.05.086.094.061zM232.17 256.295c.025.044.069.018.094.061.327.159.689.067.857-.26l1.2-2.246a.58.58 0 00-.289-.814.614.614 0 00-.832.304c-.355.723-.755 1.471-1.155 2.22-.173.214-.088.569.125.735zm-63.486-46.654c.213.166.51.168.708-.003a40.06 40.06 0 012.133-1.339c.312-.179.385-.567.212-.871-.174-.304-.566-.368-.877-.189-.758.435-1.445.887-2.178 1.365-.311.179-.385.567-.211.871.094.061.144.148.213.166zM67.262 136.899c.213.166.51.168.753-.028.287-.223.316-.585.098-.864-.487-.643-1.018-1.261-1.529-1.948-.218-.278-.585-.298-.897-.119-.287.222-.316.585-.142.888.486.644 1.042 1.305 1.529 1.949.094.061.163.079.188.122zm44.643 29.849c.189.123.397.176.575.074a23.117 23.117 0 002.346-1.173c.312-.179.385-.567.212-.871-.174-.304-.566-.368-.877-.189-.713.409-1.45.775-2.168 1.071a.638.638 0 00-.375.792c.143.148.193.235.287.296zm-49.14-35.744c.214.166.51.168.753-.029.287-.222.36-.61.142-.888a39.914 39.914 0 01-1.439-2 .634.634 0 00-.897-.119c-.287.222-.36.61-.142.888.486.644.998 1.331 1.484 1.974.005.112.03.156.1.174zm30.503 20.435c.213.166.555.143.753-.028.638-.539 1.301-1.035 1.964-1.531.287-.222.36-.61.142-.889a.634.634 0 00-.897-.119 37.97 37.97 0 00-2.008 1.556c-.287.222-.316.585-.098.863.05.087.075.13.144.148zm-34.865-26.407a.56.56 0 00.708-.003c.287-.222.36-.611.167-.845-.442-.669-.953-1.356-1.395-2.025-.174-.304-.565-.368-.852-.145-.287.222-.386.567-.167.845.442.669.953 1.356 1.395 2.025.05.086.119.104.144.148zm176.951 124.42c.025.043.094.061.163.079a.6.6 0 00.782-.391c.306-.81.567-1.594.829-2.378a.61.61 0 00-.378-.763.6.6 0 00-.757.434 52.771 52.771 0 01-.809 2.309c-.148.258-.088.57.17.71zm-60.123-43.568c.188.122.441.15.664.023a45.932 45.932 0 012.281-1.079.636.636 0 00.351-.835.558.558 0 00-.813-.283c-.762.322-1.544.713-2.326 1.104-.312.179-.455.549-.281.853-.02.069.03.156.124.217zM54.262 118.932a.56.56 0 00.708-.003c.312-.179.386-.567.212-.871l-1.35-2.05c-.174-.304-.566-.368-.877-.189-.312.179-.386.567-.212.871l1.35 2.05c.05.087.144.149.17.192zm63.798 43.477c.283.184.624.161.842-.079.435-.48.845-1.004 1.256-1.528.128-.189.281-.335.365-.498.193-.284.153-.664-.13-.848-.282-.184-.669-.135-.861.149-.084.163-.238.309-.366.498a23.29 23.29 0 01-1.147 1.407.652.652 0 00.041.899c-.044.026-.044.026 0 0zM50.3 112.73c.188.122.441.15.708-.003.312-.179.386-.567.212-.871-.442-.669-.864-1.407-1.261-2.101-.174-.304-.566-.368-.877-.189-.312.179-.386.567-.212.871.397.695.864 1.407 1.261 2.101.05.087.12.105.169.192zm49.192 34.388c.189.123.441.151.619.048l.089-.051c.669-.383 1.381-.792 2.074-1.132.312-.179.455-.549.281-.853-.174-.304-.546-.436-.857-.258-.738.366-1.495.8-2.207 1.209-.312.179-.43.593-.281.853.163.08.257.141.282.184zm-53-40.736a.63.63 0 00.663.023.617.617 0 00.236-.827l-1.216-2.127c-.174-.304-.521-.394-.833-.215-.312.179-.41.524-.236.828.397.694.82 1.432 1.216 2.127.05.087.12.105.17.191zm135.733 96.527a.649.649 0 00.574.073c.788-.278 1.575-.557 2.387-.792.361-.092.504-.463.444-.774-.085-.355-.456-.488-.773-.421-.812.235-1.599.514-2.431.818-.336.135-.504.462-.375.792-.039.138.08.242.174.304zm55.178 39.371c.094.061.164.079.233.097.322.046.678-.159.732-.478a66.86 66.86 0 00.457-2.511.612.612 0 00-.511-.686.654.654 0 00-.708.521c-.122.82-.27 1.596-.437 2.441-.034.251.046.493.234.616zM42.905 99.907c.188.122.441.15.664.023.311-.18.41-.524.28-.853-.397-.695-.774-1.458-1.172-2.153-.173-.304-.52-.393-.857-.258-.312.18-.455.55-.28.853.352.72.774 1.459 1.171 2.153.075.13.125.217.194.235zm78.929 56.07c.069.018.094.061.188.123.347.089.704-.116.758-.435.281-.853.448-1.698.545-2.562.03-.362-.189-.641-.555-.661-.367-.02-.654.202-.683.565-.103.751-.25 1.527-.467 2.286-.079.276.026.562.214.684zm-15.467-11.939a.582.582 0 00.53.1 25.714 25.714 0 012.397-.568.702.702 0 00.538-.713c-.06-.312-.367-.539-.709-.516-.817.123-1.654.315-2.51.576-.361.092-.529.419-.445.774.03.156.105.286.199.347zm83.145 56.822a.612.612 0 00.486.125 2.51 2.51 0 01.589-.107 25.543 25.543 0 011.882-.33.703.703 0 00.539-.713c-.06-.312-.368-.539-.71-.516-.633.133-1.292.223-1.881.33-.203.059-.431.075-.634.133-.361.092-.554.376-.469.731-.04.138.035.268.198.347zM39.477 93.398c.189.123.441.15.664.023.312-.179.455-.55.28-.853-.352-.72-.73-1.484-1.082-2.204-.174-.304-.546-.436-.858-.257-.311.178-.454.549-.28.853.352.72.73 1.483 1.083 2.203.05.087.099.174.193.235zm198.846 141.493c.094.061.233.097.371.133.367.02.629-.246.658-.608.053-.838.037-1.694.001-2.48-.015-.337-.278-.59-.645-.61-.341.023-.603.288-.633.651a22.39 22.39 0 01-.025 2.437c-.015.181.084.355.273.477zm-124.493-91.56a.874.874 0 00.302.114c.828.102 1.591.299 2.265.546a.653.653 0 00.807-.348.614.614 0 00-.334-.789 12.82 12.82 0 00-2.541-.617.654.654 0 00-.708.522.523.523 0 00.209.572zm7.809 5.378c.189.122.441.15.62.048.336-.135.479-.506.305-.81a7.414 7.414 0 00-1.424-2.18c-.219-.278-.63-.273-.872-.076a.614.614 0 00-.098.863c.506.574.923 1.2 1.207 1.902.119.105.168.192.262.253zm-85.392-61.99c.189.122.441.15.62.048.336-.136.454-.55.305-.81-.352-.72-.685-1.51-1.038-2.23a.558.558 0 00-.813-.282c-.337.135-.48.506-.306.81.353.72.686 1.508 1.039 2.229.005.112.124.217.193.234zm160.688 113.053a.453.453 0 00.416.107c.842-.079 1.664-.09 2.487-.1.341-.023.603-.289.633-.652-.016-.337-.279-.59-.645-.61-.822.011-1.689.047-2.531.126-.342.023-.648.315-.608.695.03.156.129.329.248.434zm40.935 27.71c.119.105.303.115.486.125a.7.7 0 00.539-.712 44.654 44.654 0 00-.48-2.493c-.085-.355-.412-.513-.729-.447a.62.62 0 00-.469.731c.15.779.324 1.601.474 2.38-.059.207.06.312.179.416zM33.176 80.005c.188.123.396.176.62.049a.636.636 0 00.35-.836 39.592 39.592 0 00-.995-2.254c-.129-.33-.5-.463-.837-.327a.637.637 0 00-.35.835c.308.746.64 1.535.994 2.255.074.13.124.217.218.278zm171.303 119.821c.094.061.188.122.302.114.802.059 1.63.161 2.457.263a.654.654 0 00.707-.522.613.613 0 00-.511-.687c-.827-.101-1.654-.203-2.526-.28-.367-.02-.654.202-.683.565-.014.181.065.424.254.547zm31.443 20.529c.189.123.397.176.62.048a.636.636 0 00.35-.835c-.333-.789-.641-1.535-1.019-2.298-.129-.329-.545-.437-.857-.258-.312.179-.455.55-.281.853.353.721.705 1.441.969 2.212.03.156.124.217.218.278zM30.352 73.208c.188.122.396.176.62.048a.637.637 0 00.35-.835 47.003 47.003 0 01-.906-2.306.624.624 0 00-.793-.352.639.639 0 00-.375.792c.308.745.597 1.56.905 2.306.03.155.105.286.199.347zm181.513 127.741c.07.018.164.079.233.097.808.171 1.596.411 2.384.65a.65.65 0 00.782-.391.611.611 0 00-.378-.763 58.37 58.37 0 00-2.453-.668c-.347-.09-.703.115-.757.434a.536.536 0 00.189.641zm20.496 12.974a.559.559 0 00.708-.003c.287-.222.361-.61.167-.845l-.804-1.095a9.011 9.011 0 00-.749-.897c-.218-.278-.629-.273-.872-.076a.614.614 0 00-.097.863c.218.279.506.575.724.853.243.322.511.687.779 1.052.05.087.119.105.144.148zm-13.394-10.591c.024.043.069.018.094.061.723.334 1.472.712 2.196 1.046.327.159.688.067.856-.26.168-.327.039-.657-.244-.841-.748-.377-1.497-.755-2.29-1.107a.616.616 0 00-.832.304c-.123.302-.038.656.22.797zM27.707 66.308a.65.65 0 00.574.074c.336-.136.504-.463.375-.792-.264-.771-.572-1.517-.836-2.288-.129-.33-.456-.487-.793-.352-.336.136-.504.462-.375.792.264.771.527 1.542.86 2.331.026.044.1.174.194.235zm199.609 142.208c.282.184.624.16.841-.08a.587.587 0 00-.085-.873 45.643 45.643 0 00-2.014-1.555c-.282-.183-.668-.135-.861.149-.193.283-.153.664.13.848.729.446 1.368.944 1.989 1.511zM25.238 59.306a.65.65 0 00.575.074c.337-.135.505-.462.375-.792-.263-.771-.527-1.542-.746-2.339-.13-.33-.457-.488-.818-.395a.681.681 0 00-.42.817c.264.771.528 1.542.747 2.34.119.104.193.234.287.295zm-2.24-7.017c.164.079.372.133.575.074a.696.696 0 00.445-.774c-.22-.797-.483-1.568-.702-2.365-.085-.355-.457-.487-.773-.421-.362.092-.505.462-.445.774.22.797.483 1.568.702 2.365a.54.54 0 00.199.347zm-2.016-7.145a.581.581 0 00.53.1c.361-.093.529-.42.444-.775l-.443-1.706c-.085-.355-.412-.513-.774-.42-.361.091-.529.418-.444.773l.443 1.706c.03.156.105.286.244.322z"/></g></svg>